<svg viewBox="-250 -250 500 500" width="500" height="500" xmlns="http://www.w3.org/2000/svg"><path d="M138.91396562383466,-1.6672604648186964e-14L7.4750083781572085,-59.57403316350523L-20.95634438223896,-48.942099833313215zM138.91396562383466,-1.6672604648186964e-14L-20.95634438223896,-48.942099833313215L-48.66131387622283,-36.569435301508705zM138.91396562383466,-1.6672604648186964e-14L35.935269028316085,-68.18848181667421L7.4750083781572085,-59.57403316350523zM138.91396562383466,-1.6672604648186964e-14L-48.66131387622283,-36.569435301508705L-74.94780498517018,-22.747310142434053zM138.91396562383466,-1.6672604648186964e-14L63.69893820850472,-74.51631831996073L35.935269028316085,-68.18848181667421zM138.91396562383466,-1.6672604648186964e-14L-74.94780498517018,-22.747310142434053L-99.10817821877103,-7.792617705301182zM138.91396562383466,-1.6672604648186964e-14L89.99106714106756,-78.29453016973626L63.69893820850472,-74.51631831996073zM138.91396562383466,-1.6672604648186964e-14L-99.10817821877103,-7.792617705301182L-120.40314968746318,7.938126958481182zM138.91396562383466,-1.6672604648186964e-14L113.97059713172173,-79.27152791422222L89.99106714106756,-78.29453016973626zM138.91396562383466,-1.6672604648186964e-14L-120.40314968746318,7.938126958481182L-138.05411335878014,24.033285072596534zM138.91396562383466,-1.6672604648186964e-14L134.72325975428998,-77.22109471449805L113.97059713172173,-79.27152791422222zM138.91396562383466,-1.6672604648186964e-14L-138.05411335878014,24.033285072596534L-151.24840451183925,40.01126950055982zM138.91396562383466,-1.6672604648186964e-14L151.27034448644358,-71.966466591178L134.72325975428998,-77.22109471449805zM138.91396562383466,-1.6672604648186964e-14L-151.24840451183925,40.01126950055982L-159.16329501349784,55.309658462874935zM138.91396562383466,-1.6672604648186964e-14L162.60071790922453,-63.415588481273375L151.27034448644358,-71.966466591178zM138.91396562383466,-1.6672604648186964e-14L-159.16329501349784,55.309658462874935L-161.0147676447237,69.2830007544402zM138.91396562383466,-1.6672604648186964e-14L167.73404804047763,-51.60650034745294L162.60071790922453,-63.415588481273375zM138.91396562383466,-1.6672604648186964e-14L-161.0147676447237,69.2830007544402L-156.1356393438046,81.21529518897094zM138.91396562383466,-1.6672604648186964e-14L165.81993003297322,-36.75858980944548L167.73404804047763,-51.60650034745294zM138.91396562383466,-1.6672604648186964e-14L-156.1356393438046,81.21529518897094L-144.0834668030392,90.35384695033936zM138.91396562383466,-1.6672604648186964e-14L156.27080655522911,-19.320443998879046L165.81993003297322,-36.75858980944548zM138.91396562383466,-1.6672604648186964e-14L-144.0834668030392,90.35384695033936L-124.76947411253724,95.96926678069283zM138.91396562383466,-1.6672604648186964e-14L-124.76947411253724,95.96926678069283L-98.58776750219214,97.4413099605623zM138.91396562383466,-1.6672604648186964e-14L-98.58776750219214,97.4413099605623L-66.51033017144469,94.36145348809278zM138.91396562383466,-1.6672604648186964e-14L82.9527832675031,40.237815414298446L114.1325730574249,20.24030793422596zM138.91396562383466,-1.6672604648186964e-14L-66.51033017144469,94.36145348809278L-30.107547650939587,86.6320006423295zM138.91396562383466,-1.6672604648186964e-14L47.034056703157795,58.73673050922623L82.9527832675031,40.237815414298446zM138.91396562383466,-1.6672604648186964e-14L-30.107547650939587,86.6320006423295L8.538596444637376,74.53391186612005zM138.91396562383466,-1.6672604648186964e-14L8.538596444637376,74.53391186612005L47.034056703157795,58.73673050922623z" style="fill:rgb(82,237,172)"/></svg>