solid JSxCAD
facet normal -0.9795298114378439 0.20129915177303173 0
outer loop
vertex -49.74347 5.05842 0
vertex -49.74347 5.05842 10
vertex -47.70696 14.96816 0
endloop
endfacet
facet normal -0.9795298114378439 0.20129915177303173 0
outer loop
vertex -47.70696 14.96816 0
vertex -49.74347 5.05842 10
vertex -47.70696 14.96816 10
endloop
endfacet
facet normal -0.9189578533158753 0.3943557579509624 0
outer loop
vertex -47.70696 14.96816 0
vertex -47.70696 14.96816 10
vertex -43.71733 24.2651 0
endloop
endfacet
facet normal -0.9189578533158753 0.3943557579509624 0
outer loop
vertex -43.71733 24.2651 0
vertex -47.70696 14.96816 10
vertex -43.71733 24.2651 10
endloop
endfacet
facet normal -0.8207634639082971 0.5712681824793442 0
outer loop
vertex -43.71733 24.2651 0
vertex -43.71733 24.2651 10
vertex -37.93791 32.56862 0
endloop
endfacet
facet normal -0.8207634639082971 0.5712681824793442 0
outer loop
vertex -37.93791 32.56862 0
vertex -43.71733 24.2651 10
vertex -37.93791 32.56862 10
endloop
endfacet
facet normal -0.6889671498550882 0.7247925678568705 0
outer loop
vertex -37.93791 32.56862 0
vertex -37.93791 32.56862 10
vertex -30.6053 39.53879 0
endloop
endfacet
facet normal -0.6889671498550882 0.7247925678568705 0
outer loop
vertex -30.6053 39.53879 0
vertex -37.93791 32.56862 10
vertex -30.6053 39.53879 10
endloop
endfacet
facet normal -0.5289640697091161 0.8486442204815688 0
outer loop
vertex -30.6053 39.53879 0
vertex -30.6053 39.53879 10
vertex -22.01971 44.89023 0
endloop
endfacet
facet normal -0.5289640697091161 0.8486442204815688 0
outer loop
vertex -22.01971 44.89023 0
vertex -30.6053 39.53879 10
vertex -22.01971 44.89023 10
endloop
endfacet
facet normal -0.3473053738932253 0.9377520873156652 0
outer loop
vertex -22.01971 44.89023 0
vertex -22.01971 44.89023 10
vertex -12.53263 48.40386 0
endloop
endfacet
facet normal -0.3473053738932253 0.9377520873156652 0
outer loop
vertex -12.53263 48.40386 0
vertex -22.01971 44.89023 10
vertex -12.53263 48.40386 10
endloop
endfacet
facet normal -0.15142780691905028 0.9884683198219792 0
outer loop
vertex -12.53263 48.40386 0
vertex -12.53263 48.40386 10
vertex -2.53246 49.93583 0
endloop
endfacet
facet normal -0.15142780691905028 0.9884683198219792 0
outer loop
vertex -2.53246 49.93583 0
vertex -12.53263 48.40386 10
vertex -2.53246 49.93583 10
endloop
endfacet
facet normal 0.05064924000160795 0.9987165035620768 0
outer loop
vertex -2.53246 49.93583 0
vertex -2.53246 49.93583 10
vertex 7.57139 49.42342 0
endloop
endfacet
facet normal 0.05064924000160795 0.9987165035620768 0
outer loop
vertex 7.57139 49.42342 0
vertex -2.53246 49.93583 10
vertex 7.57139 49.42342 10
endloop
endfacet
facet normal 0.25065265882561993 0.9680770860957548 0
outer loop
vertex 7.57139 49.42342 0
vertex 7.57139 49.42342 10
vertex 17.36526 46.88761 0
endloop
endfacet
facet normal 0.25065265882561993 0.9680770860957548 0
outer loop
vertex 17.36526 46.88761 0
vertex 7.57139 49.42342 10
vertex 17.36526 46.88761 10
endloop
endfacet
facet normal 0.4403945678231685 0.8978043353826293 0
outer loop
vertex 17.36526 46.88761 0
vertex 17.36526 46.88761 10
vertex 26.4482 42.43221 0
endloop
endfacet
facet normal 0.4403945678231685 0.8978043353826293 0
outer loop
vertex 26.4482 42.43221 0
vertex 17.36526 46.88761 10
vertex 26.4482 42.43221 10
endloop
endfacet
facet normal 0.6121055470947208 0.7907760740031735 0
outer loop
vertex 26.4482 42.43221 0
vertex 26.4482 42.43221 10
vertex 34.44835 36.23964 0
endloop
endfacet
facet normal 0.6121055470947208 0.7907760740031735 0
outer loop
vertex 34.44835 36.23964 0
vertex 26.4482 42.43221 10
vertex 34.44835 36.23964 10
endloop
endfacet
facet normal 0.7587584794478406 0.6513720671521008 0
outer loop
vertex 34.44835 36.23964 0
vertex 34.44835 36.23964 10
vertex 41.03817 28.56341 0
endloop
endfacet
facet normal 0.7587584794478406 0.6513720671521008 0
outer loop
vertex 41.03817 28.56341 0
vertex 34.44835 36.23964 10
vertex 41.03817 28.56341 10
endloop
endfacet
facet normal 0.8743466006785033 0.48530199039561517 0
outer loop
vertex 41.03817 28.56341 0
vertex 41.03817 28.56341 10
vertex 45.94789 19.71779 0
endloop
endfacet
facet normal 0.8743466006785033 0.48530199039561517 0
outer loop
vertex 45.94789 19.71779 0
vertex 41.03817 28.56341 10
vertex 45.94789 19.71779 10
endloop
endfacet
facet normal 0.9541390972585959 0.2993636301933682 0
outer loop
vertex 45.94789 19.71779 0
vertex 45.94789 19.71779 10
vertex 48.9765 10.06493 0
endloop
endfacet
facet normal 0.9541390972585959 0.2993636301933682 0
outer loop
vertex 48.9765 10.06493 0
vertex 45.94789 19.71779 10
vertex 48.9765 10.06493 10
endloop
endfacet
facet normal 0.994869356657123 0.10116799486320956 0
outer loop
vertex 48.9765 10.06493 0
vertex 48.9765 10.06493 10
vertex 50 0 0
endloop
endfacet
facet normal 0.994869356657123 0.10116799486320956 0
outer loop
vertex 50 0 0
vertex 48.9765 10.06493 10
vertex 50 0 10
endloop
endfacet
facet normal 0.994869356657123 -0.10116799486320956 0
outer loop
vertex 50 0 0
vertex 50 0 10
vertex 48.9765 -10.06493 0
endloop
endfacet
facet normal 0.994869356657123 -0.10116799486320956 0
outer loop
vertex 48.9765 -10.06493 0
vertex 50 0 10
vertex 48.9765 -10.06493 10
endloop
endfacet
facet normal 0.9541390972585959 -0.2993636301933682 0
outer loop
vertex 48.9765 -10.06493 0
vertex 48.9765 -10.06493 10
vertex 45.94789 -19.71779 0
endloop
endfacet
facet normal 0.9541390972585959 -0.2993636301933682 0
outer loop
vertex 45.94789 -19.71779 0
vertex 48.9765 -10.06493 10
vertex 45.94789 -19.71779 10
endloop
endfacet
facet normal 0.8743466006785033 -0.48530199039561517 0
outer loop
vertex 45.94789 -19.71779 0
vertex 45.94789 -19.71779 10
vertex 41.03817 -28.56341 0
endloop
endfacet
facet normal 0.8743466006785033 -0.48530199039561517 0
outer loop
vertex 41.03817 -28.56341 0
vertex 45.94789 -19.71779 10
vertex 41.03817 -28.56341 10
endloop
endfacet
facet normal 0.7587584794478406 -0.6513720671521008 0
outer loop
vertex 41.03817 -28.56341 0
vertex 41.03817 -28.56341 10
vertex 34.44835 -36.23964 0
endloop
endfacet
facet normal 0.7587584794478406 -0.6513720671521008 0
outer loop
vertex 34.44835 -36.23964 0
vertex 41.03817 -28.56341 10
vertex 34.44835 -36.23964 10
endloop
endfacet
facet normal 0.6121055470947208 -0.7907760740031735 0
outer loop
vertex 34.44835 -36.23964 0
vertex 34.44835 -36.23964 10
vertex 26.4482 -42.43221 0
endloop
endfacet
facet normal 0.6121055470947208 -0.7907760740031735 0
outer loop
vertex 26.4482 -42.43221 0
vertex 34.44835 -36.23964 10
vertex 26.4482 -42.43221 10
endloop
endfacet
facet normal 0.4403945678231685 -0.8978043353826293 0
outer loop
vertex 26.4482 -42.43221 0
vertex 26.4482 -42.43221 10
vertex 17.36526 -46.88761 0
endloop
endfacet
facet normal 0.4403945678231685 -0.8978043353826293 0
outer loop
vertex 17.36526 -46.88761 0
vertex 26.4482 -42.43221 10
vertex 17.36526 -46.88761 10
endloop
endfacet
facet normal 0.25065265882561993 -0.9680770860957548 0
outer loop
vertex 17.36526 -46.88761 0
vertex 17.36526 -46.88761 10
vertex 7.57139 -49.42342 0
endloop
endfacet
facet normal 0.25065265882561993 -0.9680770860957548 0
outer loop
vertex 7.57139 -49.42342 0
vertex 17.36526 -46.88761 10
vertex 7.57139 -49.42342 10
endloop
endfacet
facet normal 0.05064924000160795 -0.9987165035620768 0
outer loop
vertex 7.57139 -49.42342 0
vertex 7.57139 -49.42342 10
vertex -2.53246 -49.93583 0
endloop
endfacet
facet normal 0.05064924000160795 -0.9987165035620768 0
outer loop
vertex -2.53246 -49.93583 0
vertex 7.57139 -49.42342 10
vertex -2.53246 -49.93583 10
endloop
endfacet
facet normal -0.15142780691905028 -0.9884683198219792 0
outer loop
vertex -2.53246 -49.93583 0
vertex -2.53246 -49.93583 10
vertex -12.53263 -48.40386 0
endloop
endfacet
facet normal -0.15142780691905028 -0.9884683198219792 0
outer loop
vertex -12.53263 -48.40386 0
vertex -2.53246 -49.93583 10
vertex -12.53263 -48.40386 10
endloop
endfacet
facet normal -0.3473053738932253 -0.9377520873156652 0
outer loop
vertex -12.53263 -48.40386 0
vertex -12.53263 -48.40386 10
vertex -22.01971 -44.89023 0
endloop
endfacet
facet normal -0.3473053738932253 -0.9377520873156652 0
outer loop
vertex -22.01971 -44.89023 0
vertex -12.53263 -48.40386 10
vertex -22.01971 -44.89023 10
endloop
endfacet
facet normal -0.5289640697091161 -0.8486442204815688 0
outer loop
vertex -22.01971 -44.89023 0
vertex -22.01971 -44.89023 10
vertex -30.6053 -39.53879 0
endloop
endfacet
facet normal -0.5289640697091161 -0.8486442204815688 0
outer loop
vertex -30.6053 -39.53879 0
vertex -22.01971 -44.89023 10
vertex -30.6053 -39.53879 10
endloop
endfacet
facet normal -0.6889671498550882 -0.7247925678568705 0
outer loop
vertex -30.6053 -39.53879 0
vertex -30.6053 -39.53879 10
vertex -37.93791 -32.56862 0
endloop
endfacet
facet normal -0.6889671498550882 -0.7247925678568705 0
outer loop
vertex -37.93791 -32.56862 0
vertex -30.6053 -39.53879 10
vertex -37.93791 -32.56862 10
endloop
endfacet
facet normal -0.8207634639082971 -0.5712681824793442 0
outer loop
vertex -37.93791 -32.56862 0
vertex -37.93791 -32.56862 10
vertex -43.71733 -24.2651 0
endloop
endfacet
facet normal -0.8207634639082971 -0.5712681824793442 0
outer loop
vertex -43.71733 -24.2651 0
vertex -37.93791 -32.56862 10
vertex -43.71733 -24.2651 10
endloop
endfacet
facet normal -0.9189578533158753 -0.3943557579509624 0
outer loop
vertex -43.71733 -24.2651 0
vertex -43.71733 -24.2651 10
vertex -47.70696 -14.96816 0
endloop
endfacet
facet normal -0.9189578533158753 -0.3943557579509624 0
outer loop
vertex -47.70696 -14.96816 0
vertex -43.71733 -24.2651 10
vertex -47.70696 -14.96816 10
endloop
endfacet
facet normal -0.9795298114378439 -0.20129915177303173 0
outer loop
vertex -47.70696 -14.96816 0
vertex -47.70696 -14.96816 10
vertex -49.74347 -5.05842 0
endloop
endfacet
facet normal -0.9795298114378439 -0.20129915177303173 0
outer loop
vertex -49.74347 -5.05842 0
vertex -47.70696 -14.96816 10
vertex -49.74347 -5.05842 10
endloop
endfacet
facet normal -1 0 0
outer loop
vertex -49.74347 -5.05842 0
vertex -49.74347 -5.05842 10
vertex -49.74347 5.05842 0
endloop
endfacet
facet normal -1 0 0
outer loop
vertex -49.74347 5.05842 0
vertex -49.74347 -5.05842 10
vertex -49.74347 5.05842 10
endloop
endfacet
facet normal 0.9189576817593093 0.3943561577249122 0
outer loop
vertex -40.55092 -12.72293 0
vertex -40.55092 -12.72293 10
vertex -37.15973 -20.62533 0
endloop
endfacet
facet normal 0.9189576817593093 0.3943561577249122 0
outer loop
vertex -37.15973 -20.62533 0
vertex -40.55092 -12.72293 10
vertex -37.15973 -20.62533 10
endloop
endfacet
facet normal 0.8207636039370239 0.5712679812945131 0
outer loop
vertex -37.15973 -20.62533 0
vertex -37.15973 -20.62533 10
vertex -32.24722 -27.68333 0
endloop
endfacet
facet normal 0.8207636039370239 0.5712679812945131 0
outer loop
vertex -32.24722 -27.68333 0
vertex -37.15973 -20.62533 10
vertex -32.24722 -27.68333 10
endloop
endfacet
facet normal 0.6889667878496708 0.7247929119687269 0
outer loop
vertex -32.24722 -27.68333 0
vertex -32.24722 -27.68333 10
vertex -26.0145 -33.60797 0
endloop
endfacet
facet normal 0.6889667878496708 0.7247929119687269 0
outer loop
vertex -26.0145 -33.60797 0
vertex -32.24722 -27.68333 10
vertex -26.0145 -33.60797 10
endloop
endfacet
facet normal 0.5289638130098387 0.8486443804834227 0
outer loop
vertex -26.0145 -33.60797 0
vertex -26.0145 -33.60797 10
vertex -18.71675 -38.15669 0
endloop
endfacet
facet normal 0.5289638130098387 0.8486443804834227 0
outer loop
vertex -18.71675 -38.15669 0
vertex -26.0145 -33.60797 10
vertex -18.71675 -38.15669 10
endloop
endfacet
facet normal 0.3473057583231779 0.9377519449382988 0
outer loop
vertex -18.71675 -38.15669 0
vertex -18.71675 -38.15669 10
vertex -10.65273 -41.14328 0
endloop
endfacet
facet normal 0.3473057583231779 0.9377519449382988 0
outer loop
vertex -10.65273 -41.14328 0
vertex -18.71675 -38.15669 10
vertex -10.65273 -41.14328 10
endloop
endfacet
facet normal 0.15142737394839137 0.9884683861505607 0
outer loop
vertex -10.65273 -41.14328 0
vertex -10.65273 -41.14328 10
vertex -2.15259 -42.44545 0
endloop
endfacet
facet normal 0.15142737394839137 0.9884683861505607 0
outer loop
vertex -2.15259 -42.44545 0
vertex -10.65273 -41.14328 10
vertex -2.15259 -42.44545 10
endloop
endfacet
facet normal -0.050649428692685156 0.998716493992717 0
outer loop
vertex -2.15259 -42.44545 0
vertex -2.15259 -42.44545 10
vertex 6.43568 -42.0099 0
endloop
endfacet
facet normal -0.050649428692685156 0.998716493992717 0
outer loop
vertex 6.43568 -42.0099 0
vertex -2.15259 -42.44545 10
vertex 6.43568 -42.0099 10
endloop
endfacet
facet normal -0.2506517183657458 0.9680773295973307 0
outer loop
vertex 6.43568 -42.0099 0
vertex 6.43568 -42.0099 10
vertex 14.76047 -39.85447 0
endloop
endfacet
facet normal -0.2506517183657458 0.9680773295973307 0
outer loop
vertex 14.76047 -39.85447 0
vertex 6.43568 -42.0099 10
vertex 14.76047 -39.85447 10
endloop
endfacet
facet normal -0.4403945218441239 0.8978043579364523 0
outer loop
vertex 14.76047 -39.85447 0
vertex 14.76047 -39.85447 10
vertex 22.48097 -36.06738 0
endloop
endfacet
facet normal -0.4403945218441239 0.8978043579364523 0
outer loop
vertex 22.48097 -36.06738 0
vertex 14.76047 -39.85447 10
vertex 22.48097 -36.06738 10
endloop
endfacet
facet normal -0.6121063692055606 0.7907754376420565 0
outer loop
vertex 22.48097 -36.06738 0
vertex 22.48097 -36.06738 10
vertex 29.28109 -30.80369 0
endloop
endfacet
facet normal -0.6121063692055606 0.7907754376420565 0
outer loop
vertex 29.28109 -30.80369 0
vertex 22.48097 -36.06738 10
vertex 29.28109 -30.80369 10
endloop
endfacet
facet normal -0.7587574609216479 0.6513732535925421 0
outer loop
vertex 29.28109 -30.80369 0
vertex 29.28109 -30.80369 10
vertex 34.88245 -24.2789 0
endloop
endfacet
facet normal -0.7587574609216479 0.6513732535925421 0
outer loop
vertex 34.88245 -24.2789 0
vertex 29.28109 -30.80369 10
vertex 34.88245 -24.2789 10
endloop
endfacet
facet normal -0.8743467815299476 0.48530166456362184 0
outer loop
vertex 34.88245 -24.2789 0
vertex 34.88245 -24.2789 10
vertex 39.05571 -16.76012 0
endloop
endfacet
facet normal -0.8743467815299476 0.48530166456362184 0
outer loop
vertex 39.05571 -16.76012 0
vertex 34.88245 -24.2789 10
vertex 39.05571 -16.76012 10
endloop
endfacet
facet normal -0.9541393691728036 0.29936276354036456 0
outer loop
vertex 39.05571 -16.76012 0
vertex 39.05571 -16.76012 10
vertex 41.63002 -8.55519 0
endloop
endfacet
facet normal -0.9541393691728036 0.29936276354036456 0
outer loop
vertex 41.63002 -8.55519 0
vertex 39.05571 -16.76012 10
vertex 41.63002 -8.55519 10
endloop
endfacet
facet normal -0.994869297540333 0.10116857620627213 0
outer loop
vertex 41.63002 -8.55519 0
vertex 41.63002 -8.55519 10
vertex 42.5 0 0
endloop
endfacet
facet normal -0.994869297540333 0.10116857620627213 0
outer loop
vertex 42.5 0 0
vertex 41.63002 -8.55519 10
vertex 42.5 0 10
endloop
endfacet
facet normal -0.994869297540333 -0.10116857620627213 0
outer loop
vertex 42.5 0 0
vertex 42.5 0 10
vertex 41.63002 8.55519 0
endloop
endfacet
facet normal -0.994869297540333 -0.10116857620627213 0
outer loop
vertex 41.63002 8.55519 0
vertex 42.5 0 10
vertex 41.63002 8.55519 10
endloop
endfacet
facet normal -0.9541393691728036 -0.29936276354036456 0
outer loop
vertex 41.63002 8.55519 0
vertex 41.63002 8.55519 10
vertex 39.05571 16.76012 0
endloop
endfacet
facet normal -0.9541393691728036 -0.29936276354036456 0
outer loop
vertex 39.05571 16.76012 0
vertex 41.63002 8.55519 10
vertex 39.05571 16.76012 10
endloop
endfacet
facet normal -0.8743467815299476 -0.48530166456362184 0
outer loop
vertex 39.05571 16.76012 0
vertex 39.05571 16.76012 10
vertex 34.88245 24.2789 0
endloop
endfacet
facet normal -0.8743467815299476 -0.48530166456362184 0
outer loop
vertex 34.88245 24.2789 0
vertex 39.05571 16.76012 10
vertex 34.88245 24.2789 10
endloop
endfacet
facet normal -0.7587574609216479 -0.6513732535925421 0
outer loop
vertex 34.88245 24.2789 0
vertex 34.88245 24.2789 10
vertex 29.28109 30.80369 0
endloop
endfacet
facet normal -0.7587574609216479 -0.6513732535925421 0
outer loop
vertex 29.28109 30.80369 0
vertex 34.88245 24.2789 10
vertex 29.28109 30.80369 10
endloop
endfacet
facet normal -0.6121063692055606 -0.7907754376420565 0
outer loop
vertex 29.28109 30.80369 0
vertex 29.28109 30.80369 10
vertex 22.48097 36.06738 0
endloop
endfacet
facet normal -0.6121063692055606 -0.7907754376420565 0
outer loop
vertex 22.48097 36.06738 0
vertex 29.28109 30.80369 10
vertex 22.48097 36.06738 10
endloop
endfacet
facet normal -0.4403945218441239 -0.8978043579364523 0
outer loop
vertex 22.48097 36.06738 0
vertex 22.48097 36.06738 10
vertex 14.76047 39.85447 0
endloop
endfacet
facet normal -0.4403945218441239 -0.8978043579364523 0
outer loop
vertex 14.76047 39.85447 0
vertex 22.48097 36.06738 10
vertex 14.76047 39.85447 10
endloop
endfacet
facet normal -0.2506517183657458 -0.9680773295973307 0
outer loop
vertex 14.76047 39.85447 0
vertex 14.76047 39.85447 10
vertex 6.43568 42.0099 0
endloop
endfacet
facet normal -0.2506517183657458 -0.9680773295973307 0
outer loop
vertex 6.43568 42.0099 0
vertex 14.76047 39.85447 10
vertex 6.43568 42.0099 10
endloop
endfacet
facet normal -0.050649428692685156 -0.998716493992717 0
outer loop
vertex 6.43568 42.0099 0
vertex 6.43568 42.0099 10
vertex -2.15259 42.44545 0
endloop
endfacet
facet normal -0.050649428692685156 -0.998716493992717 0
outer loop
vertex -2.15259 42.44545 0
vertex 6.43568 42.0099 10
vertex -2.15259 42.44545 10
endloop
endfacet
facet normal 0.15142737394839137 -0.9884683861505607 0
outer loop
vertex -2.15259 42.44545 0
vertex -2.15259 42.44545 10
vertex -10.65273 41.14328 0
endloop
endfacet
facet normal 0.15142737394839137 -0.9884683861505607 0
outer loop
vertex -10.65273 41.14328 0
vertex -2.15259 42.44545 10
vertex -10.65273 41.14328 10
endloop
endfacet
facet normal 0.3473057583231779 -0.9377519449382988 0
outer loop
vertex -10.65273 41.14328 0
vertex -10.65273 41.14328 10
vertex -18.71675 38.15669 0
endloop
endfacet
facet normal 0.3473057583231779 -0.9377519449382988 0
outer loop
vertex -18.71675 38.15669 0
vertex -10.65273 41.14328 10
vertex -18.71675 38.15669 10
endloop
endfacet
facet normal 0.5289638130098387 -0.8486443804834227 0
outer loop
vertex -18.71675 38.15669 0
vertex -18.71675 38.15669 10
vertex -26.0145 33.60797 0
endloop
endfacet
facet normal 0.5289638130098387 -0.8486443804834227 0
outer loop
vertex -26.0145 33.60797 0
vertex -18.71675 38.15669 10
vertex -26.0145 33.60797 10
endloop
endfacet
facet normal 0.6889667878496708 -0.7247929119687269 0
outer loop
vertex -26.0145 33.60797 0
vertex -26.0145 33.60797 10
vertex -32.24722 27.68333 0
endloop
endfacet
facet normal 0.6889667878496708 -0.7247929119687269 0
outer loop
vertex -32.24722 27.68333 0
vertex -26.0145 33.60797 10
vertex -32.24722 27.68333 10
endloop
endfacet
facet normal 0.8207636039370239 -0.5712679812945131 0
outer loop
vertex -32.24722 27.68333 0
vertex -32.24722 27.68333 10
vertex -37.15973 20.62533 0
endloop
endfacet
facet normal 0.8207636039370239 -0.5712679812945131 0
outer loop
vertex -37.15973 20.62533 0
vertex -32.24722 27.68333 10
vertex -37.15973 20.62533 10
endloop
endfacet
facet normal 0.9189576817593093 -0.3943561577249122 0
outer loop
vertex -37.15973 20.62533 0
vertex -37.15973 20.62533 10
vertex -40.55092 12.72293 0
endloop
endfacet
facet normal 0.9189576817593093 -0.3943561577249122 0
outer loop
vertex -40.55092 12.72293 0
vertex -37.15973 20.62533 10
vertex -40.55092 12.72293 10
endloop
endfacet
facet normal 0.9795298964034428 -0.20129873832654924 0
outer loop
vertex -40.55092 12.72293 0
vertex -40.55092 12.72293 10
vertex -42.28195 4.29965 0
endloop
endfacet
facet normal 0.9795298964034428 -0.20129873832654924 0
outer loop
vertex -42.28195 4.29965 0
vertex -40.55092 12.72293 10
vertex -42.28195 4.29965 10
endloop
endfacet
facet normal 1 0 0
outer loop
vertex -42.28195 4.29965 0
vertex -42.28195 4.29965 10
vertex -42.28195 -4.29965 0
endloop
endfacet
facet normal 1 0 0
outer loop
vertex -42.28195 -4.29965 0
vertex -42.28195 4.29965 10
vertex -42.28195 -4.29965 10
endloop
endfacet
facet normal 0.9795298964034428 0.20129873832654924 0
outer loop
vertex -42.28195 -4.29965 0
vertex -42.28195 -4.29965 10
vertex -40.55092 -12.72293 0
endloop
endfacet
facet normal 0.9795298964034428 0.20129873832654924 0
outer loop
vertex -40.55092 -12.72293 0
vertex -42.28195 -4.29965 10
vertex -40.55092 -12.72293 10
endloop
endfacet
facet normal 0 0 1
outer loop
vertex 48.9765 10.06493 10
vertex 48.9765 -10.06493 10
vertex 50 0 10
endloop
endfacet
facet normal 0 0 1
outer loop
vertex 45.94789 19.71779 10
vertex 48.9765 -10.06493 10
vertex 48.9765 10.06493 10
endloop
endfacet
facet normal 0 0 1
outer loop
vertex 45.94789 19.71779 10
vertex 45.94789 -19.71779 10
vertex 48.9765 -10.06493 10
endloop
endfacet
facet normal 0 0 1
outer loop
vertex 45.94789 19.71779 10
vertex 42.5 0 10
vertex 45.94789 -19.71779 10
endloop
endfacet
facet normal 0 0 1
outer loop
vertex 45.94789 19.71779 10
vertex 41.63002 8.55519 10
vertex 42.5 0 10
endloop
endfacet
facet normal 0 0 1
outer loop
vertex 41.03817 28.56341 10
vertex 41.63002 8.55519 10
vertex 45.94789 19.71779 10
endloop
endfacet
facet normal 0 0 1
outer loop
vertex 41.03817 28.56341 10
vertex 39.05571 16.76012 10
vertex 41.63002 8.55519 10
endloop
endfacet
facet normal 0 0 1
outer loop
vertex 41.03817 28.56341 10
vertex 34.88245 24.2789 10
vertex 39.05571 16.76012 10
endloop
endfacet
facet normal 0 0 1
outer loop
vertex 34.44835 36.23964 10
vertex 34.88245 24.2789 10
vertex 41.03817 28.56341 10
endloop
endfacet
facet normal 0 0 1
outer loop
vertex 34.44835 36.23964 10
vertex 29.28109 30.80369 10
vertex 34.88245 24.2789 10
endloop
endfacet
facet normal 0 0 1
outer loop
vertex 26.4482 42.43221 10
vertex 29.28109 30.80369 10
vertex 34.44835 36.23964 10
endloop
endfacet
facet normal 0 0 1
outer loop
vertex 26.4482 42.43221 10
vertex 22.48097 36.06738 10
vertex 29.28109 30.80369 10
endloop
endfacet
facet normal 0 0 1
outer loop
vertex 17.36526 46.88761 10
vertex 22.48097 36.06738 10
vertex 26.4482 42.43221 10
endloop
endfacet
facet normal 0 0 1
outer loop
vertex 17.36526 46.88761 10
vertex 14.76047 39.85447 10
vertex 22.48097 36.06738 10
endloop
endfacet
facet normal 0 0 1
outer loop
vertex 7.57139 49.42342 10
vertex 14.76047 39.85447 10
vertex 17.36526 46.88761 10
endloop
endfacet
facet normal 0 0 1
outer loop
vertex 7.57139 49.42342 10
vertex 6.43568 42.0099 10
vertex 14.76047 39.85447 10
endloop
endfacet
facet normal 0 0 1
outer loop
vertex 7.57139 49.42342 10
vertex -2.15259 42.44545 10
vertex 6.43568 42.0099 10
endloop
endfacet
facet normal 0 0 1
outer loop
vertex -2.53246 49.93583 10
vertex -2.15259 42.44545 10
vertex 7.57139 49.42342 10
endloop
endfacet
facet normal 0 0 1
outer loop
vertex -2.53246 49.93583 10
vertex -10.65273 41.14328 10
vertex -2.15259 42.44545 10
endloop
endfacet
facet normal 0 0 1
outer loop
vertex -12.53263 48.40386 10
vertex -10.65273 41.14328 10
vertex -2.53246 49.93583 10
endloop
endfacet
facet normal 0 0 1
outer loop
vertex -12.53263 48.40386 10
vertex -18.71675 38.15669 10
vertex -10.65273 41.14328 10
endloop
endfacet
facet normal 0 0 1
outer loop
vertex -22.01971 44.89023 10
vertex -18.71675 38.15669 10
vertex -12.53263 48.40386 10
endloop
endfacet
facet normal 0 0 1
outer loop
vertex -22.01971 44.89023 10
vertex -26.0145 33.60797 10
vertex -18.71675 38.15669 10
endloop
endfacet
facet normal 0 0 1
outer loop
vertex -30.6053 39.53879 10
vertex -26.0145 33.60797 10
vertex -22.01971 44.89023 10
endloop
endfacet
facet normal 0 0 1
outer loop
vertex -30.6053 39.53879 10
vertex -32.24722 27.68333 10
vertex -26.0145 33.60797 10
endloop
endfacet
facet normal 0 0 1
outer loop
vertex -30.6053 39.53879 10
vertex -37.15973 20.62533 10
vertex -32.24722 27.68333 10
endloop
endfacet
facet normal 0 0 1
outer loop
vertex -37.93791 32.56862 10
vertex -37.15973 20.62533 10
vertex -30.6053 39.53879 10
endloop
endfacet
facet normal 0 0 1
outer loop
vertex -37.93791 32.56862 10
vertex -40.55092 12.72293 10
vertex -37.15973 20.62533 10
endloop
endfacet
facet normal 0 0 1
outer loop
vertex -37.93791 32.56862 10
vertex -42.28195 4.29965 10
vertex -40.55092 12.72293 10
endloop
endfacet
facet normal 0 0 1
outer loop
vertex -42.28195 4.29965 10
vertex -43.71733 24.2651 10
vertex -42.28195 -4.29965 10
endloop
endfacet
facet normal 0 0 1
outer loop
vertex -43.71733 24.2651 10
vertex -42.28195 4.29965 10
vertex -37.93791 32.56862 10
endloop
endfacet
facet normal 0 0 1
outer loop
vertex 41.63002 -8.55519 10
vertex 45.94789 -19.71779 10
vertex 42.5 0 10
endloop
endfacet
facet normal 0 0 1
outer loop
vertex 41.63002 -8.55519 10
vertex 41.03817 -28.56341 10
vertex 45.94789 -19.71779 10
endloop
endfacet
facet normal 0 0 1
outer loop
vertex 39.05571 -16.76012 10
vertex 41.03817 -28.56341 10
vertex 41.63002 -8.55519 10
endloop
endfacet
facet normal 0 0 1
outer loop
vertex 34.88245 -24.2789 10
vertex 41.03817 -28.56341 10
vertex 39.05571 -16.76012 10
endloop
endfacet
facet normal 0 0 1
outer loop
vertex 34.88245 -24.2789 10
vertex 34.44835 -36.23964 10
vertex 41.03817 -28.56341 10
endloop
endfacet
facet normal 0 0 1
outer loop
vertex 29.28109 -30.80369 10
vertex 34.44835 -36.23964 10
vertex 34.88245 -24.2789 10
endloop
endfacet
facet normal 0 0 1
outer loop
vertex 29.28109 -30.80369 10
vertex 26.4482 -42.43221 10
vertex 34.44835 -36.23964 10
endloop
endfacet
facet normal 0 0 1
outer loop
vertex 22.48097 -36.06738 10
vertex 26.4482 -42.43221 10
vertex 29.28109 -30.80369 10
endloop
endfacet
facet normal 0 0 1
outer loop
vertex 22.48097 -36.06738 10
vertex 17.36526 -46.88761 10
vertex 26.4482 -42.43221 10
endloop
endfacet
facet normal 0 0 1
outer loop
vertex 14.76047 -39.85447 10
vertex 17.36526 -46.88761 10
vertex 22.48097 -36.06738 10
endloop
endfacet
facet normal 0 0 1
outer loop
vertex 14.76047 -39.85447 10
vertex 7.57139 -49.42342 10
vertex 17.36526 -46.88761 10
endloop
endfacet
facet normal 0 0 1
outer loop
vertex 6.43568 -42.0099 10
vertex 7.57139 -49.42342 10
vertex 14.76047 -39.85447 10
endloop
endfacet
facet normal 0 0 1
outer loop
vertex -2.15259 -42.44545 10
vertex 7.57139 -49.42342 10
vertex 6.43568 -42.0099 10
endloop
endfacet
facet normal 0 0 1
outer loop
vertex -2.15259 -42.44545 10
vertex -2.53246 -49.93583 10
vertex 7.57139 -49.42342 10
endloop
endfacet
facet normal 0 0 1
outer loop
vertex -10.65273 -41.14328 10
vertex -2.53246 -49.93583 10
vertex -2.15259 -42.44545 10
endloop
endfacet
facet normal 0 0 1
outer loop
vertex -10.65273 -41.14328 10
vertex -12.53263 -48.40386 10
vertex -2.53246 -49.93583 10
endloop
endfacet
facet normal 0 0 1
outer loop
vertex -18.71675 -38.15669 10
vertex -12.53263 -48.40386 10
vertex -10.65273 -41.14328 10
endloop
endfacet
facet normal 0 0 1
outer loop
vertex -18.71675 -38.15669 10
vertex -22.01971 -44.89023 10
vertex -12.53263 -48.40386 10
endloop
endfacet
facet normal 0 0 1
outer loop
vertex -26.0145 -33.60797 10
vertex -22.01971 -44.89023 10
vertex -18.71675 -38.15669 10
endloop
endfacet
facet normal 0 0 1
outer loop
vertex -26.0145 -33.60797 10
vertex -30.6053 -39.53879 10
vertex -22.01971 -44.89023 10
endloop
endfacet
facet normal 0 0 1
outer loop
vertex -32.24722 -27.68333 10
vertex -30.6053 -39.53879 10
vertex -26.0145 -33.60797 10
endloop
endfacet
facet normal 0 0 1
outer loop
vertex -37.15973 -20.62533 10
vertex -30.6053 -39.53879 10
vertex -32.24722 -27.68333 10
endloop
endfacet
facet normal 0 0 1
outer loop
vertex -37.15973 -20.62533 10
vertex -37.93791 -32.56862 10
vertex -30.6053 -39.53879 10
endloop
endfacet
facet normal 0 0 1
outer loop
vertex -40.55092 -12.72293 10
vertex -37.93791 -32.56862 10
vertex -37.15973 -20.62533 10
endloop
endfacet
facet normal 0 0 1
outer loop
vertex -42.28195 -4.29965 10
vertex -37.93791 -32.56862 10
vertex -40.55092 -12.72293 10
endloop
endfacet
facet normal 0 0 1
outer loop
vertex -42.28195 -4.29965 10
vertex -43.71733 -24.2651 10
vertex -37.93791 -32.56862 10
endloop
endfacet
facet normal 0 0 1
outer loop
vertex -43.71733 24.2651 10
vertex -43.71733 -24.2651 10
vertex -42.28195 -4.29965 10
endloop
endfacet
facet normal 0 0 1
outer loop
vertex -47.70696 14.96816 10
vertex -43.71733 -24.2651 10
vertex -43.71733 24.2651 10
endloop
endfacet
facet normal 0 0 1
outer loop
vertex -47.70696 14.96816 10
vertex -47.70696 -14.96816 10
vertex -43.71733 -24.2651 10
endloop
endfacet
facet normal 0 0 1
outer loop
vertex -49.74347 5.05842 10
vertex -47.70696 -14.96816 10
vertex -47.70696 14.96816 10
endloop
endfacet
facet normal 0 0 1
outer loop
vertex -47.70696 -14.96816 10
vertex -49.74347 5.05842 10
vertex -49.74347 -5.05842 10
endloop
endfacet
facet normal 0 0 -1
outer loop
vertex 50 0 0
vertex 48.9765 -10.06493 0
vertex 48.9765 10.06493 0
endloop
endfacet
facet normal 0 0 -1
outer loop
vertex 48.9765 10.06493 0
vertex 48.9765 -10.06493 0
vertex 45.94789 19.71779 0
endloop
endfacet
facet normal 0 0 -1
outer loop
vertex 48.9765 -10.06493 0
vertex 45.94789 -19.71779 0
vertex 45.94789 19.71779 0
endloop
endfacet
facet normal 0 0 -1
outer loop
vertex 45.94789 -19.71779 0
vertex 42.5 0 0
vertex 45.94789 19.71779 0
endloop
endfacet
facet normal 0 0 -1
outer loop
vertex 42.5 0 0
vertex 41.63002 8.55519 0
vertex 45.94789 19.71779 0
endloop
endfacet
facet normal 0 0 -1
outer loop
vertex 45.94789 19.71779 0
vertex 41.63002 8.55519 0
vertex 41.03817 28.56341 0
endloop
endfacet
facet normal 0 0 -1
outer loop
vertex 41.63002 8.55519 0
vertex 39.05571 16.76012 0
vertex 41.03817 28.56341 0
endloop
endfacet
facet normal 0 0 -1
outer loop
vertex 39.05571 16.76012 0
vertex 34.88245 24.2789 0
vertex 41.03817 28.56341 0
endloop
endfacet
facet normal 0 0 -1
outer loop
vertex 41.03817 28.56341 0
vertex 34.88245 24.2789 0
vertex 34.44835 36.23964 0
endloop
endfacet
facet normal 0 0 -1
outer loop
vertex 34.88245 24.2789 0
vertex 29.28109 30.80369 0
vertex 34.44835 36.23964 0
endloop
endfacet
facet normal 0 0 -1
outer loop
vertex 34.44835 36.23964 0
vertex 29.28109 30.80369 0
vertex 26.4482 42.43221 0
endloop
endfacet
facet normal 0 0 -1
outer loop
vertex 29.28109 30.80369 0
vertex 22.48097 36.06738 0
vertex 26.4482 42.43221 0
endloop
endfacet
facet normal 0 0 -1
outer loop
vertex 26.4482 42.43221 0
vertex 22.48097 36.06738 0
vertex 17.36526 46.88761 0
endloop
endfacet
facet normal 0 0 -1
outer loop
vertex 22.48097 36.06738 0
vertex 14.76047 39.85447 0
vertex 17.36526 46.88761 0
endloop
endfacet
facet normal 0 0 -1
outer loop
vertex 17.36526 46.88761 0
vertex 14.76047 39.85447 0
vertex 7.57139 49.42342 0
endloop
endfacet
facet normal 0 0 -1
outer loop
vertex 14.76047 39.85447 0
vertex 6.43568 42.0099 0
vertex 7.57139 49.42342 0
endloop
endfacet
facet normal 0 0 -1
outer loop
vertex 6.43568 42.0099 0
vertex -2.15259 42.44545 0
vertex 7.57139 49.42342 0
endloop
endfacet
facet normal 0 0 -1
outer loop
vertex 7.57139 49.42342 0
vertex -2.15259 42.44545 0
vertex -2.53246 49.93583 0
endloop
endfacet
facet normal 0 0 -1
outer loop
vertex -2.15259 42.44545 0
vertex -10.65273 41.14328 0
vertex -2.53246 49.93583 0
endloop
endfacet
facet normal 0 0 -1
outer loop
vertex -2.53246 49.93583 0
vertex -10.65273 41.14328 0
vertex -12.53263 48.40386 0
endloop
endfacet
facet normal 0 0 -1
outer loop
vertex -10.65273 41.14328 0
vertex -18.71675 38.15669 0
vertex -12.53263 48.40386 0
endloop
endfacet
facet normal 0 0 -1
outer loop
vertex -12.53263 48.40386 0
vertex -18.71675 38.15669 0
vertex -22.01971 44.89023 0
endloop
endfacet
facet normal 0 0 -1
outer loop
vertex -18.71675 38.15669 0
vertex -26.0145 33.60797 0
vertex -22.01971 44.89023 0
endloop
endfacet
facet normal 0 0 -1
outer loop
vertex -22.01971 44.89023 0
vertex -26.0145 33.60797 0
vertex -30.6053 39.53879 0
endloop
endfacet
facet normal 0 0 -1
outer loop
vertex -26.0145 33.60797 0
vertex -32.24722 27.68333 0
vertex -30.6053 39.53879 0
endloop
endfacet
facet normal 0 0 -1
outer loop
vertex -32.24722 27.68333 0
vertex -37.15973 20.62533 0
vertex -30.6053 39.53879 0
endloop
endfacet
facet normal 0 0 -1
outer loop
vertex -30.6053 39.53879 0
vertex -37.15973 20.62533 0
vertex -37.93791 32.56862 0
endloop
endfacet
facet normal 0 0 -1
outer loop
vertex -37.15973 20.62533 0
vertex -40.55092 12.72293 0
vertex -37.93791 32.56862 0
endloop
endfacet
facet normal 0 0 -1
outer loop
vertex -40.55092 12.72293 0
vertex -42.28195 4.29965 0
vertex -37.93791 32.56862 0
endloop
endfacet
facet normal 0 0 -1
outer loop
vertex -42.28195 -4.29965 0
vertex -43.71733 24.2651 0
vertex -42.28195 4.29965 0
endloop
endfacet
facet normal 0 0 -1
outer loop
vertex -37.93791 32.56862 0
vertex -42.28195 4.29965 0
vertex -43.71733 24.2651 0
endloop
endfacet
facet normal 0 0 -1
outer loop
vertex 42.5 0 0
vertex 45.94789 -19.71779 0
vertex 41.63002 -8.55519 0
endloop
endfacet
facet normal 0 0 -1
outer loop
vertex 45.94789 -19.71779 0
vertex 41.03817 -28.56341 0
vertex 41.63002 -8.55519 0
endloop
endfacet
facet normal 0 0 -1
outer loop
vertex 41.63002 -8.55519 0
vertex 41.03817 -28.56341 0
vertex 39.05571 -16.76012 0
endloop
endfacet
facet normal 0 0 -1
outer loop
vertex 39.05571 -16.76012 0
vertex 41.03817 -28.56341 0
vertex 34.88245 -24.2789 0
endloop
endfacet
facet normal 0 0 -1
outer loop
vertex 41.03817 -28.56341 0
vertex 34.44835 -36.23964 0
vertex 34.88245 -24.2789 0
endloop
endfacet
facet normal 0 0 -1
outer loop
vertex 34.88245 -24.2789 0
vertex 34.44835 -36.23964 0
vertex 29.28109 -30.80369 0
endloop
endfacet
facet normal 0 0 -1
outer loop
vertex 34.44835 -36.23964 0
vertex 26.4482 -42.43221 0
vertex 29.28109 -30.80369 0
endloop
endfacet
facet normal 0 0 -1
outer loop
vertex 29.28109 -30.80369 0
vertex 26.4482 -42.43221 0
vertex 22.48097 -36.06738 0
endloop
endfacet
facet normal 0 0 -1
outer loop
vertex 26.4482 -42.43221 0
vertex 17.36526 -46.88761 0
vertex 22.48097 -36.06738 0
endloop
endfacet
facet normal 0 0 -1
outer loop
vertex 22.48097 -36.06738 0
vertex 17.36526 -46.88761 0
vertex 14.76047 -39.85447 0
endloop
endfacet
facet normal 0 0 -1
outer loop
vertex 17.36526 -46.88761 0
vertex 7.57139 -49.42342 0
vertex 14.76047 -39.85447 0
endloop
endfacet
facet normal 0 0 -1
outer loop
vertex 14.76047 -39.85447 0
vertex 7.57139 -49.42342 0
vertex 6.43568 -42.0099 0
endloop
endfacet
facet normal 0 0 -1
outer loop
vertex 6.43568 -42.0099 0
vertex 7.57139 -49.42342 0
vertex -2.15259 -42.44545 0
endloop
endfacet
facet normal 0 0 -1
outer loop
vertex 7.57139 -49.42342 0
vertex -2.53246 -49.93583 0
vertex -2.15259 -42.44545 0
endloop
endfacet
facet normal 0 0 -1
outer loop
vertex -2.15259 -42.44545 0
vertex -2.53246 -49.93583 0
vertex -10.65273 -41.14328 0
endloop
endfacet
facet normal 0 0 -1
outer loop
vertex -2.53246 -49.93583 0
vertex -12.53263 -48.40386 0
vertex -10.65273 -41.14328 0
endloop
endfacet
facet normal 0 0 -1
outer loop
vertex -10.65273 -41.14328 0
vertex -12.53263 -48.40386 0
vertex -18.71675 -38.15669 0
endloop
endfacet
facet normal 0 0 -1
outer loop
vertex -12.53263 -48.40386 0
vertex -22.01971 -44.89023 0
vertex -18.71675 -38.15669 0
endloop
endfacet
facet normal 0 0 -1
outer loop
vertex -18.71675 -38.15669 0
vertex -22.01971 -44.89023 0
vertex -26.0145 -33.60797 0
endloop
endfacet
facet normal 0 0 -1
outer loop
vertex -22.01971 -44.89023 0
vertex -30.6053 -39.53879 0
vertex -26.0145 -33.60797 0
endloop
endfacet
facet normal 0 0 -1
outer loop
vertex -26.0145 -33.60797 0
vertex -30.6053 -39.53879 0
vertex -32.24722 -27.68333 0
endloop
endfacet
facet normal 0 0 -1
outer loop
vertex -32.24722 -27.68333 0
vertex -30.6053 -39.53879 0
vertex -37.15973 -20.62533 0
endloop
endfacet
facet normal 0 0 -1
outer loop
vertex -30.6053 -39.53879 0
vertex -37.93791 -32.56862 0
vertex -37.15973 -20.62533 0
endloop
endfacet
facet normal 0 0 -1
outer loop
vertex -37.15973 -20.62533 0
vertex -37.93791 -32.56862 0
vertex -40.55092 -12.72293 0
endloop
endfacet
facet normal 0 0 -1
outer loop
vertex -40.55092 -12.72293 0
vertex -37.93791 -32.56862 0
vertex -42.28195 -4.29965 0
endloop
endfacet
facet normal 0 0 -1
outer loop
vertex -37.93791 -32.56862 0
vertex -43.71733 -24.2651 0
vertex -42.28195 -4.29965 0
endloop
endfacet
facet normal 0 0 -1
outer loop
vertex -42.28195 -4.29965 0
vertex -43.71733 -24.2651 0
vertex -43.71733 24.2651 0
endloop
endfacet
facet normal 0 0 -1
outer loop
vertex -43.71733 24.2651 0
vertex -43.71733 -24.2651 0
vertex -47.70696 14.96816 0
endloop
endfacet
facet normal 0 0 -1
outer loop
vertex -43.71733 -24.2651 0
vertex -47.70696 -14.96816 0
vertex -47.70696 14.96816 0
endloop
endfacet
facet normal 0 0 -1
outer loop
vertex -47.70696 14.96816 0
vertex -47.70696 -14.96816 0
vertex -49.74347 5.05842 0
endloop
endfacet
facet normal 0 0 -1
outer loop
vertex -49.74347 -5.05842 0
vertex -49.74347 5.05842 0
vertex -47.70696 -14.96816 0
endloop
endfacet
endsolid JSxCAD
