solid JSxCAD
facet normal 0 0 -1
outer loop
vertex -5.58674 -45.89726 0
vertex -12.86395 -44.08285 0
vertex 3.58674 21.89726 0
endloop
endfacet
facet normal 0 0 -1
outer loop
vertex -5.58674 -45.89726 0
vertex 3.58674 21.89726 0
vertex 10.86395 20.08285 0
endloop
endfacet
facet normal 0 0 -1
outer loop
vertex 17.52731 46.80812 0
vertex 18.96842 46.10122 0
vertex 18.65236 45.63265 0
endloop
endfacet
facet normal 0 0 -1
outer loop
vertex 17.52731 46.80812 0
vertex 18.65236 45.63265 0
vertex 17.17792 45.40678 0
endloop
endfacet
facet normal 0 0 -1
outer loop
vertex 17.17792 45.40678 0
vertex 18.65236 45.63265 0
vertex 16.40264 42.2973 0
endloop
endfacet
facet normal 0 0 -1
outer loop
vertex 45.94789 -19.71779 0
vertex 41.03817 -28.56341 0
vertex 39.40152 -30.46989 0
endloop
endfacet
facet normal 0 0 -1
outer loop
vertex 45.94789 -19.71779 0
vertex 39.40152 -30.46989 0
vertex 44.72851 21.9147 0
endloop
endfacet
facet normal 0 0 -1
outer loop
vertex 45.94789 -19.71779 0
vertex 44.72851 21.9147 0
vertex 45.94789 19.71779 0
endloop
endfacet
facet normal 0 0 -1
outer loop
vertex 45.94789 -19.71779 0
vertex 45.94789 19.71779 0
vertex 48.9765 10.06493 0
endloop
endfacet
facet normal 0 0 -1
outer loop
vertex 45.94789 -19.71779 0
vertex 48.9765 10.06493 0
vertex 50 0 0
endloop
endfacet
facet normal 0 0 -1
outer loop
vertex 45.94789 -19.71779 0
vertex 50 0 0
vertex 48.9765 -10.06493 0
endloop
endfacet
facet normal 0 0 -1
outer loop
vertex -5.38029 -45.06927 0
vertex 36.085 -34.33316 0
vertex 34.44835 -36.23964 0
endloop
endfacet
facet normal 0 0 -1
outer loop
vertex -5.38029 -45.06927 0
vertex 34.44835 -36.23964 0
vertex 26.4482 -42.43221 0
endloop
endfacet
facet normal 0 0 -1
outer loop
vertex -5.38029 -45.06927 0
vertex 26.4482 -42.43221 0
vertex 17.36526 -46.88761 0
endloop
endfacet
facet normal 0 0 -1
outer loop
vertex -5.38029 -45.06927 0
vertex 17.36526 -46.88761 0
vertex 7.57139 -49.42342 0
endloop
endfacet
facet normal 0 0 -1
outer loop
vertex -5.38029 -45.06927 0
vertex 7.57139 -49.42342 0
vertex -2.53246 -49.93583 0
endloop
endfacet
facet normal 0 0 -1
outer loop
vertex -5.38029 -45.06927 0
vertex -2.53246 -49.93583 0
vertex -6.44425 -49.33656 0
endloop
endfacet
facet normal 0 0 -1
outer loop
vertex 41.18594 -12.92217 0
vertex 39.40152 -30.46989 0
vertex 36.085 -34.33316 0
endloop
endfacet
facet normal 0 0 -1
outer loop
vertex 41.18594 -12.92217 0
vertex 36.085 -34.33316 0
vertex 28.16346 -36.38419 0
endloop
endfacet
facet normal 0 0 -1
outer loop
vertex -5.38029 -45.06927 0
vertex -4.63142 -42.06571 0
vertex 2.1863 -43.11014 0
endloop
endfacet
facet normal 0 0 -1
outer loop
vertex 25.76599 42.76685 0
vertex 26.4482 42.43221 0
vertex 34.44835 36.23964 0
endloop
endfacet
facet normal 0 0 -1
outer loop
vertex 25.76599 42.76685 0
vertex 34.44835 36.23964 0
vertex 41.03817 28.56341 0
endloop
endfacet
facet normal 0 0 -1
outer loop
vertex 25.76599 42.76685 0
vertex 41.03817 28.56341 0
vertex 44.72851 21.9147 0
endloop
endfacet
facet normal 0 0 -1
outer loop
vertex 25.76599 42.76685 0
vertex 44.72851 21.9147 0
vertex 43.40711 8.92039 0
endloop
endfacet
facet normal 0 0 -1
outer loop
vertex 25.76599 42.76685 0
vertex 43.40711 8.92039 0
vertex 25.13776 41.83546 0
endloop
endfacet
facet normal 0 0 -1
outer loop
vertex 39.05571 16.76012 0
vertex 43.40711 8.92039 0
vertex 42.94408 4.36699 0
endloop
endfacet
facet normal 0 0 -1
outer loop
vertex 41.63002 8.55519 0
vertex 42.94408 4.36699 0
vertex 42.5 0 0
endloop
endfacet
facet normal 0 0 -1
outer loop
vertex 34.88245 -24.2789 0
vertex 28.16346 -36.38419 0
vertex 23.44063 -37.60702 0
endloop
endfacet
facet normal 0 0 -1
outer loop
vertex 24.63295 41.08704 0
vertex 25.13776 41.83546 0
vertex 25.57982 41.03902 0
endloop
endfacet
facet normal 0 0 -1
outer loop
vertex 24.63295 41.08704 0
vertex 25.57982 41.03902 0
vertex 28.16346 36.38419 0
endloop
endfacet
facet normal 0 0 -1
outer loop
vertex 24.63295 41.08704 0
vertex 28.16346 36.38419 0
vertex 22.45736 37.8616 0
endloop
endfacet
facet normal 0 0 -1
outer loop
vertex 26.42189 -34.13427 0
vertex 23.44063 -37.60702 0
vertex 14.76047 -39.85447 0
endloop
endfacet
facet normal 0 0 -1
outer loop
vertex 23.44063 37.60702 0
vertex 28.16346 36.38419 0
vertex 34.88245 24.2789 0
endloop
endfacet
facet normal 0 0 -1
outer loop
vertex 6.43568 -42.0099 0
vertex 2.1863 -43.11014 0
vertex -2.15259 -42.44545 0
endloop
endfacet
facet normal 0 0 -1
outer loop
vertex 22.45736 37.8616 0
vertex 23.44063 37.60702 0
vertex 29.28109 30.80369 0
endloop
endfacet
facet normal 0 0 -1
outer loop
vertex 22.45736 37.8616 0
vertex 29.28109 30.80369 0
vertex 21.67037 36.69484 0
endloop
endfacet
facet normal 0 0 -1
outer loop
vertex 29.28109 -30.80369 0
vertex 26.42189 -34.13427 0
vertex 22.48097 -36.06738 0
endloop
endfacet
facet normal 0 0 -1
outer loop
vertex 21.67037 36.69484 0
vertex 22.48097 36.06738 0
vertex 21.55388 36.52214 0
endloop
endfacet
facet normal 0 0 -1
outer loop
vertex 41.63002 -8.55519 0
vertex 41.18594 -12.92217 0
vertex 39.05571 -16.76012 0
endloop
endfacet
facet normal 0 0 -1
outer loop
vertex 18.96842 46.10122 0
vertex 19.62111 45.78106 0
vertex 18.65236 45.63265 0
endloop
endfacet
facet normal 0 0 -1
outer loop
vertex 25.76599 42.76685 0
vertex 25.13776 41.83546 0
vertex 24.19235 43.53876 0
endloop
endfacet
facet normal 0 0 -1
outer loop
vertex 16.20742 41.51434 0
vertex 16.40264 42.2973 0
vertex 18.65236 45.63265 0
endloop
endfacet
facet normal 0 0 -1
outer loop
vertex 16.20742 41.51434 0
vertex 18.65236 45.63265 0
vertex 19.62111 45.78106 0
endloop
endfacet
facet normal 0 0 -1
outer loop
vertex 16.20742 41.51434 0
vertex 19.62111 45.78106 0
vertex 24.19235 43.53876 0
endloop
endfacet
facet normal 0 0 -1
outer loop
vertex 16.20742 41.51434 0
vertex 24.19235 43.53876 0
vertex 25.13776 41.83546 0
endloop
endfacet
facet normal 0 0 -1
outer loop
vertex 16.20742 41.51434 0
vertex 25.13776 41.83546 0
vertex 24.63295 41.08704 0
endloop
endfacet
facet normal 0 0 -1
outer loop
vertex 16.20742 41.51434 0
vertex 24.63295 41.08704 0
vertex 22.45736 37.8616 0
endloop
endfacet
facet normal 0 0 -1
outer loop
vertex 16.20742 41.51434 0
vertex 22.45736 37.8616 0
vertex 15.73092 39.6032 0
endloop
endfacet
facet normal 0 0 -1
outer loop
vertex 22.45736 37.8616 0
vertex 21.67037 36.69484 0
vertex 19.00985 38.75422 0
endloop
endfacet
facet normal 0 0 -1
outer loop
vertex 21.67037 36.69484 0
vertex 21.55388 36.52214 0
vertex 15.68099 39.40293 0
endloop
endfacet
facet normal 0 0 -1
outer loop
vertex 21.67037 36.69484 0
vertex 15.68099 39.40293 0
vertex 15.73092 39.6032 0
endloop
endfacet
facet normal 0 0 -1
outer loop
vertex 21.67037 36.69484 0
vertex 15.73092 39.6032 0
vertex 19.00985 38.75422 0
endloop
endfacet
facet normal 0 0 -1
outer loop
vertex -37.07862 -36.99194 0
vertex 4.14036 24.11772 0
vertex -1.16463 2.84056 0
endloop
endfacet
facet normal 0 0 -1
outer loop
vertex -37.07862 -36.99194 0
vertex -1.16463 2.84056 0
vertex -30.86084 -41.18588 0
endloop
endfacet
facet normal 0 0 -1
outer loop
vertex -36.11677 -34.29974 0
vertex -37.93791 -32.56862 0
vertex -43.71733 -24.2651 0
endloop
endfacet
facet normal 0 0 -1
outer loop
vertex -36.11677 -34.29974 0
vertex -43.71733 -24.2651 0
vertex -47.70696 -14.96816 0
endloop
endfacet
facet normal 0 0 -1
outer loop
vertex -36.11677 -34.29974 0
vertex -47.70696 -14.96816 0
vertex -49.74347 -5.05842 0
endloop
endfacet
facet normal 0 0 -1
outer loop
vertex -36.11677 -34.29974 0
vertex -49.74347 -5.05842 0
vertex -49.74347 5.05842 0
endloop
endfacet
facet normal 0 0 -1
outer loop
vertex -36.11677 -34.29974 0
vertex -49.74347 5.05842 0
vertex -47.70696 14.96816 0
endloop
endfacet
facet normal 0 0 -1
outer loop
vertex -36.11677 -34.29974 0
vertex -47.70696 14.96816 0
vertex -46.71609 17.27716 0
endloop
endfacet
facet normal 0 0 -1
outer loop
vertex -42.28195 -4.29965 0
vertex -46.71609 17.27716 0
vertex -43.71733 24.2651 0
endloop
endfacet
facet normal 0 0 -1
outer loop
vertex -42.28195 -4.29965 0
vertex -43.71733 24.2651 0
vertex -42.28195 26.32737 0
endloop
endfacet
facet normal 0 0 -1
outer loop
vertex -35.59638 -34.79441 0
vertex -36.11677 -34.29974 0
vertex -38.746 -21.50578 0
endloop
endfacet
facet normal 0 0 -1
outer loop
vertex -35.59638 -34.79441 0
vertex -38.746 -21.50578 0
vertex -31.36533 -28.52163 0
endloop
endfacet
facet normal 0 0 -1
outer loop
vertex -42.28195 18.14461 0
vertex -42.28195 26.32737 0
vertex -37.93791 32.56862 0
endloop
endfacet
facet normal 0 0 -1
outer loop
vertex -42.28195 18.14461 0
vertex -37.93791 32.56862 0
vertex -30.6053 39.53879 0
endloop
endfacet
facet normal 0 0 -1
outer loop
vertex -42.28195 18.14461 0
vertex -30.6053 39.53879 0
vertex -22.01971 44.89023 0
endloop
endfacet
facet normal 0 0 -1
outer loop
vertex -42.28195 18.14461 0
vertex -22.01971 44.89023 0
vertex -12.53263 48.40386 0
endloop
endfacet
facet normal 0 0 -1
outer loop
vertex -42.28195 18.14461 0
vertex -12.53263 48.40386 0
vertex -10.04897 48.78434 0
endloop
endfacet
facet normal 0 0 -1
outer loop
vertex -22.83302 36.63219 0
vertex -10.04897 48.78434 0
vertex -2.53246 49.93583 0
endloop
endfacet
facet normal 0 0 -1
outer loop
vertex -22.83302 36.63219 0
vertex -2.53246 49.93583 0
vertex 7.57139 49.42342 0
endloop
endfacet
facet normal 0 0 -1
outer loop
vertex -22.83302 36.63219 0
vertex 7.57139 49.42342 0
vertex 10.00381 48.79362 0
endloop
endfacet
facet normal 0 0 -1
outer loop
vertex -42.28195 13.26605 0
vertex -42.28195 18.14461 0
vertex -32.24722 27.68333 0
endloop
endfacet
facet normal 0 0 -1
outer loop
vertex 9.14135 44.17562 0
vertex -10.65273 41.14328 0
vertex 10.00381 48.79362 0
endloop
endfacet
facet normal 0 0 -1
outer loop
vertex 9.14135 44.17562 0
vertex 10.00381 48.79362 0
vertex 10.27523 48.72334 0
endloop
endfacet
facet normal 0 0 -1
outer loop
vertex 9.14135 44.17562 0
vertex 8.57434 41.90144 0
vertex -2.15259 42.44545 0
endloop
endfacet
facet normal 0 0 -1
outer loop
vertex 8.47005 41.48317 0
vertex 6.43568 42.0099 0
vertex 8.57434 41.90144 0
endloop
endfacet
facet normal 0 0 -1
outer loop
vertex -32.24722 -27.68333 0
vertex -38.746 -21.50578 0
vertex -39.66732 -17.02259 0
endloop
endfacet
facet normal 0 0 -1
outer loop
vertex -26.0145 33.60797 0
vertex -22.83302 36.63219 0
vertex -18.71675 38.15669 0
endloop
endfacet
facet normal 0 0 -1
outer loop
vertex -42.28195 4.29965 0
vertex -42.28195 13.26605 0
vertex -39.66732 17.02259 0
endloop
endfacet
facet normal 0 0 -1
outer loop
vertex -37.15973 -20.62533 0
vertex -39.66732 -17.02259 0
vertex -40.55092 -12.72293 0
endloop
endfacet
facet normal 0 0 -1
outer loop
vertex -40.55092 12.72293 0
vertex -39.66732 17.02259 0
vertex -37.15973 20.62533 0
endloop
endfacet
facet normal 0 0 -1
outer loop
vertex -30.00306 -39.91417 0
vertex -25.85302 -33.76147 0
vertex -13.27224 -45.72039 0
endloop
endfacet
facet normal 0 0 -1
outer loop
vertex -30.00306 -39.91417 0
vertex -13.27224 -45.72039 0
vertex -13.82222 -47.92624 0
endloop
endfacet
facet normal 0 0 -1
outer loop
vertex -30.00306 -39.91417 0
vertex -13.82222 -47.92624 0
vertex -22.01971 -44.89023 0
endloop
endfacet
facet normal 0 0 -1
outer loop
vertex -12.37236 -42.11118 0
vertex -13.27224 -45.72039 0
vertex -25.85302 -33.76147 0
endloop
endfacet
facet normal 0 0 -1
outer loop
vertex -12.37236 -42.11118 0
vertex -25.85302 -33.76147 0
vertex -25.82792 -33.72427 0
endloop
endfacet
facet normal 0 0 -1
outer loop
vertex -12.37236 -42.11118 0
vertex -14.99162 -40.47858 0
vertex -12.07665 -40.92514 0
endloop
endfacet
facet normal 0 0 -1
outer loop
vertex -12.07665 -40.92514 0
vertex -14.99162 -40.47858 0
vertex -18.71675 -38.15669 0
endloop
endfacet
facet normal 0 0 -1
outer loop
vertex -12.07665 -40.92514 0
vertex -18.71675 -38.15669 0
vertex -12.00607 -40.64206 0
endloop
endfacet
facet normal 0 0 -1
outer loop
vertex -13.27224 -45.72039 0
vertex -10.04897 -48.78434 0
vertex -12.53263 -48.40386 0
endloop
endfacet
facet normal 0 0 -1
outer loop
vertex -13.27224 -45.72039 0
vertex -12.53263 -48.40386 0
vertex -13.82222 -47.92624 0
endloop
endfacet
facet normal 0 0 -1
outer loop
vertex -5.58674 -45.89726 0
vertex -6.44425 -49.33656 0
vertex -10.04897 -48.78434 0
endloop
endfacet
facet normal 0 0 -1
outer loop
vertex -5.58674 -45.89726 0
vertex -10.04897 -48.78434 0
vertex -12.12114 -46.8146 0
endloop
endfacet
facet normal 0 0 -1
outer loop
vertex -5.58674 -45.89726 0
vertex -12.12114 -46.8146 0
vertex -7.11068 -45.5173 0
endloop
endfacet
facet normal 0 0 -1
outer loop
vertex -7.11068 -45.5173 0
vertex -12.12114 -46.8146 0
vertex -13.27224 -45.72039 0
endloop
endfacet
facet normal 0 0 -1
outer loop
vertex -7.11068 -45.5173 0
vertex -13.27224 -45.72039 0
vertex -12.86395 -44.08285 0
endloop
endfacet
facet normal 0 0 -1
outer loop
vertex 4.86084 25.18588 0
vertex 11.07862 20.99194 0
vertex 10.52281 20.1679 0
endloop
endfacet
facet normal 0 0 -1
outer loop
vertex 4.86084 25.18588 0
vertex 10.52281 20.1679 0
vertex 3.58674 21.89726 0
endloop
endfacet
facet normal 0 0 -1
outer loop
vertex 4.86084 25.18588 0
vertex 3.58674 21.89726 0
vertex 4.14036 24.11772 0
endloop
endfacet
facet normal 0 0 -1
outer loop
vertex 17.52731 46.80812 0
vertex 17.17792 45.40678 0
vertex 9.14135 44.17562 0
endloop
endfacet
facet normal 0 0 -1
outer loop
vertex 17.52731 46.80812 0
vertex 9.14135 44.17562 0
vertex 10.27523 48.72334 0
endloop
endfacet
facet normal 0 0 -1
outer loop
vertex 17.52731 46.80812 0
vertex 10.27523 48.72334 0
vertex 17.36526 46.88761 0
endloop
endfacet
facet normal 0 0 -1
outer loop
vertex 9.14135 44.17562 0
vertex 17.17792 45.40678 0
vertex 16.40264 42.2973 0
endloop
endfacet
facet normal 0 0 -1
outer loop
vertex 9.14135 44.17562 0
vertex 16.40264 42.2973 0
vertex 15.88554 41.53066 0
endloop
endfacet
facet normal 0 0 -1
outer loop
vertex 9.14135 44.17562 0
vertex 15.88554 41.53066 0
vertex 8.57434 41.90144 0
endloop
endfacet
facet normal 0 0 -1
outer loop
vertex 8.47005 41.48317 0
vertex 8.57434 41.90144 0
vertex 15.88554 41.53066 0
endloop
endfacet
facet normal 0 0 -1
outer loop
vertex 8.47005 41.48317 0
vertex 15.88554 41.53066 0
vertex 14.75575 39.85569 0
endloop
endfacet
facet normal 0 0 -1
outer loop
vertex 16.20742 41.51434 0
vertex 15.88554 41.53066 0
vertex 16.40264 42.2973 0
endloop
endfacet
facet normal 0 0 -1
outer loop
vertex 16.20742 41.51434 0
vertex 15.73092 39.6032 0
vertex 14.75575 39.85569 0
endloop
endfacet
facet normal 0 0 -1
outer loop
vertex 16.20742 41.51434 0
vertex 14.75575 39.85569 0
vertex 15.88554 41.53066 0
endloop
endfacet
facet normal 0 0 -1
outer loop
vertex 15.68099 39.40293 0
vertex 14.76047 39.85447 0
vertex 15.73092 39.6032 0
endloop
endfacet
facet normal 0 0 1
outer loop
vertex 10.86395 20.08285 10
vertex 3.58674 21.89726 10
vertex -12.86395 -44.08285 10
endloop
endfacet
facet normal 0 0 1
outer loop
vertex 10.86395 20.08285 10
vertex -12.86395 -44.08285 10
vertex -5.58674 -45.89726 10
endloop
endfacet
facet normal 0 0 1
outer loop
vertex 17.52731 46.80812 10
vertex 17.17792 45.40678 10
vertex 18.65236 45.63265 10
endloop
endfacet
facet normal 0 0 1
outer loop
vertex 17.52731 46.80812 10
vertex 18.65236 45.63265 10
vertex 18.96842 46.10122 10
endloop
endfacet
facet normal 0 0 1
outer loop
vertex 17.17792 45.40678 10
vertex 16.40264 42.2973 10
vertex 18.65236 45.63265 10
endloop
endfacet
facet normal 0 0 1
outer loop
vertex 48.9765 10.06493 10
vertex 45.94789 19.71779 10
vertex 44.72851 21.9147 10
endloop
endfacet
facet normal 0 0 1
outer loop
vertex 48.9765 10.06493 10
vertex 44.72851 21.9147 10
vertex 39.40152 -30.46989 10
endloop
endfacet
facet normal 0 0 1
outer loop
vertex 48.9765 10.06493 10
vertex 39.40152 -30.46989 10
vertex 41.03817 -28.56341 10
endloop
endfacet
facet normal 0 0 1
outer loop
vertex 48.9765 10.06493 10
vertex 41.03817 -28.56341 10
vertex 45.94789 -19.71779 10
endloop
endfacet
facet normal 0 0 1
outer loop
vertex 48.9765 10.06493 10
vertex 45.94789 -19.71779 10
vertex 48.9765 -10.06493 10
endloop
endfacet
facet normal 0 0 1
outer loop
vertex 48.9765 10.06493 10
vertex 48.9765 -10.06493 10
vertex 50 0 10
endloop
endfacet
facet normal 0 0 1
outer loop
vertex -6.44425 -49.33656 10
vertex -2.53246 -49.93583 10
vertex 7.57139 -49.42342 10
endloop
endfacet
facet normal 0 0 1
outer loop
vertex -6.44425 -49.33656 10
vertex 7.57139 -49.42342 10
vertex 17.36526 -46.88761 10
endloop
endfacet
facet normal 0 0 1
outer loop
vertex -6.44425 -49.33656 10
vertex 17.36526 -46.88761 10
vertex 26.4482 -42.43221 10
endloop
endfacet
facet normal 0 0 1
outer loop
vertex -6.44425 -49.33656 10
vertex 26.4482 -42.43221 10
vertex 34.44835 -36.23964 10
endloop
endfacet
facet normal 0 0 1
outer loop
vertex -6.44425 -49.33656 10
vertex 34.44835 -36.23964 10
vertex 36.085 -34.33316 10
endloop
endfacet
facet normal 0 0 1
outer loop
vertex -6.44425 -49.33656 10
vertex 36.085 -34.33316 10
vertex -5.38029 -45.06927 10
endloop
endfacet
facet normal 0 0 1
outer loop
vertex 28.16346 -36.38419 10
vertex 36.085 -34.33316 10
vertex 39.40152 -30.46989 10
endloop
endfacet
facet normal 0 0 1
outer loop
vertex 28.16346 -36.38419 10
vertex 39.40152 -30.46989 10
vertex 41.18594 -12.92217 10
endloop
endfacet
facet normal 0 0 1
outer loop
vertex -5.38029 -45.06927 10
vertex 2.1863 -43.11014 10
vertex -4.63142 -42.06571 10
endloop
endfacet
facet normal 0 0 1
outer loop
vertex 44.72851 21.9147 10
vertex 41.03817 28.56341 10
vertex 34.44835 36.23964 10
endloop
endfacet
facet normal 0 0 1
outer loop
vertex 44.72851 21.9147 10
vertex 34.44835 36.23964 10
vertex 26.4482 42.43221 10
endloop
endfacet
facet normal 0 0 1
outer loop
vertex 44.72851 21.9147 10
vertex 26.4482 42.43221 10
vertex 25.76599 42.76685 10
endloop
endfacet
facet normal 0 0 1
outer loop
vertex 44.72851 21.9147 10
vertex 25.76599 42.76685 10
vertex 25.13776 41.83546 10
endloop
endfacet
facet normal 0 0 1
outer loop
vertex 44.72851 21.9147 10
vertex 25.13776 41.83546 10
vertex 43.40711 8.92039 10
endloop
endfacet
facet normal 0 0 1
outer loop
vertex 42.94408 4.36699 10
vertex 43.40711 8.92039 10
vertex 39.05571 16.76012 10
endloop
endfacet
facet normal 0 0 1
outer loop
vertex 42.5 0 10
vertex 42.94408 4.36699 10
vertex 41.63002 8.55519 10
endloop
endfacet
facet normal 0 0 1
outer loop
vertex 34.88245 -24.2789 10
vertex 23.44063 -37.60702 10
vertex 28.16346 -36.38419 10
endloop
endfacet
facet normal 0 0 1
outer loop
vertex 24.63295 41.08704 10
vertex 25.57982 41.03902 10
vertex 25.13776 41.83546 10
endloop
endfacet
facet normal 0 0 1
outer loop
vertex 24.63295 41.08704 10
vertex 22.45736 37.8616 10
vertex 28.16346 36.38419 10
endloop
endfacet
facet normal 0 0 1
outer loop
vertex 24.63295 41.08704 10
vertex 28.16346 36.38419 10
vertex 25.57982 41.03902 10
endloop
endfacet
facet normal 0 0 1
outer loop
vertex 14.76047 -39.85447 10
vertex 23.44063 -37.60702 10
vertex 26.42189 -34.13427 10
endloop
endfacet
facet normal 0 0 1
outer loop
vertex 34.88245 24.2789 10
vertex 28.16346 36.38419 10
vertex 23.44063 37.60702 10
endloop
endfacet
facet normal 0 0 1
outer loop
vertex -2.15259 -42.44545 10
vertex 2.1863 -43.11014 10
vertex 6.43568 -42.0099 10
endloop
endfacet
facet normal 0 0 1
outer loop
vertex 23.44063 37.60702 10
vertex 22.45736 37.8616 10
vertex 21.67037 36.69484 10
endloop
endfacet
facet normal 0 0 1
outer loop
vertex 23.44063 37.60702 10
vertex 21.67037 36.69484 10
vertex 29.28109 30.80369 10
endloop
endfacet
facet normal 0 0 1
outer loop
vertex 22.48097 -36.06738 10
vertex 26.42189 -34.13427 10
vertex 29.28109 -30.80369 10
endloop
endfacet
facet normal 0 0 1
outer loop
vertex 21.67037 36.69484 10
vertex 21.55388 36.52214 10
vertex 22.48097 36.06738 10
endloop
endfacet
facet normal 0 0 1
outer loop
vertex 39.05571 -16.76012 10
vertex 41.18594 -12.92217 10
vertex 41.63002 -8.55519 10
endloop
endfacet
facet normal 0 0 1
outer loop
vertex 18.96842 46.10122 10
vertex 18.65236 45.63265 10
vertex 19.62111 45.78106 10
endloop
endfacet
facet normal 0 0 1
outer loop
vertex 25.76599 42.76685 10
vertex 24.19235 43.53876 10
vertex 25.13776 41.83546 10
endloop
endfacet
facet normal 0 0 1
outer loop
vertex 18.65236 45.63265 10
vertex 16.40264 42.2973 10
vertex 16.20742 41.51434 10
endloop
endfacet
facet normal 0 0 1
outer loop
vertex 18.65236 45.63265 10
vertex 16.20742 41.51434 10
vertex 24.63295 41.08704 10
endloop
endfacet
facet normal 0 0 1
outer loop
vertex 18.65236 45.63265 10
vertex 24.63295 41.08704 10
vertex 25.13776 41.83546 10
endloop
endfacet
facet normal 0 0 1
outer loop
vertex 18.65236 45.63265 10
vertex 25.13776 41.83546 10
vertex 24.19235 43.53876 10
endloop
endfacet
facet normal 0 0 1
outer loop
vertex 18.65236 45.63265 10
vertex 24.19235 43.53876 10
vertex 19.62111 45.78106 10
endloop
endfacet
facet normal 0 0 1
outer loop
vertex 16.20742 41.51434 10
vertex 15.73092 39.6032 10
vertex 22.45736 37.8616 10
endloop
endfacet
facet normal 0 0 1
outer loop
vertex 16.20742 41.51434 10
vertex 22.45736 37.8616 10
vertex 24.63295 41.08704 10
endloop
endfacet
facet normal 0 0 1
outer loop
vertex 22.45736 37.8616 10
vertex 19.00985 38.75422 10
vertex 21.67037 36.69484 10
endloop
endfacet
facet normal 0 0 1
outer loop
vertex 19.00985 38.75422 10
vertex 15.73092 39.6032 10
vertex 15.68099 39.40293 10
endloop
endfacet
facet normal 0 0 1
outer loop
vertex 19.00985 38.75422 10
vertex 15.68099 39.40293 10
vertex 21.55388 36.52214 10
endloop
endfacet
facet normal 0 0 1
outer loop
vertex 19.00985 38.75422 10
vertex 21.55388 36.52214 10
vertex 21.67037 36.69484 10
endloop
endfacet
facet normal 0 0 1
outer loop
vertex 4.14036 24.11772 10
vertex -37.07862 -36.99194 10
vertex -30.86084 -41.18588 10
endloop
endfacet
facet normal 0 0 1
outer loop
vertex 4.14036 24.11772 10
vertex -30.86084 -41.18588 10
vertex -1.16463 2.84056 10
endloop
endfacet
facet normal 0 0 1
outer loop
vertex -46.71609 17.27716 10
vertex -47.70696 14.96816 10
vertex -49.74347 5.05842 10
endloop
endfacet
facet normal 0 0 1
outer loop
vertex -46.71609 17.27716 10
vertex -49.74347 5.05842 10
vertex -49.74347 -5.05842 10
endloop
endfacet
facet normal 0 0 1
outer loop
vertex -46.71609 17.27716 10
vertex -49.74347 -5.05842 10
vertex -47.70696 -14.96816 10
endloop
endfacet
facet normal 0 0 1
outer loop
vertex -46.71609 17.27716 10
vertex -47.70696 -14.96816 10
vertex -43.71733 -24.2651 10
endloop
endfacet
facet normal 0 0 1
outer loop
vertex -46.71609 17.27716 10
vertex -43.71733 -24.2651 10
vertex -37.93791 -32.56862 10
endloop
endfacet
facet normal 0 0 1
outer loop
vertex -46.71609 17.27716 10
vertex -37.93791 -32.56862 10
vertex -36.11677 -34.29974 10
endloop
endfacet
facet normal 0 0 1
outer loop
vertex -42.28195 26.32737 10
vertex -43.71733 24.2651 10
vertex -46.71609 17.27716 10
endloop
endfacet
facet normal 0 0 1
outer loop
vertex -42.28195 26.32737 10
vertex -46.71609 17.27716 10
vertex -42.28195 -4.29965 10
endloop
endfacet
facet normal 0 0 1
outer loop
vertex -36.11677 -34.29974 10
vertex -35.59638 -34.79441 10
vertex -31.36533 -28.52163 10
endloop
endfacet
facet normal 0 0 1
outer loop
vertex -36.11677 -34.29974 10
vertex -31.36533 -28.52163 10
vertex -38.746 -21.50578 10
endloop
endfacet
facet normal 0 0 1
outer loop
vertex -10.04897 48.78434 10
vertex -12.53263 48.40386 10
vertex -22.01971 44.89023 10
endloop
endfacet
facet normal 0 0 1
outer loop
vertex -10.04897 48.78434 10
vertex -22.01971 44.89023 10
vertex -30.6053 39.53879 10
endloop
endfacet
facet normal 0 0 1
outer loop
vertex -10.04897 48.78434 10
vertex -30.6053 39.53879 10
vertex -37.93791 32.56862 10
endloop
endfacet
facet normal 0 0 1
outer loop
vertex -10.04897 48.78434 10
vertex -37.93791 32.56862 10
vertex -42.28195 26.32737 10
endloop
endfacet
facet normal 0 0 1
outer loop
vertex -10.04897 48.78434 10
vertex -42.28195 26.32737 10
vertex -42.28195 18.14461 10
endloop
endfacet
facet normal 0 0 1
outer loop
vertex 10.00381 48.79362 10
vertex 7.57139 49.42342 10
vertex -2.53246 49.93583 10
endloop
endfacet
facet normal 0 0 1
outer loop
vertex 10.00381 48.79362 10
vertex -2.53246 49.93583 10
vertex -10.04897 48.78434 10
endloop
endfacet
facet normal 0 0 1
outer loop
vertex 10.00381 48.79362 10
vertex -10.04897 48.78434 10
vertex -22.83302 36.63219 10
endloop
endfacet
facet normal 0 0 1
outer loop
vertex -32.24722 27.68333 10
vertex -42.28195 18.14461 10
vertex -42.28195 13.26605 10
endloop
endfacet
facet normal 0 0 1
outer loop
vertex 10.27523 48.72334 10
vertex 10.00381 48.79362 10
vertex -10.65273 41.14328 10
endloop
endfacet
facet normal 0 0 1
outer loop
vertex 10.27523 48.72334 10
vertex -10.65273 41.14328 10
vertex 9.14135 44.17562 10
endloop
endfacet
facet normal 0 0 1
outer loop
vertex 9.14135 44.17562 10
vertex -2.15259 42.44545 10
vertex 8.57434 41.90144 10
endloop
endfacet
facet normal 0 0 1
outer loop
vertex 8.57434 41.90144 10
vertex 6.43568 42.0099 10
vertex 8.47005 41.48317 10
endloop
endfacet
facet normal 0 0 1
outer loop
vertex -39.66732 -17.02259 10
vertex -38.746 -21.50578 10
vertex -32.24722 -27.68333 10
endloop
endfacet
facet normal 0 0 1
outer loop
vertex -18.71675 38.15669 10
vertex -22.83302 36.63219 10
vertex -26.0145 33.60797 10
endloop
endfacet
facet normal 0 0 1
outer loop
vertex -39.66732 17.02259 10
vertex -42.28195 13.26605 10
vertex -42.28195 4.29965 10
endloop
endfacet
facet normal 0 0 1
outer loop
vertex -40.55092 -12.72293 10
vertex -39.66732 -17.02259 10
vertex -37.15973 -20.62533 10
endloop
endfacet
facet normal 0 0 1
outer loop
vertex -40.55092 12.72293 10
vertex -37.15973 20.62533 10
vertex -39.66732 17.02259 10
endloop
endfacet
facet normal 0 0 1
outer loop
vertex -22.01971 -44.89023 10
vertex -13.82222 -47.92624 10
vertex -13.27224 -45.72039 10
endloop
endfacet
facet normal 0 0 1
outer loop
vertex -22.01971 -44.89023 10
vertex -13.27224 -45.72039 10
vertex -25.85302 -33.76147 10
endloop
endfacet
facet normal 0 0 1
outer loop
vertex -22.01971 -44.89023 10
vertex -25.85302 -33.76147 10
vertex -30.00306 -39.91417 10
endloop
endfacet
facet normal 0 0 1
outer loop
vertex -13.27224 -45.72039 10
vertex -12.37236 -42.11118 10
vertex -25.82792 -33.72427 10
endloop
endfacet
facet normal 0 0 1
outer loop
vertex -13.27224 -45.72039 10
vertex -25.82792 -33.72427 10
vertex -25.85302 -33.76147 10
endloop
endfacet
facet normal 0 0 1
outer loop
vertex -12.07665 -40.92514 10
vertex -14.99162 -40.47858 10
vertex -12.37236 -42.11118 10
endloop
endfacet
facet normal 0 0 1
outer loop
vertex -14.99162 -40.47858 10
vertex -12.07665 -40.92514 10
vertex -12.00607 -40.64206 10
endloop
endfacet
facet normal 0 0 1
outer loop
vertex -14.99162 -40.47858 10
vertex -12.00607 -40.64206 10
vertex -18.71675 -38.15669 10
endloop
endfacet
facet normal 0 0 1
outer loop
vertex -13.82222 -47.92624 10
vertex -12.53263 -48.40386 10
vertex -10.04897 -48.78434 10
endloop
endfacet
facet normal 0 0 1
outer loop
vertex -13.82222 -47.92624 10
vertex -10.04897 -48.78434 10
vertex -13.27224 -45.72039 10
endloop
endfacet
facet normal 0 0 1
outer loop
vertex -6.44425 -49.33656 10
vertex -5.58674 -45.89726 10
vertex -7.11068 -45.5173 10
endloop
endfacet
facet normal 0 0 1
outer loop
vertex -6.44425 -49.33656 10
vertex -7.11068 -45.5173 10
vertex -12.12114 -46.8146 10
endloop
endfacet
facet normal 0 0 1
outer loop
vertex -6.44425 -49.33656 10
vertex -12.12114 -46.8146 10
vertex -10.04897 -48.78434 10
endloop
endfacet
facet normal 0 0 1
outer loop
vertex -12.12114 -46.8146 10
vertex -7.11068 -45.5173 10
vertex -12.86395 -44.08285 10
endloop
endfacet
facet normal 0 0 1
outer loop
vertex -12.12114 -46.8146 10
vertex -12.86395 -44.08285 10
vertex -13.27224 -45.72039 10
endloop
endfacet
facet normal 0 0 1
outer loop
vertex 4.14036 24.11772 10
vertex 3.58674 21.89726 10
vertex 10.52281 20.1679 10
endloop
endfacet
facet normal 0 0 1
outer loop
vertex 4.14036 24.11772 10
vertex 10.52281 20.1679 10
vertex 11.07862 20.99194 10
endloop
endfacet
facet normal 0 0 1
outer loop
vertex 4.14036 24.11772 10
vertex 11.07862 20.99194 10
vertex 4.86084 25.18588 10
endloop
endfacet
facet normal 0 0 1
outer loop
vertex 17.36526 46.88761 10
vertex 10.27523 48.72334 10
vertex 9.14135 44.17562 10
endloop
endfacet
facet normal 0 0 1
outer loop
vertex 17.36526 46.88761 10
vertex 9.14135 44.17562 10
vertex 17.17792 45.40678 10
endloop
endfacet
facet normal 0 0 1
outer loop
vertex 17.36526 46.88761 10
vertex 17.17792 45.40678 10
vertex 17.52731 46.80812 10
endloop
endfacet
facet normal 0 0 1
outer loop
vertex 9.14135 44.17562 10
vertex 8.57434 41.90144 10
vertex 15.88554 41.53066 10
endloop
endfacet
facet normal 0 0 1
outer loop
vertex 9.14135 44.17562 10
vertex 15.88554 41.53066 10
vertex 16.40264 42.2973 10
endloop
endfacet
facet normal 0 0 1
outer loop
vertex 9.14135 44.17562 10
vertex 16.40264 42.2973 10
vertex 17.17792 45.40678 10
endloop
endfacet
facet normal 0 0 1
outer loop
vertex 8.57434 41.90144 10
vertex 8.47005 41.48317 10
vertex 14.75575 39.85569 10
endloop
endfacet
facet normal 0 0 1
outer loop
vertex 8.57434 41.90144 10
vertex 14.75575 39.85569 10
vertex 15.88554 41.53066 10
endloop
endfacet
facet normal 0 0 1
outer loop
vertex 16.40264 42.2973 10
vertex 15.88554 41.53066 10
vertex 16.20742 41.51434 10
endloop
endfacet
facet normal 0 0 1
outer loop
vertex 16.20742 41.51434 10
vertex 15.88554 41.53066 10
vertex 14.75575 39.85569 10
endloop
endfacet
facet normal 0 0 1
outer loop
vertex 16.20742 41.51434 10
vertex 14.75575 39.85569 10
vertex 15.73092 39.6032 10
endloop
endfacet
facet normal 0 0 1
outer loop
vertex 15.73092 39.6032 10
vertex 14.76047 39.85447 10
vertex 15.68099 39.40293 10
endloop
endfacet
facet normal 0.9702957495269854 -0.24192180234502564 0
outer loop
vertex -4.63142 -42.06571 0
vertex 10.86395 20.08285 0
vertex 10.86395 20.08285 10
endloop
endfacet
facet normal 0.9702957495269855 -0.24192180234502564 0
outer loop
vertex -4.63142 -42.06571 0
vertex 10.86395 20.08285 10
vertex -4.63142 -42.06571 0.58071
endloop
endfacet
facet normal 0.9702957495269855 -0.2419218023450256 0
outer loop
vertex -4.63142 -42.06571 0.58071
vertex 10.86395 20.08285 10
vertex -4.63142 -42.06571 10
endloop
endfacet
facet normal 0.994869356657123 -0.10116799486320956 0
outer loop
vertex 50 0 0
vertex 50 0 10
vertex 48.9765 -10.06493 0
endloop
endfacet
facet normal 0.994869356657123 -0.10116799486320956 0
outer loop
vertex 48.9765 -10.06493 0
vertex 50 0 10
vertex 48.9765 -10.06493 10
endloop
endfacet
facet normal 0.05064924000160795 -0.9987165035620768 0
outer loop
vertex 7.57139 -49.42342 0
vertex 7.57139 -49.42342 10
vertex -2.53246 -49.93583 0
endloop
endfacet
facet normal 0.05064924000160795 -0.9987165035620768 0
outer loop
vertex -2.53246 -49.93583 0
vertex 7.57139 -49.42342 10
vertex -2.53246 -49.93583 10
endloop
endfacet
facet normal 0.6121055470947208 0.7907760740031735 0
outer loop
vertex 26.4482 42.43221 0
vertex 26.4482 42.43221 10
vertex 34.44835 36.23964 0
endloop
endfacet
facet normal 0.6121055470947208 0.7907760740031735 0
outer loop
vertex 34.44835 36.23964 0
vertex 26.4482 42.43221 10
vertex 34.44835 36.23964 10
endloop
endfacet
facet normal 0.6121055470947208 -0.7907760740031735 0
outer loop
vertex 34.44835 -36.23964 0
vertex 34.44835 -36.23964 10
vertex 26.4482 -42.43221 0
endloop
endfacet
facet normal 0.6121055470947208 -0.7907760740031735 0
outer loop
vertex 26.4482 -42.43221 0
vertex 34.44835 -36.23964 10
vertex 26.4482 -42.43221 10
endloop
endfacet
facet normal 0.25065265882561993 -0.9680770860957548 0
outer loop
vertex 17.36526 -46.88761 0
vertex 17.36526 -46.88761 10
vertex 7.57139 -49.42342 0
endloop
endfacet
facet normal 0.25065265882561993 -0.9680770860957548 0
outer loop
vertex 7.57139 -49.42342 0
vertex 17.36526 -46.88761 10
vertex 7.57139 -49.42342 10
endloop
endfacet
facet normal 0.9541390972585959 0.2993636301933682 0
outer loop
vertex 45.94789 19.71779 0
vertex 45.94789 19.71779 10
vertex 48.9765 10.06493 0
endloop
endfacet
facet normal 0.9541390972585959 0.2993636301933682 0
outer loop
vertex 48.9765 10.06493 0
vertex 45.94789 19.71779 10
vertex 48.9765 10.06493 10
endloop
endfacet
facet normal 0.8743466006785033 -0.48530199039561517 0
outer loop
vertex 45.94789 -19.71779 0
vertex 45.94789 -19.71779 10
vertex 41.03817 -28.56341 0
endloop
endfacet
facet normal 0.8743466006785033 -0.48530199039561517 0
outer loop
vertex 41.03817 -28.56341 0
vertex 45.94789 -19.71779 10
vertex 41.03817 -28.56341 10
endloop
endfacet
facet normal 0.7587584794478406 0.6513720671521008 0
outer loop
vertex 34.44835 36.23964 0
vertex 34.44835 36.23964 10
vertex 41.03817 28.56341 0
endloop
endfacet
facet normal 0.7587584794478406 0.6513720671521008 0
outer loop
vertex 41.03817 28.56341 0
vertex 34.44835 36.23964 10
vertex 41.03817 28.56341 10
endloop
endfacet
facet normal -0.994869297540333 0.10116857620627213 0
outer loop
vertex 41.63002 -8.55519 0
vertex 42.5 0 10
vertex 42.5 0 0
endloop
endfacet
facet normal -0.994869297540333 0.10116857620627213 0
outer loop
vertex 41.63002 -8.55519 10
vertex 42.5 0 10
vertex 41.63002 -8.55519 0
endloop
endfacet
facet normal -0.2506517183657458 0.9680773295973307 0
outer loop
vertex 6.43568 -42.0099 0
vertex 14.76047 -39.85447 10
vertex 14.76047 -39.85447 0
endloop
endfacet
facet normal -0.2506517183657458 0.9680773295973307 0
outer loop
vertex 6.43568 -42.0099 10
vertex 14.76047 -39.85447 10
vertex 6.43568 -42.0099 0
endloop
endfacet
facet normal -0.8743467815299476 0.48530166456362184 0
outer loop
vertex 34.88245 -24.2789 0
vertex 39.05571 -16.76012 10
vertex 39.05571 -16.76012 0
endloop
endfacet
facet normal -0.8743467815299476 0.48530166456362184 0
outer loop
vertex 34.88245 -24.2789 10
vertex 39.05571 -16.76012 10
vertex 34.88245 -24.2789 0
endloop
endfacet
facet normal -0.8743467815299476 -0.48530166456362184 0
outer loop
vertex 39.05571 16.76012 0
vertex 34.88245 24.2789 10
vertex 34.88245 24.2789 0
endloop
endfacet
facet normal -0.8743467815299476 -0.48530166456362184 0
outer loop
vertex 39.05571 16.76012 10
vertex 34.88245 24.2789 10
vertex 39.05571 16.76012 0
endloop
endfacet
facet normal -0.9541393691728036 -0.29936276354036456 0
outer loop
vertex 41.63002 8.55519 0
vertex 39.05571 16.76012 10
vertex 39.05571 16.76012 0
endloop
endfacet
facet normal -0.9541393691728036 -0.29936276354036456 0
outer loop
vertex 41.63002 8.55519 10
vertex 39.05571 16.76012 10
vertex 41.63002 8.55519 0
endloop
endfacet
facet normal -0.994869297540333 -0.10116857620627213 0
outer loop
vertex 42.5 0 0
vertex 41.63002 8.55519 10
vertex 41.63002 8.55519 0
endloop
endfacet
facet normal -0.994869297540333 -0.10116857620627213 0
outer loop
vertex 42.5 0 10
vertex 41.63002 8.55519 10
vertex 42.5 0 0
endloop
endfacet
facet normal -0.7587574609216479 0.6513732535925421 0
outer loop
vertex 29.28109 -30.80369 0
vertex 34.88245 -24.2789 10
vertex 34.88245 -24.2789 0
endloop
endfacet
facet normal -0.7587574609216479 0.6513732535925421 0
outer loop
vertex 29.28109 -30.80369 10
vertex 34.88245 -24.2789 10
vertex 29.28109 -30.80369 0
endloop
endfacet
facet normal -0.4403945218441239 0.8978043579364523 0
outer loop
vertex 14.76047 -39.85447 0
vertex 22.48097 -36.06738 10
vertex 22.48097 -36.06738 0
endloop
endfacet
facet normal -0.4403945218441239 0.8978043579364523 0
outer loop
vertex 14.76047 -39.85447 10
vertex 22.48097 -36.06738 10
vertex 14.76047 -39.85447 0
endloop
endfacet
facet normal -0.7587574609216479 -0.6513732535925421 0
outer loop
vertex 34.88245 24.2789 0
vertex 29.28109 30.80369 10
vertex 29.28109 30.80369 0
endloop
endfacet
facet normal -0.7587574609216479 -0.6513732535925421 0
outer loop
vertex 34.88245 24.2789 10
vertex 29.28109 30.80369 10
vertex 34.88245 24.2789 0
endloop
endfacet
facet normal -0.050649428692685156 0.998716493992717 0
outer loop
vertex -2.15259 -42.44545 0
vertex 6.43568 -42.0099 10
vertex 6.43568 -42.0099 0
endloop
endfacet
facet normal -0.050649428692685156 0.998716493992717 0
outer loop
vertex -2.15259 -42.44545 10
vertex 6.43568 -42.0099 10
vertex -2.15259 -42.44545 0
endloop
endfacet
facet normal -0.6121063692055606 -0.7907754376420565 0
outer loop
vertex 29.28109 30.80369 0
vertex 22.48097 36.06738 10
vertex 22.48097 36.06738 0
endloop
endfacet
facet normal -0.6121063692055606 -0.7907754376420565 0
outer loop
vertex 29.28109 30.80369 10
vertex 22.48097 36.06738 10
vertex 29.28109 30.80369 0
endloop
endfacet
facet normal -0.6121063692055606 0.7907754376420565 0
outer loop
vertex 22.48097 -36.06738 0
vertex 29.28109 -30.80369 10
vertex 29.28109 -30.80369 0
endloop
endfacet
facet normal -0.6121063692055606 0.7907754376420565 0
outer loop
vertex 22.48097 -36.06738 10
vertex 29.28109 -30.80369 10
vertex 22.48097 -36.06738 0
endloop
endfacet
facet normal -0.9541393691728036 0.29936276354036456 0
outer loop
vertex 39.05571 -16.76012 0
vertex 41.63002 -8.55519 10
vertex 41.63002 -8.55519 0
endloop
endfacet
facet normal -0.9541393691728036 0.29936276354036456 0
outer loop
vertex 39.05571 -16.76012 10
vertex 41.63002 -8.55519 10
vertex 39.05571 -16.76012 0
endloop
endfacet
facet normal -0.44039465448533843 -0.8978042928727504 0
outer loop
vertex 21.55388 36.52214 0
vertex 22.48097 36.06738 0
vertex 21.55388 36.52214 1.20082
endloop
endfacet
facet normal -0.4403946544853384 -0.8978042928727504 0
outer loop
vertex 22.48097 36.06738 0
vertex 22.48097 36.06738 10
vertex 21.55388 36.52214 10
endloop
endfacet
facet normal -0.4403946544853383 -0.8978042928727504 0
outer loop
vertex 22.48097 36.06738 0
vertex 21.55388 36.52214 10
vertex 21.55388 36.52214 1.20082
endloop
endfacet
facet normal -0.4403941420611392 -0.8978045442289948 0
outer loop
vertex 15.68099 39.40293 0
vertex 21.55388 36.52214 0
vertex 21.55388 36.52214 1.20082
endloop
endfacet
facet normal -0.4403941420611392 -0.8978045442289948 0
outer loop
vertex 15.68099 39.40293 0
vertex 21.55388 36.52214 1.20082
vertex 15.68099 39.40293 8.8077
endloop
endfacet
facet normal -0.4403941420611392 -0.8978045442289948 0
outer loop
vertex 21.55388 36.52214 1.20082
vertex 21.55388 36.52214 10
vertex 15.68099 39.40293 10
endloop
endfacet
facet normal -0.44039414206113947 -0.8978045442289947 0
outer loop
vertex 21.55388 36.52214 1.20082
vertex 15.68099 39.40293 10
vertex 15.68099 39.40293 8.8077
endloop
endfacet
facet normal 0.1514266910926057 0.9884684907596925 0
outer loop
vertex -2.15259 -42.44545 0
vertex -4.63142 -42.06571 0
vertex -4.63142 -42.06571 7.08378
endloop
endfacet
facet normal 0.1514266910926057 0.9884684907596926 0
outer loop
vertex -2.15259 -42.44545 0
vertex -4.63142 -42.06571 7.08378
vertex -2.15259 -42.44545 10
endloop
endfacet
facet normal 0.15142669109260573 0.9884684907596927 0
outer loop
vertex -4.63142 -42.06571 10
vertex -2.15259 -42.44545 10
vertex -4.63142 -42.06571 7.08378
endloop
endfacet
facet normal 0.44039505390459427 0.897804096947864 0
outer loop
vertex 18.96842 46.10122 0
vertex 17.52731 46.80812 0
vertex 17.52731 46.80812 9.82159
endloop
endfacet
facet normal 0.44039505390459427 0.8978040969478639 0
outer loop
vertex 18.96842 46.10122 0
vertex 17.52731 46.80812 9.82159
vertex 18.96842 46.10122 8.23498
endloop
endfacet
facet normal 0.44039505390459427 0.897804096947864 0
outer loop
vertex 18.96842 46.10122 10
vertex 18.96842 46.10122 8.23498
vertex 17.52731 46.80812 9.82159
endloop
endfacet
facet normal 0.4403950539045943 0.897804096947864 0
outer loop
vertex 18.96842 46.10122 10
vertex 17.52731 46.80812 9.82159
vertex 17.52731 46.80812 10
endloop
endfacet
facet normal 0.44039410883486135 0.8978045605272611 0
outer loop
vertex 24.19235 43.53876 2.48361
vertex 24.19235 43.53876 0
vertex 19.62111 45.78106 0
endloop
endfacet
facet normal 0.44039410883486135 0.897804560527261 0
outer loop
vertex 24.19235 43.53876 2.48361
vertex 19.62111 45.78106 0
vertex 19.62111 45.78106 7.51639
endloop
endfacet
facet normal 0.44039410883486124 0.897804560527261 0
outer loop
vertex 19.62111 45.78106 10
vertex 24.19235 43.53876 10
vertex 24.19235 43.53876 2.48361
endloop
endfacet
facet normal 0.4403941088348613 0.8978045605272611 0
outer loop
vertex 19.62111 45.78106 10
vertex 24.19235 43.53876 2.48361
vertex 19.62111 45.78106 7.51639
endloop
endfacet
facet normal 0.44039445117232723 0.8978043926026564 0
outer loop
vertex 18.96842 46.10122 8.23498
vertex 19.62111 45.78106 7.51639
vertex 19.62111 45.78106 0
endloop
endfacet
facet normal 0.4403944511723272 0.8978043926026564 0
outer loop
vertex 18.96842 46.10122 8.23498
vertex 19.62111 45.78106 0
vertex 18.96842 46.10122 0
endloop
endfacet
facet normal 0.4403944511723271 0.8978043926026563 0
outer loop
vertex 19.62111 45.78106 10
vertex 19.62111 45.78106 7.51639
vertex 18.96842 46.10122 8.23498
endloop
endfacet
facet normal 0.4403944511723272 0.8978043926026564 0
outer loop
vertex 19.62111 45.78106 10
vertex 18.96842 46.10122 8.23498
vertex 18.96842 46.10122 10
endloop
endfacet
facet normal 0.8743463429861433 0.4853024546679705 0
outer loop
vertex 41.03817 28.56341 10
vertex 44.72851 21.9147 2.48361
vertex 44.72851 21.9147 0
endloop
endfacet
facet normal 0.8743463429861433 0.48530245466797056 0
outer loop
vertex 41.03817 28.56341 10
vertex 44.72851 21.9147 0
vertex 41.03817 28.56341 0
endloop
endfacet
facet normal 0.8743463429861432 0.4853024546679705 0
outer loop
vertex 44.72851 21.9147 2.48361
vertex 41.03817 28.56341 10
vertex 44.72851 21.9147 10
endloop
endfacet
facet normal 0.4403941716292868 0.8978045297251258 0
outer loop
vertex 25.76599 42.76685 0.75109
vertex 26.4482 42.43221 0
vertex 25.76599 42.76685 0
endloop
endfacet
facet normal 0.4403941716292868 0.8978045297251258 0
outer loop
vertex 25.76599 42.76685 10
vertex 26.4482 42.43221 10
vertex 26.4482 42.43221 0
endloop
endfacet
facet normal 0.4403941716292868 0.8978045297251257 0
outer loop
vertex 25.76599 42.76685 10
vertex 26.4482 42.43221 0
vertex 25.76599 42.76685 0.75109
endloop
endfacet
facet normal 0.44039540623531764 0.8978039241208681 0
outer loop
vertex 24.19235 43.53876 0
vertex 24.19235 43.53876 2.48361
vertex 25.76599 42.76685 0.75109
endloop
endfacet
facet normal 0.44039540623531764 0.8978039241208681 0
outer loop
vertex 24.19235 43.53876 0
vertex 25.76599 42.76685 0.75109
vertex 25.76599 42.76685 0
endloop
endfacet
facet normal 0.44039540623531764 0.8978039241208681 0
outer loop
vertex 24.19235 43.53876 2.48361
vertex 24.19235 43.53876 10
vertex 25.76599 42.76685 10
endloop
endfacet
facet normal 0.4403954062353177 0.8978039241208683 0
outer loop
vertex 24.19235 43.53876 2.48361
vertex 25.76599 42.76685 10
vertex 25.76599 42.76685 0.75109
endloop
endfacet
facet normal 0.7587570074183587 -0.6513737818591847 0
outer loop
vertex 36.085 -34.33316 2.48361
vertex 36.085 -34.33316 0
vertex 39.40152 -30.46989 0
endloop
endfacet
facet normal 0.7587570074183586 -0.6513737818591847 0
outer loop
vertex 36.085 -34.33316 2.48361
vertex 39.40152 -30.46989 0
vertex 39.40152 -30.46989 7.51639
endloop
endfacet
facet normal 0.7587570074183586 -0.6513737818591847 0
outer loop
vertex 39.40152 -30.46989 10
vertex 36.085 -34.33316 10
vertex 36.085 -34.33316 2.48361
endloop
endfacet
facet normal 0.7587570074183586 -0.6513737818591847 0
outer loop
vertex 39.40152 -30.46989 10
vertex 36.085 -34.33316 2.48361
vertex 39.40152 -30.46989 7.51639
endloop
endfacet
facet normal 0.4403945678231685 -0.8978043353826293 0
outer loop
vertex 26.4482 -42.43221 0
vertex 26.4482 -42.43221 10
vertex 17.36526 -46.88761 0
endloop
endfacet
facet normal 0.4403945678231685 -0.8978043353826293 0
outer loop
vertex 17.36526 -46.88761 0
vertex 26.4482 -42.43221 10
vertex 17.36526 -46.88761 10
endloop
endfacet
facet normal -0.15142921295325457 -0.9884681044243956 0
outer loop
vertex -2.53246 -49.93583 0
vertex -2.53246 -49.93583 10
vertex -6.44425 -49.33656 6.08828
endloop
endfacet
facet normal -0.15142921295325457 -0.9884681044243957 0
outer loop
vertex -2.53246 -49.93583 0
vertex -6.44425 -49.33656 6.08828
vertex -6.44425 -49.33656 0
endloop
endfacet
facet normal -0.15142921295325457 -0.9884681044243956 0
outer loop
vertex -6.44425 -49.33656 6.08828
vertex -2.53246 -49.93583 10
vertex -6.44425 -49.33656 10
endloop
endfacet
facet normal 0.7587599709018499 -0.651370329810181 0
outer loop
vertex 36.085 -34.33316 2.48361
vertex 34.44835 -36.23964 0
vertex 36.085 -34.33316 0
endloop
endfacet
facet normal 0.75875997090185 -0.651370329810181 0
outer loop
vertex 36.085 -34.33316 10
vertex 34.44835 -36.23964 10
vertex 34.44835 -36.23964 0
endloop
endfacet
facet normal 0.7587599709018499 -0.6513703298101808 0
outer loop
vertex 36.085 -34.33316 10
vertex 34.44835 -36.23964 0
vertex 36.085 -34.33316 2.48361
endloop
endfacet
facet normal 0.994869356657123 0.10116799486320956 0
outer loop
vertex 48.9765 10.06493 0
vertex 48.9765 10.06493 10
vertex 50 0 0
endloop
endfacet
facet normal 0.994869356657123 0.10116799486320956 0
outer loop
vertex 50 0 0
vertex 48.9765 10.06493 10
vertex 50 0 10
endloop
endfacet
facet normal 0.9541390972585959 -0.2993636301933682 0
outer loop
vertex 48.9765 -10.06493 0
vertex 48.9765 -10.06493 10
vertex 45.94789 -19.71779 0
endloop
endfacet
facet normal 0.9541390972585959 -0.2993636301933682 0
outer loop
vertex 45.94789 -19.71779 0
vertex 48.9765 -10.06493 10
vertex 45.94789 -19.71779 10
endloop
endfacet
facet normal 0.7587599709018494 -0.6513703298101816 0
outer loop
vertex 41.03817 -28.56341 10
vertex 39.40152 -30.46989 7.51639
vertex 39.40152 -30.46989 0
endloop
endfacet
facet normal 0.7587599709018493 -0.6513703298101816 0
outer loop
vertex 41.03817 -28.56341 10
vertex 39.40152 -30.46989 0
vertex 41.03817 -28.56341 0
endloop
endfacet
facet normal 0.7587599709018493 -0.6513703298101816 0
outer loop
vertex 39.40152 -30.46989 7.51639
vertex 41.03817 -28.56341 10
vertex 39.40152 -30.46989 10
endloop
endfacet
facet normal 0.8743473805559245 0.48530058532315135 0
outer loop
vertex 44.72851 21.9147 2.48361
vertex 45.94789 19.71779 0
vertex 44.72851 21.9147 0
endloop
endfacet
facet normal 0.8743473805559245 0.48530058532315146 0
outer loop
vertex 44.72851 21.9147 2.48361
vertex 44.72851 21.9147 10
vertex 45.94789 19.71779 10
endloop
endfacet
facet normal 0.8743473805559244 0.48530058532315135 0
outer loop
vertex 44.72851 21.9147 2.48361
vertex 45.94789 19.71779 10
vertex 45.94789 19.71779 0
endloop
endfacet
facet normal -0.9702956990539083 0.2419220047814737 0
outer loop
vertex -12.00607 -40.64206 9.47851
vertex -1.16463 2.84056 2.88825
vertex -1.16463 2.84056 0
endloop
endfacet
facet normal -0.9702956990539083 0.2419220047814737 0
outer loop
vertex -12.00607 -40.64206 9.47851
vertex -1.16463 2.84056 0
vertex -12.00607 -40.64206 0
endloop
endfacet
facet normal -0.9702956990539083 0.2419220047814737 0
outer loop
vertex -12.00607 -40.64206 10
vertex -1.16463 2.84056 10
vertex -1.16463 2.84056 2.88825
endloop
endfacet
facet normal -0.9702956990539083 0.2419220047814737 0
outer loop
vertex -12.00607 -40.64206 10
vertex -1.16463 2.84056 2.88825
vertex -12.00607 -40.64206 9.47851
endloop
endfacet
facet normal -0.829039730416707 0.5591897042959517 0
outer loop
vertex -35.98633 -35.37254 0
vertex -37.07862 -36.99194 0
vertex -37.07862 -36.99194 10
endloop
endfacet
facet normal -0.829039730416707 0.5591897042959517 0
outer loop
vertex -35.98633 -35.37254 0
vertex -37.07862 -36.99194 10
vertex -35.98633 -35.37254 9.73955
endloop
endfacet
facet normal -0.8290397304167071 0.5591897042959518 0
outer loop
vertex -35.98633 -35.37254 9.73955
vertex -37.07862 -36.99194 10
vertex -35.98633 -35.37254 10
endloop
endfacet
facet normal -0.8290375717960682 0.5591929045959714 0
outer loop
vertex -31.36533 -28.52163 0
vertex -31.36533 -28.52163 8.63773
vertex 4.14036 24.11772 0.17179
endloop
endfacet
facet normal -0.8290375717960681 0.5591929045959714 0
outer loop
vertex -31.36533 -28.52163 0
vertex 4.14036 24.11772 0.17179
vertex 4.14036 24.11772 0
endloop
endfacet
facet normal -0.8290375717960681 0.5591929045959714 0
outer loop
vertex -31.36533 -28.52163 8.63773
vertex -31.36533 -28.52163 10
vertex 4.14036 24.11772 10
endloop
endfacet
facet normal -0.8290375717960683 0.5591929045959714 0
outer loop
vertex -31.36533 -28.52163 8.63773
vertex 4.14036 24.11772 10
vertex 4.14036 24.11772 0.17179
endloop
endfacet
facet normal -0.8290386933155818 0.5591912418713233 0
outer loop
vertex -35.59638 -34.79441 0
vertex -35.91733 -35.27024 0
vertex -35.91733 -35.27024 9.7231
endloop
endfacet
facet normal -0.8290386933155818 0.5591912418713233 0
outer loop
vertex -35.59638 -34.79441 0
vertex -35.91733 -35.27024 9.7231
vertex -35.59638 -34.79441 9.64657
endloop
endfacet
facet normal -0.8290386933155817 0.5591912418713232 0
outer loop
vertex -35.59638 -34.79441 9.64657
vertex -35.91733 -35.27024 9.7231
vertex -35.91733 -35.27024 10
endloop
endfacet
facet normal -0.8290386933155818 0.5591912418713233 0
outer loop
vertex -35.59638 -34.79441 9.64657
vertex -35.91733 -35.27024 10
vertex -35.59638 -34.79441 10
endloop
endfacet
facet normal -0.8290459177395856 0.5591805310267232 0
outer loop
vertex -35.98633 -35.37254 9.73955
vertex -35.91733 -35.27024 9.7231
vertex -35.91733 -35.27024 0
endloop
endfacet
facet normal -0.8290459177395856 0.5591805310267232 0
outer loop
vertex -35.98633 -35.37254 9.73955
vertex -35.91733 -35.27024 0
vertex -35.98633 -35.37254 0
endloop
endfacet
facet normal -0.8290459177395857 0.5591805310267233 0
outer loop
vertex -35.98633 -35.37254 10
vertex -35.91733 -35.27024 10
vertex -35.91733 -35.27024 9.7231
endloop
endfacet
facet normal -0.8290459177395856 0.5591805310267233 0
outer loop
vertex -35.98633 -35.37254 10
vertex -35.91733 -35.27024 9.7231
vertex -35.98633 -35.37254 9.73955
endloop
endfacet
facet normal -0.9795298114378439 -0.20129915177303173 0
outer loop
vertex -47.70696 -14.96816 0
vertex -47.70696 -14.96816 10
vertex -49.74347 -5.05842 0
endloop
endfacet
facet normal -0.9795298114378439 -0.20129915177303173 0
outer loop
vertex -49.74347 -5.05842 0
vertex -47.70696 -14.96816 10
vertex -49.74347 -5.05842 10
endloop
endfacet
facet normal -1 0 0
outer loop
vertex -49.74347 -5.05842 0
vertex -49.74347 -5.05842 10
vertex -49.74347 5.05842 0
endloop
endfacet
facet normal -1 0 0
outer loop
vertex -49.74347 5.05842 0
vertex -49.74347 -5.05842 10
vertex -49.74347 5.05842 10
endloop
endfacet
facet normal -0.6889671498550882 0.7247925678568705 0
outer loop
vertex -37.93791 32.56862 0
vertex -37.93791 32.56862 10
vertex -30.6053 39.53879 0
endloop
endfacet
facet normal -0.6889671498550882 0.7247925678568705 0
outer loop
vertex -30.6053 39.53879 0
vertex -37.93791 32.56862 10
vertex -30.6053 39.53879 10
endloop
endfacet
facet normal -0.3473053738932253 0.9377520873156652 0
outer loop
vertex -22.01971 44.89023 0
vertex -22.01971 44.89023 10
vertex -12.53263 48.40386 0
endloop
endfacet
facet normal -0.3473053738932253 0.9377520873156652 0
outer loop
vertex -12.53263 48.40386 0
vertex -22.01971 44.89023 10
vertex -12.53263 48.40386 10
endloop
endfacet
facet normal -0.8207634639082971 -0.5712681824793442 0
outer loop
vertex -37.93791 -32.56862 0
vertex -37.93791 -32.56862 10
vertex -43.71733 -24.2651 0
endloop
endfacet
facet normal -0.8207634639082971 -0.5712681824793442 0
outer loop
vertex -43.71733 -24.2651 0
vertex -37.93791 -32.56862 10
vertex -43.71733 -24.2651 10
endloop
endfacet
facet normal -0.5289640697091161 0.8486442204815688 0
outer loop
vertex -30.6053 39.53879 0
vertex -30.6053 39.53879 10
vertex -22.01971 44.89023 0
endloop
endfacet
facet normal -0.5289640697091161 0.8486442204815688 0
outer loop
vertex -22.01971 44.89023 0
vertex -30.6053 39.53879 10
vertex -22.01971 44.89023 10
endloop
endfacet
facet normal -0.9189578533158753 -0.3943557579509624 0
outer loop
vertex -43.71733 -24.2651 0
vertex -43.71733 -24.2651 10
vertex -47.70696 -14.96816 0
endloop
endfacet
facet normal -0.9189578533158753 -0.3943557579509624 0
outer loop
vertex -47.70696 -14.96816 0
vertex -43.71733 -24.2651 10
vertex -47.70696 -14.96816 10
endloop
endfacet
facet normal 0.9795298964034428 0.20129873832654924 0
outer loop
vertex -42.28195 -4.29965 0
vertex -40.55092 -12.72293 10
vertex -40.55092 -12.72293 0
endloop
endfacet
facet normal 0.9795298964034428 0.20129873832654924 0
outer loop
vertex -42.28195 -4.29965 10
vertex -40.55092 -12.72293 10
vertex -42.28195 -4.29965 0
endloop
endfacet
facet normal 1 0 0
outer loop
vertex -42.28195 4.29965 0
vertex -42.28195 -4.29965 10
vertex -42.28195 -4.29965 0
endloop
endfacet
facet normal 1 0 0
outer loop
vertex -42.28195 4.29965 10
vertex -42.28195 -4.29965 10
vertex -42.28195 4.29965 0
endloop
endfacet
facet normal 0.6889667878496708 -0.7247929119687269 0
outer loop
vertex -26.0145 33.60797 0
vertex -32.24722 27.68333 10
vertex -32.24722 27.68333 0
endloop
endfacet
facet normal 0.6889667878496708 -0.7247929119687269 0
outer loop
vertex -26.0145 33.60797 10
vertex -32.24722 27.68333 10
vertex -26.0145 33.60797 0
endloop
endfacet
facet normal 0.3473057583231779 -0.9377519449382988 0
outer loop
vertex -10.65273 41.14328 0
vertex -18.71675 38.15669 10
vertex -18.71675 38.15669 0
endloop
endfacet
facet normal 0.3473057583231779 -0.9377519449382988 0
outer loop
vertex -10.65273 41.14328 10
vertex -18.71675 38.15669 10
vertex -10.65273 41.14328 0
endloop
endfacet
facet normal 0.8207636039370239 -0.5712679812945131 0
outer loop
vertex -32.24722 27.68333 0
vertex -37.15973 20.62533 10
vertex -37.15973 20.62533 0
endloop
endfacet
facet normal 0.8207636039370239 -0.5712679812945131 0
outer loop
vertex -32.24722 27.68333 10
vertex -37.15973 20.62533 10
vertex -32.24722 27.68333 0
endloop
endfacet
facet normal 0.15142737394839137 -0.9884683861505607 0
outer loop
vertex -2.15259 42.44545 0
vertex -10.65273 41.14328 10
vertex -10.65273 41.14328 0
endloop
endfacet
facet normal 0.15142737394839137 -0.9884683861505607 0
outer loop
vertex -2.15259 42.44545 10
vertex -10.65273 41.14328 10
vertex -2.15259 42.44545 0
endloop
endfacet
facet normal -0.050649428692685156 -0.998716493992717 0
outer loop
vertex 6.43568 42.0099 0
vertex -2.15259 42.44545 10
vertex -2.15259 42.44545 0
endloop
endfacet
facet normal -0.050649428692685156 -0.998716493992717 0
outer loop
vertex 6.43568 42.0099 10
vertex -2.15259 42.44545 10
vertex 6.43568 42.0099 0
endloop
endfacet
facet normal 0.8207636039370239 0.5712679812945131 0
outer loop
vertex -37.15973 -20.62533 0
vertex -32.24722 -27.68333 10
vertex -32.24722 -27.68333 0
endloop
endfacet
facet normal 0.8207636039370239 0.5712679812945131 0
outer loop
vertex -37.15973 -20.62533 10
vertex -32.24722 -27.68333 10
vertex -37.15973 -20.62533 0
endloop
endfacet
facet normal 0.5289638130098387 -0.8486443804834227 0
outer loop
vertex -18.71675 38.15669 0
vertex -26.0145 33.60797 10
vertex -26.0145 33.60797 0
endloop
endfacet
facet normal 0.5289638130098387 -0.8486443804834227 0
outer loop
vertex -18.71675 38.15669 10
vertex -26.0145 33.60797 10
vertex -18.71675 38.15669 0
endloop
endfacet
facet normal 0.9795298964034428 -0.20129873832654924 0
outer loop
vertex -40.55092 12.72293 0
vertex -42.28195 4.29965 10
vertex -42.28195 4.29965 0
endloop
endfacet
facet normal 0.9795298964034428 -0.20129873832654924 0
outer loop
vertex -40.55092 12.72293 10
vertex -42.28195 4.29965 10
vertex -40.55092 12.72293 0
endloop
endfacet
facet normal 0.9189576817593093 0.3943561577249122 0
outer loop
vertex -40.55092 -12.72293 0
vertex -37.15973 -20.62533 10
vertex -37.15973 -20.62533 0
endloop
endfacet
facet normal 0.9189576817593093 0.3943561577249122 0
outer loop
vertex -40.55092 -12.72293 10
vertex -37.15973 -20.62533 10
vertex -40.55092 -12.72293 0
endloop
endfacet
facet normal 0.9189576817593093 -0.3943561577249122 0
outer loop
vertex -37.15973 20.62533 0
vertex -40.55092 12.72293 10
vertex -40.55092 12.72293 0
endloop
endfacet
facet normal 0.9189576817593093 -0.3943561577249122 0
outer loop
vertex -37.15973 20.62533 10
vertex -40.55092 12.72293 10
vertex -37.15973 20.62533 0
endloop
endfacet
facet normal -0.2506503527205462 -0.968077683185118 0
outer loop
vertex 6.43568 42.0099 10
vertex 6.43568 42.0099 0
vertex 8.47005 41.48317 0
endloop
endfacet
facet normal -0.2506503527205462 -0.9680776831851181 0
outer loop
vertex 6.43568 42.0099 10
vertex 8.47005 41.48317 0
vertex 8.47005 41.48317 7.55625
endloop
endfacet
facet normal -0.25065035272054625 -0.9680776831851181 0
outer loop
vertex 8.47005 41.48317 10
vertex 6.43568 42.0099 10
vertex 8.47005 41.48317 7.55625
endloop
endfacet
facet normal 0.6889673701664851 0.7247923584350744 0
outer loop
vertex -31.36533 -28.52163 0
vertex -32.24722 -27.68333 0
vertex -31.36533 -28.52163 1.41494
endloop
endfacet
facet normal 0.6889673701664851 0.7247923584350745 0
outer loop
vertex -32.24722 -27.68333 0
vertex -32.24722 -27.68333 10
vertex -31.36533 -28.52163 10
endloop
endfacet
facet normal 0.6889673701664852 0.7247923584350746 0
outer loop
vertex -32.24722 -27.68333 0
vertex -31.36533 -28.52163 10
vertex -31.36533 -28.52163 1.41494
endloop
endfacet
facet normal -0.6889686887335215 -0.7247911050397985 0
outer loop
vertex -35.59638 -34.79441 3.19331
vertex -36.11677 -34.29974 2.48361
vertex -36.11677 -34.29974 0
endloop
endfacet
facet normal -0.6889686887335215 -0.7247911050397984 0
outer loop
vertex -35.59638 -34.79441 3.19331
vertex -36.11677 -34.29974 0
vertex -35.59638 -34.79441 0
endloop
endfacet
facet normal -0.6889686887335215 -0.7247911050397984 0
outer loop
vertex -36.11677 -34.29974 10
vertex -36.11677 -34.29974 2.48361
vertex -35.59638 -34.79441 3.19331
endloop
endfacet
facet normal -0.6889686887335215 -0.7247911050397985 0
outer loop
vertex -36.11677 -34.29974 10
vertex -35.59638 -34.79441 3.19331
vertex -35.59638 -34.79441 10
endloop
endfacet
facet normal 0.2506675507252773 0.9680732301914925 0
outer loop
vertex 10.00381 48.79362 0
vertex 10.00381 48.79362 7.51639
vertex 10.27523 48.72334 7.23925
endloop
endfacet
facet normal 0.25066755072527735 0.9680732301914927 0
outer loop
vertex 10.00381 48.79362 0
vertex 10.27523 48.72334 7.23925
vertex 10.27523 48.72334 0
endloop
endfacet
facet normal 0.2506675507252773 0.9680732301914925 0
outer loop
vertex 10.27523 48.72334 7.23925
vertex 10.00381 48.79362 7.51639
vertex 10.00381 48.79362 10
endloop
endfacet
facet normal 0.25066755072527735 0.9680732301914926 0
outer loop
vertex 10.27523 48.72334 7.23925
vertex 10.00381 48.79362 10
vertex 10.27523 48.72334 10
endloop
endfacet
facet normal 0.05064924000160795 0.9987165035620768 0
outer loop
vertex -2.53246 49.93583 0
vertex -2.53246 49.93583 10
vertex 7.57139 49.42342 0
endloop
endfacet
facet normal 0.05064924000160795 0.9987165035620768 0
outer loop
vertex 7.57139 49.42342 0
vertex -2.53246 49.93583 10
vertex 7.57139 49.42342 10
endloop
endfacet
facet normal -0.15142816576972898 0.9884682648479998 0
outer loop
vertex -10.04897 48.78434 7.51639
vertex -2.53246 49.93583 0
vertex -10.04897 48.78434 0
endloop
endfacet
facet normal -0.15142816576972903 0.9884682648479999 0
outer loop
vertex -10.04897 48.78434 7.51639
vertex -10.04897 48.78434 10
vertex -2.53246 49.93583 10
endloop
endfacet
facet normal -0.15142816576972898 0.9884682648479998 0
outer loop
vertex -10.04897 48.78434 7.51639
vertex -2.53246 49.93583 10
vertex -2.53246 49.93583 0
endloop
endfacet
facet normal 0.25065358676036276 0.9680768458361999 0
outer loop
vertex 7.57139 49.42342 10
vertex 10.00381 48.79362 7.51639
vertex 10.00381 48.79362 0
endloop
endfacet
facet normal 0.25065358676036276 0.9680768458361998 0
outer loop
vertex 7.57139 49.42342 10
vertex 10.00381 48.79362 0
vertex 7.57139 49.42342 0
endloop
endfacet
facet normal 0.2506535867603628 0.9680768458361998 0
outer loop
vertex 10.00381 48.79362 7.51639
vertex 7.57139 49.42342 10
vertex 10.00381 48.79362 10
endloop
endfacet
facet normal -0.8207633306466803 0.5712683739415024 0
outer loop
vertex -42.28195 26.32737 7.51639
vertex -37.93791 32.56862 0
vertex -42.28195 26.32737 0
endloop
endfacet
facet normal -0.8207633306466802 0.5712683739415024 0
outer loop
vertex -42.28195 26.32737 7.51639
vertex -42.28195 26.32737 10
vertex -37.93791 32.56862 10
endloop
endfacet
facet normal -0.8207633306466802 0.5712683739415024 0
outer loop
vertex -42.28195 26.32737 7.51639
vertex -37.93791 32.56862 10
vertex -37.93791 32.56862 0
endloop
endfacet
facet normal -0.15142672089857193 0.9884684861936196 0
outer loop
vertex -12.53263 48.40386 10
vertex -10.04897 48.78434 7.51639
vertex -10.04897 48.78434 0
endloop
endfacet
facet normal -0.15142672089857195 0.9884684861936196 0
outer loop
vertex -12.53263 48.40386 10
vertex -10.04897 48.78434 0
vertex -12.53263 48.40386 0
endloop
endfacet
facet normal -0.15142672089857193 0.9884684861936195 0
outer loop
vertex -10.04897 48.78434 7.51639
vertex -12.53263 48.40386 10
vertex -10.04897 48.78434 10
endloop
endfacet
facet normal -0.9189578700670642 0.3943557189160629 0
outer loop
vertex -46.71609 17.27716 7.51639
vertex -43.71733 24.2651 0
vertex -46.71609 17.27716 0
endloop
endfacet
facet normal -0.918957870067064 0.39435571891606286 0
outer loop
vertex -46.71609 17.27716 7.51639
vertex -46.71609 17.27716 10
vertex -43.71733 24.2651 10
endloop
endfacet
facet normal -0.9189578700670643 0.39435571891606297 0
outer loop
vertex -46.71609 17.27716 7.51639
vertex -43.71733 24.2651 10
vertex -43.71733 24.2651 0
endloop
endfacet
facet normal -0.8207638672109923 0.5712676030380653 0
outer loop
vertex -43.71733 24.2651 10
vertex -42.28195 26.32737 7.51639
vertex -42.28195 26.32737 0
endloop
endfacet
facet normal -0.8207638672109923 0.5712676030380653 0
outer loop
vertex -43.71733 24.2651 10
vertex -42.28195 26.32737 0
vertex -43.71733 24.2651 0
endloop
endfacet
facet normal -0.8207638672109923 0.5712676030380653 0
outer loop
vertex -42.28195 26.32737 7.51639
vertex -43.71733 24.2651 10
vertex -42.28195 26.32737 10
endloop
endfacet
facet normal -0.9795298114378439 0.20129915177303173 0
outer loop
vertex -49.74347 5.05842 0
vertex -49.74347 5.05842 10
vertex -47.70696 14.96816 0
endloop
endfacet
facet normal -0.9795298114378439 0.20129915177303173 0
outer loop
vertex -47.70696 14.96816 0
vertex -49.74347 5.05842 10
vertex -47.70696 14.96816 10
endloop
endfacet
facet normal -0.6889663637399437 -0.724793315114702 0
outer loop
vertex -36.11677 -34.29974 2.48361
vertex -37.93791 -32.56862 0
vertex -36.11677 -34.29974 0
endloop
endfacet
facet normal -0.6889663637399437 -0.7247933151147019 0
outer loop
vertex -36.11677 -34.29974 2.48361
vertex -36.11677 -34.29974 10
vertex -37.93791 -32.56862 10
endloop
endfacet
facet normal -0.6889663637399436 -0.7247933151147019 0
outer loop
vertex -36.11677 -34.29974 2.48361
vertex -37.93791 -32.56862 10
vertex -37.93791 -32.56862 0
endloop
endfacet
facet normal -0.918957802620199 0.39435587608587175 0
outer loop
vertex -47.70696 14.96816 10
vertex -46.71609 17.27716 7.51639
vertex -46.71609 17.27716 0
endloop
endfacet
facet normal -0.918957802620199 0.39435587608587175 0
outer loop
vertex -47.70696 14.96816 10
vertex -46.71609 17.27716 0
vertex -47.70696 14.96816 0
endloop
endfacet
facet normal -0.918957802620199 0.39435587608587175 0
outer loop
vertex -46.71609 17.27716 7.51639
vertex -47.70696 14.96816 10
vertex -46.71609 17.27716 10
endloop
endfacet
facet normal 0.8290373386234087 -0.5591932502884986 0
outer loop
vertex -30.86084 -41.18588 0
vertex -30.00306 -39.91417 0
vertex -30.00306 -39.91417 0.20453
endloop
endfacet
facet normal 0.8290373386234088 -0.5591932502884988 0
outer loop
vertex -30.86084 -41.18588 10
vertex -30.86084 -41.18588 0
vertex -30.00306 -39.91417 0.20453
endloop
endfacet
facet normal 0.8290373386234087 -0.5591932502884988 0
outer loop
vertex -30.86084 -41.18588 10
vertex -30.00306 -39.91417 0.20453
vertex -30.00306 -39.91417 10
endloop
endfacet
facet normal 0.82903756469167 -0.5591929151286746 0
outer loop
vertex -25.82792 -33.72427 1.20004
vertex -25.82792 -33.72427 0
vertex -1.16463 2.84056 0
endloop
endfacet
facet normal 0.82903756469167 -0.5591929151286746 0
outer loop
vertex -25.82792 -33.72427 1.20004
vertex -1.16463 2.84056 0
vertex -1.16463 2.84056 7.08073
endloop
endfacet
facet normal 0.8290375646916699 -0.5591929151286746 0
outer loop
vertex -25.82792 -33.72427 10
vertex -25.82792 -33.72427 1.20004
vertex -1.16463 2.84056 7.08073
endloop
endfacet
facet normal 0.82903756469167 -0.5591929151286748 0
outer loop
vertex -25.82792 -33.72427 10
vertex -1.16463 2.84056 7.08073
vertex -1.16463 2.84056 10
endloop
endfacet
facet normal -0.5289640023977965 -0.8486442624370377 0
outer loop
vertex -30.00306 -39.91417 0
vertex -22.01971 -44.89023 0
vertex -22.01971 -44.89023 10
endloop
endfacet
facet normal -0.5289640023977965 -0.8486442624370377 0
outer loop
vertex -30.00306 -39.91417 0
vertex -22.01971 -44.89023 10
vertex -30.00306 -39.91417 0.70145
endloop
endfacet
facet normal -0.5289640023977965 -0.8486442624370378 0
outer loop
vertex -30.00306 -39.91417 0.70145
vertex -22.01971 -44.89023 10
vertex -30.00306 -39.91417 10
endloop
endfacet
facet normal 0.528963481508246 0.8486445871097485 0
outer loop
vertex -18.71675 -38.15669 0
vertex -25.82792 -33.72427 0
vertex -25.82792 -33.72427 0.25567
endloop
endfacet
facet normal 0.5289634815082459 0.8486445871097485 0
outer loop
vertex -18.71675 -38.15669 0
vertex -25.82792 -33.72427 0.25567
vertex -18.71675 -38.15669 10
endloop
endfacet
facet normal 0.5289634815082459 0.8486445871097487 0
outer loop
vertex -25.82792 -33.72427 10
vertex -18.71675 -38.15669 10
vertex -25.82792 -33.72427 0.25567
endloop
endfacet
facet normal 0.34730611804914174 0.9377518117101324 0
outer loop
vertex -12.00607 -40.64206 0
vertex -18.71675 -38.15669 0
vertex -12.00607 -40.64206 8.32176
endloop
endfacet
facet normal 0.3473061180491417 0.9377518117101324 0
outer loop
vertex -18.71675 -38.15669 0
vertex -18.71675 -38.15669 10
vertex -12.00607 -40.64206 10
endloop
endfacet
facet normal 0.34730611804914147 0.9377518117101326 0
outer loop
vertex -18.71675 -38.15669 0
vertex -12.00607 -40.64206 10
vertex -12.00607 -40.64206 8.32176
endloop
endfacet
facet normal -0.3473051900325117 -0.9377521554102026 0
outer loop
vertex -22.01971 -44.89023 0
vertex -14.88885 -47.53121 0
vertex -14.88885 -47.53121 7.51639
endloop
endfacet
facet normal -0.3473051900325117 -0.9377521554102027 0
outer loop
vertex -22.01971 -44.89023 10
vertex -22.01971 -44.89023 0
vertex -14.88885 -47.53121 7.51639
endloop
endfacet
facet normal -0.3473051900325117 -0.9377521554102027 0
outer loop
vertex -22.01971 -44.89023 10
vertex -14.88885 -47.53121 7.51639
vertex -14.88885 -47.53121 10
endloop
endfacet
facet normal -0.3473003250496356 -0.9377539571872877 0
outer loop
vertex -14.88885 -47.53121 7.51639
vertex -14.88885 -47.53121 0
vertex -13.82222 -47.92624 0
endloop
endfacet
facet normal -0.34730032504963554 -0.9377539571872877 0
outer loop
vertex -14.88885 -47.53121 7.51639
vertex -13.82222 -47.92624 0
vertex -13.82222 -47.92624 8.64069
endloop
endfacet
facet normal -0.34730032504963565 -0.9377539571872878 0
outer loop
vertex -14.88885 -47.53121 10
vertex -14.88885 -47.53121 7.51639
vertex -13.82222 -47.92624 8.64069
endloop
endfacet
facet normal -0.3473003250496356 -0.9377539571872877 0
outer loop
vertex -14.88885 -47.53121 10
vertex -13.82222 -47.92624 8.64069
vertex -13.82222 -47.92624 10
endloop
endfacet
facet normal -0.5591920985466948 -0.8290381154826015 0
outer loop
vertex -37.07862 -36.99194 0
vertex -32.89518 -39.8137 0
vertex -32.89518 -39.8137 6.72819
endloop
endfacet
facet normal -0.5591920985466949 -0.8290381154826015 0
outer loop
vertex -37.07862 -36.99194 10
vertex -37.07862 -36.99194 0
vertex -32.89518 -39.8137 6.72819
endloop
endfacet
facet normal -0.5591920985466949 -0.8290381154826015 0
outer loop
vertex -37.07862 -36.99194 10
vertex -32.89518 -39.8137 6.72819
vertex -32.89518 -39.8137 10
endloop
endfacet
facet normal -0.5591929997791111 -0.8290375075942216 0
outer loop
vertex -32.89518 -39.8137 0
vertex -30.86084 -41.18588 0
vertex -30.86084 -41.18588 10
endloop
endfacet
facet normal -0.5591929997791112 -0.8290375075942216 0
outer loop
vertex -32.89518 -39.8137 0
vertex -30.86084 -41.18588 10
vertex -32.89518 -39.8137 6.72819
endloop
endfacet
facet normal -0.5591929997791112 -0.8290375075942215 0
outer loop
vertex -32.89518 -39.8137 6.72819
vertex -30.86084 -41.18588 10
vertex -32.89518 -39.8137 10
endloop
endfacet
facet normal -0.1514270293807382 -0.9884684389361781 0
outer loop
vertex -6.44425 -49.33656 6.08828
vertex -10.04897 -48.78434 2.48361
vertex -10.04897 -48.78434 0
endloop
endfacet
facet normal -0.1514270293807382 -0.9884684389361782 0
outer loop
vertex -6.44425 -49.33656 6.08828
vertex -10.04897 -48.78434 0
vertex -6.44425 -49.33656 0
endloop
endfacet
facet normal -0.15142702938073824 -0.9884684389361782 0
outer loop
vertex -10.04897 -48.78434 10
vertex -10.04897 -48.78434 2.48361
vertex -6.44425 -49.33656 6.08828
endloop
endfacet
facet normal -0.1514270293807382 -0.9884684389361782 0
outer loop
vertex -10.04897 -48.78434 10
vertex -6.44425 -49.33656 6.08828
vertex -6.44425 -49.33656 10
endloop
endfacet
facet normal -0.15142672089857195 -0.9884684861936196 0
outer loop
vertex -10.04897 -48.78434 2.48361
vertex -12.53263 -48.40386 0
vertex -10.04897 -48.78434 0
endloop
endfacet
facet normal -0.15142672089857195 -0.9884684861936196 0
outer loop
vertex -10.04897 -48.78434 2.48361
vertex -10.04897 -48.78434 10
vertex -12.53263 -48.40386 10
endloop
endfacet
facet normal -0.15142672089857195 -0.9884684861936196 0
outer loop
vertex -10.04897 -48.78434 2.48361
vertex -12.53263 -48.40386 10
vertex -12.53263 -48.40386 0
endloop
endfacet
facet normal -0.3473105664708641 -0.9377501641789712 0
outer loop
vertex -13.82222 -47.92624 0
vertex -12.53263 -48.40386 0
vertex -12.53263 -48.40386 10
endloop
endfacet
facet normal -0.3473105664708641 -0.9377501641789712 0
outer loop
vertex -13.82222 -47.92624 0
vertex -12.53263 -48.40386 10
vertex -13.82222 -47.92624 8.64069
endloop
endfacet
facet normal -0.34731056647086417 -0.9377501641789712 0
outer loop
vertex -13.82222 -47.92624 8.64069
vertex -12.53263 -48.40386 10
vertex -13.82222 -47.92624 10
endloop
endfacet
facet normal 0.24190648500807205 0.9702995684380362 0
outer loop
vertex 10.86395 20.08285 0
vertex 10.52281 20.1679 0
vertex 10.52281 20.1679 0.46878
endloop
endfacet
facet normal 0.2419064850080721 0.9702995684380363 0
outer loop
vertex 10.86395 20.08285 10
vertex 10.86395 20.08285 0
vertex 10.52281 20.1679 0.46878
endloop
endfacet
facet normal 0.24190648500807205 0.9702995684380362 0
outer loop
vertex 10.86395 20.08285 10
vertex 10.52281 20.1679 0.46878
vertex 10.52281 20.1679 10
endloop
endfacet
facet normal 0.5591923934131123 0.829037916593032 0
outer loop
vertex 4.86084 25.18588 0
vertex 4.86084 25.18588 10
vertex 11.07862 20.99194 0
endloop
endfacet
facet normal 0.5591923934131123 0.829037916593032 0
outer loop
vertex 11.07862 20.99194 0
vertex 4.86084 25.18588 10
vertex 11.07862 20.99194 10
endloop
endfacet
facet normal 0.2506517703789326 0.9680773161302287 0
outer loop
vertex 10.27523 48.72334 7.23925
vertex 17.36526 46.88761 0
vertex 10.27523 48.72334 0
endloop
endfacet
facet normal 0.2506517703789325 0.9680773161302288 0
outer loop
vertex 17.36526 46.88761 0
vertex 10.27523 48.72334 7.23925
vertex 10.27523 48.72334 10
endloop
endfacet
facet normal 0.25065177037893255 0.9680773161302287 0
outer loop
vertex 17.36526 46.88761 0
vertex 10.27523 48.72334 10
vertex 17.36526 46.88761 10
endloop
endfacet
facet normal -0.2506524617949703 -0.9680771371105306 0
outer loop
vertex 8.47005 41.48317 0
vertex 14.75575 39.85569 0
vertex 14.75575 39.85569 0.00567
endloop
endfacet
facet normal -0.25065246179497025 -0.9680771371105306 0
outer loop
vertex 8.47005 41.48317 0
vertex 14.75575 39.85569 0.00567
vertex 8.47005 41.48317 7.55625
endloop
endfacet
facet normal -0.2506524617949703 -0.9680771371105306 0
outer loop
vertex 14.75575 39.85569 0.00567
vertex 14.75575 39.85569 10
vertex 8.47005 41.48317 10
endloop
endfacet
facet normal -0.25065246179497047 -0.9680771371105306 0
outer loop
vertex 14.75575 39.85569 0.00567
vertex 8.47005 41.48317 10
vertex 8.47005 41.48317 7.55625
endloop
endfacet
facet normal -0.2502502240032846 -0.9681811945014764 0
outer loop
vertex 14.75575 39.85569 0
vertex 14.76047 39.85447 0
vertex 14.75575 39.85569 0.00567
endloop
endfacet
facet normal -0.25025022400328467 -0.9681811945014767 0
outer loop
vertex 14.76047 39.85447 0
vertex 14.76047 39.85447 10
vertex 14.75575 39.85569 10
endloop
endfacet
facet normal -0.2502502240032846 -0.9681811945014765 0
outer loop
vertex 14.76047 39.85447 0
vertex 14.75575 39.85569 10
vertex 14.75575 39.85569 0.00567
endloop
endfacet
facet normal -0.4403968112552045 -0.8978032349219107 0
outer loop
vertex 14.76047 39.85447 10
vertex 14.76047 39.85447 0
vertex 15.68099 39.40293 0
endloop
endfacet
facet normal -0.44039681125520463 -0.8978032349219107 0
outer loop
vertex 14.76047 39.85447 10
vertex 15.68099 39.40293 0
vertex 15.68099 39.40293 8.8077
endloop
endfacet
facet normal -0.4403968112552045 -0.8978032349219107 0
outer loop
vertex 15.68099 39.40293 10
vertex 14.76047 39.85447 10
vertex 15.68099 39.40293 8.8077
endloop
endfacet
facet normal 0.44039718868892 0.897803049780349 0
outer loop
vertex 17.52731 46.80812 0
vertex 17.36526 46.88761 0
vertex 17.36526 46.88761 10
endloop
endfacet
facet normal 0.44039718868892 0.897803049780349 0
outer loop
vertex 17.52731 46.80812 0
vertex 17.36526 46.88761 10
vertex 17.52731 46.80812 9.82159
endloop
endfacet
facet normal 0.44039718868891997 0.897803049780349 0
outer loop
vertex 17.52731 46.80812 9.82159
vertex 17.36526 46.88761 10
vertex 17.52731 46.80812 10
endloop
endfacet
facet normal -0.8290386582290974 0.5591912938893969 0
outer loop
vertex 4.14036 24.11772 0.17179
vertex 4.86084 25.18588 0
vertex 4.14036 24.11772 0
endloop
endfacet
facet normal -0.8290386582290974 0.5591912938893969 0
outer loop
vertex 4.14036 24.11772 10
vertex 4.86084 25.18588 10
vertex 4.86084 25.18588 0
endloop
endfacet
facet normal -0.8290386582290974 0.5591912938893969 0
outer loop
vertex 4.14036 24.11772 10
vertex 4.86084 25.18588 0
vertex 4.14036 24.11772 0.17179
endloop
endfacet
facet normal 0.8290431685623538 -0.55918460695918 0
outer loop
vertex 10.52281 20.1679 0
vertex 11.07862 20.99194 0
vertex 11.07862 20.99194 10
endloop
endfacet
facet normal 0.8290431685623538 -0.5591846069591799 0
outer loop
vertex 10.52281 20.1679 0
vertex 11.07862 20.99194 10
vertex 10.52281 20.1679 9.86747
endloop
endfacet
facet normal 0.8290431685623538 -0.55918460695918 0
outer loop
vertex 10.52281 20.1679 9.86747
vertex 11.07862 20.99194 10
vertex 10.52281 20.1679 10
endloop
endfacet
endsolid JSxCAD
