<svg viewBox="-250 -250 500 500" width="500" height="500" xmlns="http://www.w3.org/2000/svg"><path d="M132.83870265694864,-17.172019263407233L2.158969780088828,-72.99606456409862L-26.404046230475043,-62.27392898133131zM132.83870265694864,-17.172019263407233L-26.404046230475043,-62.27392898133131L-54.26732960584312,-49.876352037166725zM132.83870265694864,-17.172019263407233L30.72323221503451,-81.7651406461565L2.158969780088828,-72.99606456409862zM132.83870265694864,-17.172019263407233L-54.26732960584312,-49.876352037166725L-80.73740258099666,-36.094671678678594zM132.83870265694864,-17.172019263407233L58.562195801273724,-88.31009595658686L30.72323221503451,-81.7651406461565zM132.83870265694864,-17.172019263407233L-80.73740258099666,-36.094671678678594L-105.10448131864537,-21.245095253740335zM132.83870265694864,-17.172019263407233L84.89964698467239,-92.36466385961899L58.562195801273724,-88.31009595658686zM132.83870265694864,-17.172019263407233L-105.10448131864537,-21.245095253740335L-126.62610187805495,-5.682612952088757zM132.83870265694864,-17.172019263407233L108.89283921909761,-93.67206287491652L84.89964698467239,-92.36466385961899zM132.83870265694864,-17.172019263407233L-126.62610187805495,-5.682612952088757L-144.51871069049318,10.183654581620234zM132.83870265694864,-17.172019263407233L129.62528430847968,-91.99844496815102L108.89283921909761,-93.67206287491652zM132.83870265694864,-17.172019263407233L-144.51871069049318,10.183654581620234L-157.9625651008226,25.87603949823158zM132.83870265694864,-17.172019263407233L146.11533201016323,-87.15642181473237L129.62528430847968,-91.99844496815102zM132.83870265694864,-17.172019263407233L-157.9625651008226,25.87603949823158L-166.12536743615064,40.837873109349054zM132.83870265694864,-17.172019263407233L157.34874981113745,-79.0397365593739L146.11533201016323,-87.15642181473237zM132.83870265694864,-17.172019263407233L-166.12536743615064,40.837873109349054L-168.2107426698842,54.43166296128079z" style="fill:rgb(82,237,172)"/><path d="M173.06020081682522,-35.74048590946766L162.34211901775328,-67.66836857749564L171.3266066636782,-20.48419347252014z" style="fill:rgb(244,158,168)"/><path d="M-148.8249762310647,96.29191649328297L-151.6442200454493,74.66122394769963L-163.53667093790773,65.9523158780504zM-136.61793410445438,105.84879088402232L-151.6442200454493,74.66122394769963L-148.8249762310647,96.29191649328297z" style="fill:rgb(22,67,169)"/><path d="M171.3266066636782,-20.48419347252014L162.34211901775328,-67.66836857749564L160.24311703697376,-53.24030730240088z" style="fill:rgb(244,158,168)"/><path d="M132.83870265694864,-17.172019263407233L162.34211901775328,-67.66836857749564L157.34874981113745,-79.0397365593739zM132.83870265694864,-17.172019263407233L-168.2107426698842,54.43166296128079L-163.53667093790773,65.9523158780504z" style="fill:rgb(82,237,172)"/><path d="M171.3266066636782,-20.48419347252014L160.24311703697376,-53.24030730240088L162.0016939790921,-2.678937684034927z" style="fill:rgb(236,146,190)"/><path d="M-136.61793410445438,105.84879088402232L-132.42837863011673,79.84656690298885L-151.6442200454493,74.66122394769963z" style="fill:rgb(36,64,191)"/><path d="M132.83870265694864,-17.172019263407233L160.24311703697376,-53.24030730240088L162.34211901775328,-67.66836857749564zM132.83870265694864,-17.172019263407233L-163.53667093790773,65.9523158780504L-151.6442200454493,74.66122394769963z" style="fill:rgb(82,237,172)"/><path d="M-117.20988493087002,111.8829462234334L-132.42837863011673,79.84656690298885L-136.61793410445438,105.84879088402232z" style="fill:rgb(36,64,191)"/><path d="M162.0016939790921,-2.678937684034927L160.24311703697376,-53.24030730240088L150.46469610090037,-36.18030696029731z" style="fill:rgb(236,146,190)"/><path d="M132.83870265694864,-17.172019263407233L150.46469610090037,-36.18030696029731L160.24311703697376,-53.24030730240088z" style="fill:rgb(82,237,172)"/><path d="M162.0016939790921,-2.678937684034927L150.46469610090037,-36.18030696029731L144.90849808762317,16.94387848312246z" style="fill:rgb(225,133,209)"/><path d="M132.83870265694864,-17.172019263407233L-151.6442200454493,74.66122394769963L-132.42837863011673,79.84656690298885z" style="fill:rgb(82,237,172)"/><path d="M-117.20988493087002,111.8829462234334L-106.26963424012648,80.9086778247113L-132.42837863011673,79.84656690298885zM-91.00804404574188,113.75409141039303L-106.26963424012648,80.9086778247113L-117.20988493087002,111.8829462234334z" style="fill:rgb(54,63,210)"/><path d="M144.90849808762317,16.94387848312246L150.46469610090037,-36.18030696029731L132.83870265694864,-17.172019263407233z" style="fill:rgb(225,133,209)"/><path d="M132.83870265694864,-17.172019263407233L-132.42837863011673,79.84656690298885L-106.26963424012648,80.9086778247113z" style="fill:rgb(82,237,172)"/><path d="M144.90849808762317,16.94387848312246L132.83870265694864,-17.172019263407233L120.42025277656069,37.40049518431118z" style="fill:rgb(209,121,225)"/><path d="M-91.00804404574188,113.75409141039303L-74.13214789574373,77.46196790362225L-106.26963424012648,80.9086778247113zM-58.99195612690224,111.03156915318117L-74.13214789574373,77.46196790362225L-91.00804404574188,113.75409141039303z" style="fill:rgb(74,65,225)"/><path d="M132.83870265694864,-17.172019263407233L-106.26963424012648,80.9086778247113L-74.13214789574373,77.46196790362225z" style="fill:rgb(82,237,172)"/><path d="M120.42025277656069,37.40049518431118L132.83870265694864,-17.172019263407233L107.75842338985876,2.8441947063273494z" style="fill:rgb(209,121,225)"/><path d="M120.42025277656069,37.40049518431118L107.75842338985876,2.8441947063273494L89.54725954691189,57.51217975386482z" style="fill:rgb(190,108,236)"/><path d="M132.83870265694864,-17.172019263407233L76.26630531703046,22.722397298988778L107.75842338985876,2.8441947063273494zM132.83870265694864,-17.172019263407233L-74.13214789574373,77.46196790362225L-37.58643447958205,69.4320376184399z" style="fill:rgb(82,237,172)"/><path d="M-58.99195612690224,111.03156915318117L-37.58643447958205,69.4320376184399L-74.13214789574373,77.46196790362225zM-22.731640119591074,103.59513935336263L-37.58643447958205,69.4320376184399L-58.99195612690224,111.03156915318117z" style="fill:rgb(97,70,237)"/><path d="M89.54725954691189,57.51217975386482L107.75842338985876,2.8441947063273494L76.26630531703046,22.722397298988778z" style="fill:rgb(190,108,236)"/><path d="M132.83870265694864,-17.172019263407233L40.043294623203955,41.215876804869325L76.26630531703046,22.722397298988778zM132.83870265694864,-17.172019263407233L-37.58643447958205,69.4320376184399L1.2759992925890273,57.12126705859885z" style="fill:rgb(82,237,172)"/><path d="M89.54725954691189,57.51217975386482L76.26630531703046,22.722397298988778L53.92787006451928,76.01462422782498z" style="fill:rgb(168,96,244)"/><path d="M132.83870265694864,-17.172019263407233L1.2759992925890273,57.12126705859885L40.043294623203955,41.215876804869325z" style="fill:rgb(82,237,172)"/><path d="M15.700472399926266,91.70505789153519L1.2759992925890273,57.12126705859885L-22.731640119591074,103.59513935336263zM-22.731640119591074,103.59513935336263L1.2759992925890273,57.12126705859885L-37.58643447958205,69.4320376184399z" style="fill:rgb(120,77,244)"/><path d="M53.92787006451928,76.01462422782498L40.043294623203955,41.215876804869325L15.700472399926266,91.70505789153519z" style="fill:rgb(145,85,246)"/><path d="M53.92787006451928,76.01462422782498L76.26630531703046,22.722397298988778L40.043294623203955,41.215876804869325z" style="fill:rgb(168,96,244)"/><path d="M15.700472399926266,91.70505789153519L40.043294623203955,41.215876804869325L1.2759992925890273,57.12126705859885z" style="fill:rgb(145,85,246)"/></svg>