<svg viewBox="-250 -250 500 500" width="500" height="500" xmlns="http://www.w3.org/2000/svg"><path d="M138.97426535779078,7.253005206271128e-15L-13.230426889582729,-51.98583182858861L-36.72359233777679,-42.10449603009945zM138.97426535779078,7.253005206271128e-15L10.64175504156163,-60.59203484923808L-13.230426889582729,-51.98583182858861zM138.97426535779078,7.253005206271128e-15L-36.72359233777679,-42.10449603009945L-59.431587360054706,-31.115470718585986zM138.97426535779078,7.253005206271128e-15L34.48118998821186,-67.76156637396988L10.64175504156163,-60.59203484923808zM138.97426535779078,7.253005206271128e-15L-59.431587360054706,-31.115470718585986L-80.94478226600694,-19.196172791481033zM138.97426535779078,7.253005206271128e-15L57.861068603735646,-73.33629695309565L34.48118998821186,-67.76156637396988zM138.97426535779078,7.253005206271128e-15L-80.94478226600694,-19.196172791481033L-100.8421789845002,-6.539234407620111zM138.97426535779078,7.253005206271128e-15L80.33064881332808,-77.16091380990633L57.861068603735646,-73.33629695309565zM138.97426535779078,7.253005206271128e-15L-100.8421789845002,-6.539234407620111L-118.68560321296927,6.641393129813588zM138.97426535779078,7.253005206271128e-15L101.40789956672718,-79.084649731871L80.33064881332808,-77.16091380990633zM138.97426535779078,7.253005206271128e-15L-118.68560321296927,6.641393129813588L-134.01712423929285,20.103963338142762zM138.97426535779078,7.253005206271128e-15L120.57499762475658,-78.96587177776183L101.40789956672718,-79.084649731871zM138.97426535779078,7.253005206271128e-15L-134.01712423929285,20.103963338142762L-146.3611229114802,33.57273837460343zM138.97426535779078,7.253005206271128e-15L137.27843449227407,-76.67997893086634L120.57499762475658,-78.96587177776183zM138.97426535779078,7.253005206271128e-15L-146.3611229114802,33.57273837460343L-155.2326120811479,46.73300985852553zM138.97426535779078,7.253005206271128e-15L150.93562087490417,-72.13105710181586L137.27843449227407,-76.67997893086634zM138.97426535779078,7.253005206271128e-15L-155.2326120811479,46.73300985852553L-160.15363923238033,59.22862403287666zM138.97426535779078,7.253005206271128e-15L160.95052501531856,-65.26742950581422L150.93562087490417,-72.13105710181586zM138.97426535779078,7.253005206271128e-15L-160.15363923238033,59.22862403287666L-160.67937413278628,70.66369989183278zM138.97426535779078,7.253005206271128e-15L166.74030878068,-56.10070933253198L160.95052501531856,-65.26742950581422zM138.97426535779078,7.253005206271128e-15L-160.67937413278628,70.66369989183278L-156.4349057825747,80.6104057920696zM138.97426535779078,7.253005206271128e-15L167.77466812788634,-44.72702380543861L166.74030878068,-56.10070933253198zM138.97426535779078,7.253005206271128e-15L-156.4349057825747,80.6104057920696L-147.1620157856479,88.62474241383842zM138.97426535779078,7.253005206271128e-15L163.62750632406264,-31.34799151030236L167.77466812788634,-44.72702380543861zM138.97426535779078,7.253005206271128e-15L-147.1620157856479,88.62474241383842L-132.77309037729344,94.27160776500571zM138.97426535779078,7.253005206271128e-15L154.03799248876052,-16.287576755562498L163.62750632406264,-31.34799151030236zM138.97426535779078,7.253005206271128e-15L-132.77309037729344,94.27160776500571L-113.40599671377117,97.15909776130117zM138.97426535779078,7.253005206271128e-15L-113.40599671377117,97.15909776130117L-89.4701882938149,96.97988449716767zM138.97426535779078,7.253005206271128e-15L-89.4701882938149,96.97988449716767L-61.67243942948899,93.55471787967984zM138.97426535779078,7.253005206271128e-15L93.7542974195167,33.84359497135862L118.68907408965083,16.93646291536644zM138.97426535779078,7.253005206271128e-15L-61.67243942948899,93.55471787967984L-31.010255316467873,86.87061884848347zM138.97426535779078,7.253005206271128e-15L65.06142623369907,49.98608873849963L93.7542974195167,33.84359497135862zM138.97426535779078,7.253005206271128e-15L-31.010255316467873,86.87061884848347L1.2742535047311552,77.1051880632206zM138.97426535779078,7.253005206271128e-15L33.779953764368884,64.62952397406777L65.06142623369907,49.98608873849963zM138.97426535779078,7.253005206271128e-15L1.2742535047311552,77.1051880632206L33.779953764368884,64.62952397406777z" style="fill:rgb(82,237,172)"/></svg>