<svg viewBox="-250 -250 500 500" width="500" height="500" xmlns="http://www.w3.org/2000/svg"><path d="M-47.33207499417125,-52.962126240221714L-54.26732960584312,-49.876352037166725L-74.12170867245929,-39.53911206030629zM65.01335149789074,-89.30325672497736L-26.404046230475043,-62.27392898133131L-47.33207499417125,-52.962126240221714zM65.01335149789074,-89.30325672497736L2.158969780088828,-72.99606456409862L-26.404046230475043,-62.27392898133131zM65.01335149789074,-89.30325672497736L30.72323221503451,-81.7651406461565L2.158969780088828,-72.99606456409862z" style="fill:rgb(82,237,172)"/><path d="M11.81455177319761,-38.15355507646356L-23.769308218858402,-56.03538843348656L-12.733663193090985,-29.026339644584475z" style="fill:rgb(133,81,246)"/><path d="M-74.12170867245929,-39.53911206030629L-80.73740258099666,-36.094671678678594L-105.10448131864537,-21.245095253740335z" style="fill:rgb(82,237,172)"/><path d="M-12.733663193090985,-29.026339644584475L-47.92922669453727,-45.26693197929985L-36.61509491298002,-18.302408140162882z" style="fill:rgb(156,91,246)"/><path d="M65.01335149789074,-89.30325672497736L-47.33207499417125,-52.962126240221714L-63.426482769315726,-41.175418522919315z" style="fill:rgb(82,237,172)"/><path d="M-23.769308218858402,-56.03538843348656L-47.92922669453727,-45.26693197929985L-12.733663193090985,-29.026339644584475z" style="fill:rgb(156,91,246)"/><path d="M36.37192718897737,-45.42697149034901L1.0109935766679743,-65.32084494080766L11.81455177319761,-38.15355507646356z" style="fill:rgb(108,73,241)"/><path d="M1.0109935766679743,-65.32084494080766L-23.769308218858402,-56.03538843348656L11.81455177319761,-38.15355507646356z" style="fill:rgb(133,81,246)"/><path d="M-36.61509491298002,-18.302408140162882L-70.81546282385408,-33.293432185761446L-59.180187258791214,-6.259379645519816z" style="fill:rgb(179,102,241)"/><path d="M-23.769308218858402,-56.03538843348656L-63.426482769315726,-41.175418522919315L-73.250423175792,-33.9808871244859zM65.01335149789074,-89.30325672497736L58.562195801273724,-88.31009595658686L30.72323221503451,-81.7651406461565z" style="fill:rgb(82,237,172)"/><path d="M-47.92922669453727,-45.26693197929985L-70.81546282385408,-33.293432185761446L-36.61509491298002,-18.302408140162882z" style="fill:rgb(179,102,241)"/><path d="M-47.33207499417125,-52.962126240221714L-74.12170867245929,-39.53911206030629L-110.11729162735415,-6.981493322057331z" style="fill:rgb(82,237,172)"/><path d="M25.751208870939625,-72.86398136181927L1.0109935766679743,-65.32084494080766L36.37192718897737,-45.42697149034901z" style="fill:rgb(108,73,241)"/><path d="M25.751208870939625,-72.86398136181927L13.704306239802454,-70.07716167483548L1.0109935766679743,-65.32084494080766zM-70.81546282385408,-33.293432185761446L-47.92922669453727,-45.26693197929985L-60.30858956253034,-39.749259889220944zM-74.12170867245929,-39.53911206030629L-105.10448131864537,-21.245095253740335L-126.62610187805495,-5.682612952088757z" style="fill:rgb(82,237,172)"/><path d="M60.25912524485706,-50.606334921385645L25.751208870939625,-72.86398136181927L36.37192718897737,-45.42697149034901z" style="fill:rgb(85,67,232)"/><path d="M-60.30858956253034,-39.749259889220944L-73.250423175792,-33.9808871244859L-91.76919659114932,-20.41867527060081z" style="fill:rgb(82,237,172)"/><path d="M-70.81546282385408,-33.293432185761446L-91.76919659114932,-20.41867527060081L-59.180187258791214,-6.259379645519816zM-59.180187258791214,-6.259379645519816L-91.76919659114932,-20.41867527060081L-79.77504053732973,6.797520373108157z" style="fill:rgb(200,114,231)"/><path d="M49.76937498643463,-78.420134197094L25.751208870939625,-72.86398136181927L60.25912524485706,-50.606334921385645z" style="fill:rgb(85,67,232)"/><path d="M82.76266570738973,-53.46908517820604L49.76937498643463,-78.420134197094L60.25912524485706,-50.606334921385645z" style="fill:rgb(63,64,218)"/><path d="M-74.12170867245929,-39.53911206030629L-126.62610187805495,-5.682612952088757L-144.51871069049318,10.183654581620234zM113.53373747973414,-93.29740792062051L65.01335149789074,-89.30325672497736L13.704306239802454,-70.07716167483548z" style="fill:rgb(82,237,172)"/><path d="M-91.76919659114932,-20.41867527060081L-110.11729162735415,-6.981493322057331L-79.77504053732973,6.797520373108157zM-79.77504053732973,6.797520373108157L-110.11729162735415,-6.981493322057331L-97.73367256463297,20.52615680621013z" style="fill:rgb(217,127,217)"/><path d="M113.53373747973414,-93.29740792062051L84.89964698467239,-92.36466385961899L65.01335149789074,-89.30325672497736z" style="fill:rgb(82,237,172)"/><path d="M72.34939005838037,-81.75948025923267L49.76937498643463,-78.420134197094L82.76266570738973,-53.46908517820604z" style="fill:rgb(63,64,218)"/><path d="M113.53373747973414,-93.29740792062051L13.704306239802454,-70.07716167483548L113.20944523086166,-93.0957263828967z" style="fill:rgb(82,237,172)"/><path d="M103.12762776968196,-53.81680254726439L72.34939005838037,-81.75948025923267L82.76266570738973,-53.46908517820604z" style="fill:rgb(44,63,200)"/><path d="M-74.12170867245929,-39.53911206030629L-144.51871069049318,10.183654581620234L-157.9625651008226,25.87603949823158zM113.53373747973414,-93.29740792062051L108.89283921909761,-93.67206287491652L84.89964698467239,-92.36466385961899z" style="fill:rgb(82,237,172)"/><path d="M-110.11729162735415,-6.981493322057331L-125.17131464483619,6.634719576581442L-97.73367256463297,20.52615680621013z" style="fill:rgb(231,140,200)"/><path d="M113.20944523086166,-93.0957263828967L49.76937498643463,-78.420134197094L102.04282283198346,-86.15086889305462z" style="fill:rgb(82,237,172)"/><path d="M-97.73367256463297,20.52615680621013L-125.17131464483619,6.634719576581442L-112.37740474625438,34.537645315911064z" style="fill:rgb(231,140,200)"/><path d="M92.7331090365596,-82.67309568693602L72.34939005838037,-81.75948025923267L103.12762776968196,-53.81680254726439z" style="fill:rgb(44,63,200)"/><path d="M92.7331090365596,-82.67309568693602L103.12762776968196,-53.81680254726439L106.3520321251478,-53.38613087242202z" style="fill:rgb(29,65,180)"/><path d="M113.53373747973414,-93.29740792062051L113.20944523086166,-93.0957263828967L113.93967740115141,-93.26465985260454zM102.04282283198346,-86.15086889305462L72.34939005838037,-81.75948025923267L96.73963394032243,-82.85267877222527zM113.93967740115141,-93.26465985260454L113.20944523086166,-93.0957263828967L102.04282283198346,-86.15086889305462z" style="fill:rgb(82,237,172)"/><path d="M92.7331090365596,-82.67309568693602L106.3520321251478,-53.38613087242202L97.92667935486244,-76.85256657909135z" style="fill:rgb(29,65,180)"/><path d="M-74.12170867245929,-39.53911206030629L-157.9625651008226,25.87603949823158L-166.12536743615064,40.837873109349054z" style="fill:rgb(82,237,172)"/><path d="M95.94897412219592,-82.36094159934544L92.7331090365596,-82.67309568693602L97.92667935486244,-76.85256657909135zM106.3520321251478,-53.38613087242202L120.5427114165976,-51.506464723885884L97.92667935486244,-76.85256657909135z" style="fill:rgb(29,65,180)"/><path d="M96.73963394032243,-82.85267877222527L92.7331090365596,-82.67309568693602L95.94897412219592,-82.36094159934544zM113.93967740115141,-93.26465985260454L102.04282283198346,-86.15086889305462L124.99683132013739,-89.54555397785715z" style="fill:rgb(82,237,172)"/><path d="M-125.17131464483619,6.634719576581442L-136.2375322497117,19.99390344113747L-112.37740474625438,34.537645315911064z" style="fill:rgb(241,152,179)"/><path d="M106.3520321251478,-53.38613087242202L120.54857958442432,-51.48992957765087L120.5427114165976,-51.506464723885884zM120.5427114165976,-51.506464723885884L95.94897412219592,-82.36094159934544L97.92667935486244,-76.85256657909135z" style="fill:rgb(29,65,180)"/><path d="M113.93967740115141,-93.26465985260454L124.99683132013739,-89.54555397785715L128.98437468964994,-92.05019102655956zM102.04282283198346,-86.15086889305462L96.73963394032243,-82.85267877222527L115.693907515326,-83.70219703511388z" style="fill:rgb(82,237,172)"/><path d="M-112.37740474625438,34.537645315911064L-136.2375322497117,19.99390344113747L-123.0256670093975,48.387769660429406z" style="fill:rgb(241,152,179)"/><path d="M96.73963394032243,-82.85267877222527L95.94897412219592,-82.36094159934544L110.1114732207621,-80.9861453357607z" style="fill:rgb(82,237,172)"/><path d="M120.54857958442432,-51.48992957765087L120.55869332894301,-51.48858237395955L120.5427114165976,-51.506464723885884z" style="fill:rgb(29,65,180)"/><path d="M-74.12170867245929,-39.53911206030629L-166.12536743615064,40.837873109349054L-166.63115641570124,44.13470238009797zM-125.17131464483619,6.634719576581442L-133.0903744571387,13.797435124392612L-136.2375322497117,19.99390344113747z" style="fill:rgb(82,237,172)"/><path d="M120.5427114165976,-51.506464723885884L110.1114732207621,-80.9861453357607L95.94897412219592,-82.36094159934544z" style="fill:rgb(29,65,180)"/><path d="M102.04282283198346,-86.15086889305462L115.693907515326,-83.70219703511388L124.99683132013739,-89.54555397785715zM129.62528430847968,-91.99844496815102L128.98437468964994,-92.05019102655956L124.99683132013739,-89.54555397785715z" style="fill:rgb(82,237,172)"/><path d="M120.55869332894301,-51.48858237395955L110.1114732207621,-80.9861453357607L120.5427114165976,-51.506464723885884z" style="fill:rgb(29,65,180)"/><path d="M110.12156103231497,-80.98516694775081L120.55869332894301,-51.48858237395955L121.386810658375,-51.17929207392097z" style="fill:rgb(17,70,157)"/><path d="M96.73963394032243,-82.85267877222527L114.68528595473788,-83.06867446200789L115.693907515326,-83.70219703511388zM96.73963394032243,-82.85267877222527L110.1114732207621,-80.9861453357607L114.68528595473788,-83.06867446200789zM129.62528430847968,-91.99844496815102L124.99683132013739,-89.54555397785715L130.7927666381465,-90.40269178530218zM129.62528430847968,-91.99844496815102L130.7927666381465,-90.40269178530218L132.46568614959224,-91.1644194185533z" style="fill:rgb(82,237,172)"/><path d="M120.55869332894301,-51.48858237395955L110.12156103231497,-80.98516694775081L110.1114732207621,-80.9861453357607z" style="fill:rgb(29,65,180)"/><path d="M124.99683132013739,-89.54555397785715L116.11849923225408,-83.7212528303502L130.7927666381465,-90.40269178530218z" style="fill:rgb(82,237,172)"/><path d="M110.12156103231497,-80.98516694775081L121.386810658375,-51.17929207392097L111.5972717606249,-78.8674729594261z" style="fill:rgb(17,70,157)"/><path d="M124.99683132013739,-89.54555397785715L115.693907515326,-83.70219703511388L116.11849923225408,-83.7212528303502zM132.46568614959224,-91.1644194185533L130.7927666381465,-90.40269178530218L133.63050295389752,-90.82238852542056zM133.63050295389752,-90.82238852542056L130.7927666381465,-90.40269178530218L116.11849923225408,-83.7212528303502zM115.693907515326,-83.70219703511388L114.68528595473788,-83.06867446200789L116.11849923225408,-83.7212528303502zM116.11849923225408,-83.7212528303502L114.68528595473788,-83.06867446200789L111.20133220311521,-80.8803488558428zM114.68528595473788,-83.06867446200789L110.1114732207621,-80.9861453357607L111.20133220311521,-80.8803488558428z" style="fill:rgb(82,237,172)"/><path d="M110.94295782632678,-80.7180667769362L110.12156103231497,-80.98516694775081L111.5972717606249,-78.8674729594261z" style="fill:rgb(17,70,157)"/><path d="M111.20133220311521,-80.8803488558428L110.12156103231497,-80.98516694775081L110.94295782632678,-80.7180667769362z" style="fill:rgb(82,237,172)"/><path d="M121.386810658375,-51.17929207392097L131.30407361094612,-50.586988790312304L111.5972717606249,-78.8674729594261zM121.386810658375,-51.17929207392097L132.55606080853045,-47.00824486765054L131.30407361094612,-50.586988790312304z" style="fill:rgb(17,70,157)"/><path d="M-133.0903744571387,13.797435124392612L-141.52348772245048,21.4250831868336L-142.64197748608905,32.60371459591716z" style="fill:rgb(82,237,172)"/><path d="M131.30407361094612,-50.586988790312304L110.94295782632678,-80.7180667769362L111.5972717606249,-78.8674729594261z" style="fill:rgb(17,70,157)"/><path d="M119.31095338515786,-80.09313643556877L111.20133220311521,-80.8803488558428L110.94295782632678,-80.7180667769362z" style="fill:rgb(82,237,172)"/><path d="M-136.2375322497117,19.99390344113747L-142.64197748608905,32.60371459591716L-123.0256670093975,48.387769660429406z" style="fill:rgb(246,163,156)"/><path d="M133.63050295389752,-90.82238852542056L116.11849923225408,-83.7212528303502L138.71677958222853,-84.73411274659745zM116.11849923225408,-83.7212528303502L111.20133220311521,-80.8803488558428L126.92899946058792,-79.35364096967953z" style="fill:rgb(82,237,172)"/><path d="M-123.0256670093975,48.387769660429406L-142.64197748608905,32.60371459591716L-129.02129542737973,61.5727725499815z" style="fill:rgb(246,163,156)"/><path d="M133.63050295389752,-90.82238852542056L141.44716390878887,-85.98038357820015L141.92825667410983,-88.38591295770621zM119.31095338515786,-80.09313643556877L110.94295782632678,-80.7180667769362L122.0238210907673,-77.11471426818217z" style="fill:rgb(82,237,172)"/><path d="M131.30407361094612,-50.586988790312304L122.0238210907673,-77.11471426818217L110.94295782632678,-80.7180667769362zM132.55606080853045,-47.00824486765054L134.2347292352166,-46.38136182499434L131.30407361094612,-50.586988790312304z" style="fill:rgb(17,70,157)"/><path d="M133.63050295389752,-90.82238852542056L138.71677958222853,-84.73411274659745L141.44716390878887,-85.98038357820015zM116.11849923225408,-83.7212528303502L126.92899946058792,-79.35364096967953L138.71677958222853,-84.73411274659745zM48.9938989709473,-53.15820861019959L64.20567104411514,-51.361557152786L57.12502117479155,-56.860462488373095zM48.9938989709473,-53.15820861019959L45.471340509057896,-50.967425673801465L60.2287293100538,-48.90871350929367z" style="fill:rgb(82,237,172)"/><path d="M134.2347292352166,-46.38136182499434L122.0238210907673,-77.11471426818217L131.30407361094612,-50.586988790312304z" style="fill:rgb(17,70,157)"/><path d="M-129.12545700006473,63.22692048685492L-129.02129542737973,61.5727725499815L-131.04088573554844,59.15614280780844z" style="fill:rgb(246,173,133)"/><path d="M144.84251697429278,-87.5301630885666L141.92825667410983,-88.38591295770621L141.44716390878887,-85.98038357820015zM126.92899946058792,-79.35364096967953L119.31095338515786,-80.09313643556877L122.65655438145902,-77.40353209078816zM119.31095338515786,-80.09313643556877L122.0238210907673,-77.11471426818217L122.65655438145902,-77.40353209078816zM-166.63115641570124,44.13470238009797L-142.7985233176304,34.16835410365789L-141.52348772245048,21.4250831868336z" style="fill:rgb(82,237,172)"/><path d="M134.2347292352166,-46.38136182499434L123.68964854183513,-76.57300486512986L122.0238210907673,-77.11471426818217z" style="fill:rgb(17,70,157)"/><path d="M138.71677958222853,-84.73411274659745L141.2203373918616,-84.84632624718273L141.44716390878887,-85.98038357820015z" style="fill:rgb(82,237,172)"/><path d="M71.81155729779961,-19.024535596895156L75.9882491484044,-20.94863844121018L64.72277674069932,-50.959956873590066z" style="fill:rgb(158,91,245)"/><path d="M48.9938989709473,-53.15820861019959L60.49155021042917,-49.02866787861184L64.20567104411514,-51.361557152786z" style="fill:rgb(82,237,172)"/><path d="M-129.02129542737973,61.5727725499815L-142.7985233176304,34.16835410365789L-131.04088573554844,59.15614280780844z" style="fill:rgb(246,173,133)"/><path d="M71.81155729779961,-19.024535596895156L60.451432492172096,-48.31864517591668L71.55212346133848,-18.90499594621186z" style="fill:rgb(158,91,245)"/><path d="M48.9938989709473,-53.15820861019959L60.2287293100538,-48.90871350929367L60.49155021042917,-49.02866787861184zM129.1291479259257,-79.14008506789736L126.92899946058792,-79.35364096967953L122.65655438145902,-77.40353209078816zM122.65655438145902,-77.40353209078816L122.0238210907673,-77.11471426818217L123.68964854183513,-76.57300486512986z" style="fill:rgb(82,237,172)"/><path d="M-129.02129542737973,61.5727725499815L-142.64197748608905,32.60371459591716L-142.7985233176304,34.16835410365789z" style="fill:rgb(246,173,133)"/><path d="M71.81155729779961,-19.024535596895156L64.72277674069932,-50.959956873590066L60.70117514123962,-48.473095244731795zM71.81155729779961,-19.024535596895156L60.70117514123962,-48.473095244731795L60.451432492172096,-48.31864517591668z" style="fill:rgb(158,91,245)"/><path d="M143.34160476998363,-38.47807467440049L123.68964854183513,-76.57300486512986L134.2347292352166,-46.38136182499434z" style="fill:rgb(10,77,134)"/><path d="M138.71677958222853,-84.73411274659745L126.92899946058792,-79.35364096967953L139.8705917452643,-78.0973662635731zM138.71677958222853,-84.73411274659745L139.8705917452643,-78.0973662635731L141.2203373918616,-84.84632624718273zM64.20567104411514,-51.361557152786L60.49155021042917,-49.02866787861184L64.72277674069932,-50.959956873590066z" style="fill:rgb(82,237,172)"/><path d="M60.70117514123962,-48.473095244731795L64.72277674069932,-50.959956873590066L60.49155021042917,-49.02866787861184zM60.70117514123962,-48.473095244731795L60.2287293100538,-48.90871350929367L60.451432492172096,-48.31864517591668zM60.70117514123962,-48.473095244731795L60.49155021042917,-49.02866787861184L60.2287293100538,-48.90871350929367z" style="fill:rgb(158,91,245)"/><path d="M-166.63115641570124,44.13470238009797L-166.77709557874786,45.08622451603422L-142.7985233176304,34.16835410365789zM129.1291479259257,-79.14008506789736L122.65655438145902,-77.40353209078816L132.61926499952392,-69.39427724254932zM48.9938989709473,-53.15820861019959L-175.20938490729955,48.925595119294265L-172.88843170173377,57.49624714229856z" style="fill:rgb(82,237,172)"/><path d="M-3.8508536870612673,-8.555138283626489L-129.65119918763378,73.78521716924031L4.5314040967555025,11.97005455947631z" style="fill:rgb(158,91,245)"/><path d="M48.9938989709473,-53.15820861019959L-172.88843170173377,57.49624714229856L-7.673395769840802,-17.91516432742246z" style="fill:rgb(82,237,172)"/><path d="M-7.673395769840802,-17.91516432742246L-131.31470689959824,70.26646302036792L-3.8508536870612673,-8.555138283626489z" style="fill:rgb(158,91,245)"/><path d="M132.61926499952392,-69.39427724254932L123.68964854183513,-76.57300486512986L143.34160476998363,-38.47807467440049z" style="fill:rgb(10,77,134)"/><path d="M-3.8508536870612673,-8.555138283626489L-131.31470689959824,70.26646302036792L-129.65119918763378,73.78521716924031z" style="fill:rgb(158,91,245)"/><path d="M60.287529542165515,-48.90050287690447L45.471340509057896,-50.967425673801465L-104.20062302954003,42.117936390040015z" style="fill:rgb(82,237,172)"/><path d="M-7.673395769840802,-17.91516432742246L-143.65909291289955,44.15473265180245L-131.31470689959824,70.26646302036792zM-158.48630932530935,87.06896665236948L-153.55799071618722,84.79858807386542L-153.8477658089309,84.20055553725811z" style="fill:rgb(158,91,245)"/><path d="M136.1553167120374,-59.520316489297485L139.8705917452643,-78.0973662635731L129.1291479259257,-79.14008506789736z" style="fill:rgb(82,237,172)"/><path d="M71.61111162598183,-18.8945302708165L60.287529542165515,-48.90050287690447L-77.3506457389395,77.72289772239412z" style="fill:rgb(196,112,233)"/><path d="M-172.88843170173377,57.49624714229856L-158.48630932530935,87.06896665236948L-153.8477658089309,84.20055553725811z" style="fill:rgb(158,91,245)"/><path d="M160.77686940197034,-56.909283465696106L144.84251697429278,-87.5301630885666L141.44716390878887,-85.98038357820015zM160.77686940197034,-56.909283465696106L146.11533201016323,-87.15642181473237L144.84251697429278,-87.5301630885666z" style="fill:rgb(82,237,172)"/><path d="M-172.88843170173377,57.49624714229856L-153.8477658089309,84.20055553725811L-167.89257354555735,55.21595006360043z" style="fill:rgb(158,91,245)"/><path d="M147.12728440736288,-27.880431444697354L132.61926499952392,-69.39427724254932L143.34160476998363,-38.47807467440049z" style="fill:rgb(8,85,109)"/><path d="M160.77686940197034,-56.909283465696106L157.34874981113745,-79.0397365593739L146.11533201016323,-87.15642181473237zM-163.53667093790773,65.9523158780504L-143.80435075807276,44.221019402210615L-167.89257354555735,55.21595006360043z" style="fill:rgb(82,237,172)"/><path d="M136.1553167120374,-59.520316489297485L132.61926499952392,-69.39427724254932L147.12728440736288,-27.880431444697354z" style="fill:rgb(8,85,109)"/><path d="M-146.20796964266538,68.24352798973842L-143.65909291289955,44.15473265180245L-143.80435075807276,44.221019402210615zM60.287529542165515,-48.90050287690447L-104.20062302954003,42.117936390040015L-91.50137373516054,46.440720455902735z" style="fill:rgb(82,237,172)"/><path d="M-77.3506457389395,77.72289772239412L60.287529542165515,-48.90050287690447L-91.50137373516054,46.440720455902735z" style="fill:rgb(196,112,233)"/><path d="M160.77686940197034,-56.909283465696106L162.34211901775328,-67.66836857749564L157.34874981113745,-79.0397365593739zM-163.53667093790773,65.9523158780504L-146.20796964266538,68.24352798973842L-143.80435075807276,44.221019402210615z" style="fill:rgb(82,237,172)"/><path d="M162.34211901775328,-67.66836857749564L171.76732059494668,-24.362615980376642L173.06020081682522,-35.74048590946766z" style="fill:rgb(244,158,168)"/><path d="M-146.20796964266538,68.24352798973842L-135.21259649210504,61.40515877743987L-143.65909291289955,44.15473265180245zM160.77686940197034,-56.909283465696106L141.44716390878887,-85.98038357820015L130.96452705845905,-33.56561859650327z" style="fill:rgb(82,237,172)"/><path d="M-163.53667093790773,65.9523158780504L-148.8249762310647,96.29191649328297L-150.9207328724315,80.21206866299377z" style="fill:rgb(22,67,169)"/><path d="M-90.2007447954639,72.77632984109455L-91.50137373516054,46.440720455902735L-104.20062302954003,42.117936390040015z" style="fill:rgb(29,65,181)"/><path d="M-136.6916726477835,58.38442682634834L-130.9366043377719,58.74580907425681L-139.1512499578816,53.361159698639305z" style="fill:rgb(82,237,172)"/><path d="M-148.8249762310647,96.29191649328297L-139.7210800238415,103.4193720321784L-150.9207328724315,80.21206866299377z" style="fill:rgb(22,67,169)"/><path d="M162.34211901775328,-67.66836857749564L169.06341346847188,-32.36986462508305L171.76732059494668,-24.362615980376642z" style="fill:rgb(244,158,168)"/><path d="M-77.3506457389395,77.72289772239412L-91.50137373516054,46.440720455902735L-90.2007447954639,72.77632984109455z" style="fill:rgb(29,65,181)"/><path d="M169.06341346847188,-32.36986462508305L162.34211901775328,-67.66836857749564L160.77686940197034,-56.909283465696106z" style="fill:rgb(244,158,168)"/><path d="M-136.6916726477835,58.38442682634834L-132.11503522217535,59.478694869130486L-130.9366043377719,58.74580907425681zM-132.11503522217535,59.478694869130486L-136.6916726477835,58.38442682634834L-135.21259649210504,61.40515877743987z" style="fill:rgb(82,237,172)"/><path d="M169.06341346847188,-32.36986462508305L171.3266066636782,-20.48419347252014L171.76732059494668,-24.362615980376642z" style="fill:rgb(244,158,168)"/><path d="M-163.53667093790773,65.9523158780504L-150.9207328724315,80.21206866299377L-154.6682353474141,72.44672086893641zM-150.9207328724315,80.21206866299377L-139.7210800238415,103.4193720321784L-138.91896243995805,104.04735533977764z" style="fill:rgb(22,67,169)"/><path d="M-163.53667093790773,65.9523158780504L-153.88661759739378,73.01910836699903L-146.20796964266538,68.24352798973842zM-132.11503522217535,59.478694869130486L-128.49984864652754,60.34309231720483L-130.9366043377719,58.74580907425681z" style="fill:rgb(82,237,172)"/><path d="M-150.9207328724315,80.21206866299377L-138.91896243995805,104.04735533977764L-151.10729049677988,78.78069641882153z" style="fill:rgb(22,67,169)"/><path d="M169.06341346847188,-32.36986462508305L160.24311703697376,-53.24030730240088L171.3266066636782,-20.48419347252014z" style="fill:rgb(244,158,168)"/><path d="M-138.91896243995805,104.04735533977764L-136.61793410445438,105.84879088402232L-151.6442200454493,74.66122394769963z" style="fill:rgb(22,67,169)"/><path d="M169.06341346847188,-32.36986462508305L160.77686940197034,-56.909283465696106L160.24311703697376,-53.24030730240088z" style="fill:rgb(244,158,168)"/><path d="M-154.6682353474141,72.44672086893641L-150.9207328724315,80.21206866299377L-151.10729049677988,78.78069641882153zM-138.91896243995805,104.04735533977764L-151.6442200454493,74.66122394769963L-151.10729049677988,78.78069641882153zM-154.6682353474141,72.44672086893641L-151.10729049677988,78.78069641882153L-153.88661759739378,73.01910836699903z" style="fill:rgb(22,67,169)"/><path d="M-127.95274940310331,69.33647990956811L-132.11503522217535,59.478694869130486L-135.21259649210504,61.40515877743987z" style="fill:rgb(82,237,172)"/><path d="M-135.6099144993429,99.59258396729052L-136.61793410445438,105.84879088402232L-131.9018544674134,107.31509777350405z" style="fill:rgb(36,64,191)"/><path d="M-146.20796964266538,68.24352798973842L-131.14701117209975,69.70834599202071L-135.21259649210504,61.40515877743987z" style="fill:rgb(82,237,172)"/><path d="M-135.6099144993429,99.59258396729052L-151.6442200454493,74.66122394769963L-136.61793410445438,105.84879088402232z" style="fill:rgb(36,64,191)"/><path d="M-151.10729049677988,78.78069641882153L-151.6442200454493,74.66122394769963L-153.88661759739378,73.01910836699903z" style="fill:rgb(22,67,169)"/><path d="M-153.88661759739378,73.01910836699903L-146.9761613173471,75.92088227436712L-146.20796964266538,68.24352798973842zM-146.20796964266538,68.24352798973842L-146.53376676378957,71.49968101431703L-131.14701117209975,69.70834599202071zM-127.95274940310331,69.33647990956811L-117.73323267620243,62.91744497928445L-132.11503522217535,59.478694869130486z" style="fill:rgb(82,237,172)"/><path d="M171.3266066636782,-20.48419347252014L160.24311703697376,-53.24030730240088L162.0016939790921,-2.678937684034927z" style="fill:rgb(236,146,190)"/><path d="M-153.88661759739378,73.01910836699903L-151.6442200454493,74.66122394769963L-146.9761613173471,75.92088227436712zM-127.95274940310331,69.33647990956811L-135.21259649210504,61.40515877743987L-131.14701117209975,69.70834599202071z" style="fill:rgb(82,237,172)"/><path d="M-134.31079646281256,91.52969577118922L-135.6099144993429,99.59258396729052L-131.9018544674134,107.31509777350405zM-135.6099144993429,99.59258396729052L-146.9761613173471,75.92088227436712L-151.6442200454493,74.66122394769963zM-134.31079646281256,91.52969577118922L-131.9018544674134,107.31509777350405L-125.86755305059388,109.19122637544262z" style="fill:rgb(36,64,191)"/><path d="M-146.9761613173471,75.92088227436712L-127.95274940310331,69.33647990956811L-146.53376676378957,71.49968101431703z" style="fill:rgb(82,237,172)"/><path d="M-146.9761613173471,75.92088227436712L-135.6099144993429,99.59258396729052L-134.31079646281256,91.52969577118922z" style="fill:rgb(36,64,191)"/><path d="M150.46469610090037,-36.18030696029731L160.24311703697376,-53.24030730240088L160.77686940197034,-56.909283465696106zM120.15123506205943,-25.09859004870674L130.96452705845905,-33.56561859650327L133.6855125770166,-47.17090678294274z" style="fill:rgb(82,237,172)"/><path d="M-117.20988493087002,111.8829462234334L-134.31079646281256,91.52969577118922L-125.86755305059388,109.19122637544262z" style="fill:rgb(36,64,191)"/><path d="M-146.9761613173471,75.92088227436712L-141.00204173825838,77.53296614086646L-127.95274940310331,69.33647990956811z" style="fill:rgb(82,237,172)"/><path d="M-146.9761613173471,75.92088227436712L-134.31079646281256,91.52969577118922L-141.00204173825838,77.53296614086646z" style="fill:rgb(36,64,191)"/><path d="M-127.95274940310331,69.33647990956811L-103.02454624210637,66.43433713141991L-117.73323267620243,62.91744497928445z" style="fill:rgb(82,237,172)"/><path d="M162.0016939790921,-2.678937684034927L160.24311703697376,-53.24030730240088L150.46469610090037,-36.18030696029731z" style="fill:rgb(236,146,190)"/><path d="M-117.20988493087002,111.8829462234334L-132.42837863011673,79.84656690298885L-134.31079646281256,91.52969577118922zM-134.31079646281256,91.52969577118922L-132.42837863011673,79.84656690298885L-141.00204173825838,77.53296614086646z" style="fill:rgb(36,64,191)"/><path d="M109.59394737792424,-16.832067173199608L120.15123506205943,-25.09859004870674L124.83944964649118,-32.74433720696962zM-111.84813082833186,64.32457313996835L-103.02454624210637,66.43433713141991L-89.61064771138763,64.8726407507628z" style="fill:rgb(82,237,172)"/><path d="M162.0016939790921,-2.678937684034927L150.46469610090037,-36.18030696029731L144.90849808762317,16.94387848312246z" style="fill:rgb(225,133,209)"/><path d="M-117.20988493087002,111.8829462234334L-106.26963424012648,80.9086778247113L-132.42837863011673,79.84656690298885z" style="fill:rgb(54,63,210)"/><path d="M-141.00204173825838,77.53296614086646L-132.42837863011673,79.84656690298885L-106.26963424012648,80.9086778247113z" style="fill:rgb(82,237,172)"/><path d="M-91.00804404574188,113.75409141039303L-106.26963424012648,80.9086778247113L-117.20988493087002,111.8829462234334z" style="fill:rgb(54,63,210)"/><path d="M150.46469610090037,-36.18030696029731L160.77686940197034,-56.909283465696106L30.416163916347642,45.165687784815596z" style="fill:rgb(82,237,172)"/><path d="M144.90849808762317,16.94387848312246L150.46469610090037,-36.18030696029731L132.83870265694864,-17.172019263407233z" style="fill:rgb(225,133,209)"/><path d="M-141.00204173825838,77.53296614086646L10.905451042608101,53.17049053854551L-127.95274940310331,69.33647990956811zM-141.00204173825838,77.53296614086646L-106.26963424012648,80.9086778247113L-74.13214789574373,77.46196790362225z" style="fill:rgb(82,237,172)"/><path d="M144.90849808762317,16.94387848312246L132.83870265694864,-17.172019263407233L120.42025277656069,37.40049518431118z" style="fill:rgb(209,121,225)"/><path d="M150.46469610090037,-36.18030696029731L107.75842338985876,2.8441947063273494L132.83870265694864,-17.172019263407233z" style="fill:rgb(82,237,172)"/><path d="M-91.00804404574188,113.75409141039303L-74.13214789574373,77.46196790362225L-106.26963424012648,80.9086778247113z" style="fill:rgb(74,65,225)"/><path d="M62.04374450856638,16.21674771386122L77.23555052538815,8.505197910134452L88.36301053180787,-0.20778080628085874z" style="fill:rgb(82,237,172)"/><path d="M-58.99195612690224,111.03156915318117L-74.13214789574373,77.46196790362225L-91.00804404574188,113.75409141039303z" style="fill:rgb(74,65,225)"/><path d="M-141.00204173825838,77.53296614086646L-74.13214789574373,77.46196790362225L-37.58643447958205,69.4320376184399z" style="fill:rgb(82,237,172)"/><path d="M120.42025277656069,37.40049518431118L132.83870265694864,-17.172019263407233L107.75842338985876,2.8441947063273494z" style="fill:rgb(209,121,225)"/><path d="M-62.64303192376662,61.73309028243925L-33.50891921872824,58.34125411652403L-16.437979907566763,51.338372591851545zM150.46469610090037,-36.18030696029731L76.26630531703046,22.722397298988778L107.75842338985876,2.8441947063273494zM-32.24138475767193,54.89362308106067L-16.437979907566763,51.338372591851545L-0.06827443181131362,44.6231063347692zM-141.00204173825838,77.53296614086646L-37.58643447958205,69.4320376184399L1.2759992925890273,57.12126705859885z" style="fill:rgb(82,237,172)"/><path d="M120.42025277656069,37.40049518431118L107.75842338985876,2.8441947063273494L89.54725954691189,57.51217975386482z" style="fill:rgb(190,108,236)"/><path d="M-141.00204173825838,77.53296614086646L1.2759992925890273,57.12126705859885L10.905451042608101,53.17049053854551zM150.46469610090037,-36.18030696029731L40.043294623203955,41.215876804869325L76.26630531703046,22.722397298988778zM31.994469884642328,31.470188712795764L-33.50891921872824,58.34125411652403L-17.201472569430972,56.44274026572512zM150.46469610090037,-36.18030696029731L30.416163916347642,45.165687784815596L40.043294623203955,41.215876804869325z" style="fill:rgb(82,237,172)"/><path d="M-58.99195612690224,111.03156915318117L-37.58643447958205,69.4320376184399L-74.13214789574373,77.46196790362225zM-22.731640119591074,103.59513935336263L-37.58643447958205,69.4320376184399L-58.99195612690224,111.03156915318117z" style="fill:rgb(97,70,237)"/><path d="M-17.201472569430972,56.44274026572512L30.416163916347642,45.165687784815596L77.23555052538815,8.505197910134452z" style="fill:rgb(82,237,172)"/><path d="M89.54725954691189,57.51217975386482L107.75842338985876,2.8441947063273494L76.26630531703046,22.722397298988778z" style="fill:rgb(190,108,236)"/><path d="M89.54725954691189,57.51217975386482L76.26630531703046,22.722397298988778L53.92787006451928,76.01462422782498z" style="fill:rgb(168,96,244)"/><path d="M21.68379203926165,79.29515526598477L25.19584369765575,87.80769585144007L44.43483427391115,79.91104551607839zM21.68379203926165,79.29515526598477L15.700472399926266,91.70505789153519L25.19584369765575,87.80769585144007z" style="fill:rgb(145,85,246)"/><path d="M15.700472399926266,91.70505789153519L1.2759992925890273,57.12126705859885L-22.731640119591074,103.59513935336263zM-22.731640119591074,103.59513935336263L1.2759992925890273,57.12126705859885L-37.58643447958205,69.4320376184399z" style="fill:rgb(120,77,244)"/><path d="M40.043294623203955,41.215876804869325L44.43483427391115,79.91104551607839L53.92787006451928,76.01462422782498zM21.68379203926165,79.29515526598477L44.43483427391115,79.91104551607839L33.934526852158804,53.88597919310546zM10.905451042608101,53.17049053854551L15.700472399926266,91.70505789153519L21.68379203926165,79.29515526598477z" style="fill:rgb(145,85,246)"/><path d="M53.92787006451928,76.01462422782498L76.26630531703046,22.722397298988778L40.043294623203955,41.215876804869325z" style="fill:rgb(168,96,244)"/><path d="M40.043294623203955,41.215876804869325L33.934526852158804,53.88597919310546L44.43483427391115,79.91104551607839z" style="fill:rgb(145,85,246)"/><path d="M-17.201472569430972,56.44274026572512L10.905451042608101,53.17049053854551L30.416163916347642,45.165687784815596z" style="fill:rgb(82,237,172)"/><path d="M30.416163916347642,45.165687784815596L21.68379203926165,79.29515526598477L33.934526852158804,53.88597919310546zM10.905451042608101,53.17049053854551L1.2759992925890273,57.12126705859885L15.700472399926266,91.70505789153519zM30.416163916347642,45.165687784815596L10.905451042608101,53.17049053854551L21.68379203926165,79.29515526598477zM33.934526852158804,53.88597919310546L40.043294623203955,41.215876804869325L30.416163916347642,45.165687784815596z" style="fill:rgb(145,85,246)"/></svg>