<svg viewBox="-250 -250 500 500" width="500" height="500" xmlns="http://www.w3.org/2000/svg"><path d="M-26.404044097314387,-62.273923950273044L-47.929224360344044,-45.26692977476259L2.1589999357610923,-72.996058651085zM2.1589999357610923,-72.996058651085L1.0109935274418789,-65.32084176028287L30.723229018528713,-81.76513213914966z" style="fill:rgb(82,237,172)"/><path d="M-12.733662153857464,-29.026337275655383L-23.76930625866189,-56.0353838123856L-36.615093148316404,-18.302407258078762z" style="fill:rgb(156,91,246)"/><path d="M11.814550806769006,-38.15355195550834L1.0109935274418789,-65.32084176028287L-12.733662153857464,-29.026337275655383z" style="fill:rgb(133,81,246)"/><path d="M-54.26732520889899,-49.876347995996184L-91.76918885773618,-20.41867354991394L-26.404044097314387,-62.273923950273044zM2.1589999357610923,-72.996058651085L-23.76930625866189,-56.0353838123856L1.0109935274418789,-65.32084176028287zM2.1589999357610923,-72.996058651085L-47.929224360344044,-45.26692977476259L-23.76930625866189,-56.0353838123856z" style="fill:rgb(82,237,172)"/><path d="M-12.733662153857464,-29.026337275655383L1.0109935274418789,-65.32084176028287L-23.76930625866189,-56.0353838123856z" style="fill:rgb(133,81,246)"/><path d="M-26.404044097314387,-62.273923950273044L-70.81545692642494,-33.293429413123256L-47.929224360344044,-45.26692977476259z" style="fill:rgb(82,237,172)"/><path d="M-36.615093148316404,-18.302407258078762L-47.929224360344044,-45.26692977476259L-59.18018238189621,-6.259379129699594z" style="fill:rgb(179,102,241)"/><path d="M-36.615093148316404,-18.302407258078762L-23.76930625866189,-56.0353838123856L-47.929224360344044,-45.26692977476259z" style="fill:rgb(156,91,246)"/><path d="M36.3719241928598,-45.42696774832714L25.751206727279843,-72.863975296256L11.814550806769006,-38.15355195550834z" style="fill:rgb(108,73,241)"/><path d="M30.723229018528713,-81.76513213914966L1.0109935274418789,-65.32084176028287L25.751206727279843,-72.863975296256zM30.723229018528713,-81.76513213914966L25.751206727279843,-72.863975296256L58.56218896182441,-88.3101210637205z" style="fill:rgb(82,237,172)"/><path d="M11.814550806769006,-38.15355195550834L25.751206727279843,-72.863975296256L1.0109935274418789,-65.32084176028287z" style="fill:rgb(108,73,241)"/><path d="M-26.404044097314387,-62.273923950273044L-91.76918885773618,-20.41867354991394L-70.81545692642494,-33.293429413123256z" style="fill:rgb(82,237,172)"/><path d="M-59.18018238189621,-6.259379129699594L-47.929224360344044,-45.26692977476259L-70.81545692642494,-33.293429413123256z" style="fill:rgb(179,102,241)"/><path d="M-59.18018238189621,-6.259379129699594L-70.81545692642494,-33.293429413123256L-79.77506544076462,6.797519961613332z" style="fill:rgb(200,114,231)"/><path d="M36.3719241928598,-45.42696774832714L49.76940383105441,-78.42012759254261L25.751206727279843,-72.863975296256zM60.25912022351662,-50.60633070440382L49.76940383105441,-78.42012759254261L36.3719241928598,-45.42696774832714z" style="fill:rgb(85,67,232)"/><path d="M58.56218896182441,-88.3101210637205L25.751206727279843,-72.863975296256L49.76940383105441,-78.42012759254261zM-105.10447261269982,-21.245093493980523L-144.51869821116205,10.183653702251759L-80.7373668476508,-36.09466872950809z" style="fill:rgb(82,237,172)"/><path d="M-79.77506544076462,6.797519961613332L-70.81545692642494,-33.293429413123256L-91.76918885773618,-20.41867354991394z" style="fill:rgb(200,114,231)"/><path d="M-91.76918885773618,-20.41867354991394L-54.26732520889899,-49.876347995996184L-110.11725453830816,-6.981492519462371zM58.56218896182441,-88.3101210637205L49.76940383105441,-78.42012759254261L84.89963737542898,-92.36465340545848zM-80.7373668476508,-36.09466872950809L-157.96255636823977,25.876038067736594L-54.26732520889899,-49.876347995996184z" style="fill:rgb(82,237,172)"/><path d="M-79.77506544076462,6.797519961613332L-91.76918885773618,-20.41867354991394L-97.73366428523839,20.526155067360587z" style="fill:rgb(217,127,217)"/><path d="M60.25912022351662,-50.60633070440382L72.34938598756202,-81.75947565894522L49.76940383105441,-78.42012759254261zM82.76265870156737,-53.46908065207209L72.34938598756202,-81.75947565894522L60.25912022351662,-50.60633070440382z" style="fill:rgb(63,64,218)"/><path d="M-144.51869821116205,10.183653702251759L-105.10447261269982,-21.245093493980523L-126.62612730316513,-5.682612472553987zM84.89963737542898,-92.36465340545848L49.76940383105441,-78.42012759254261L72.34938598756202,-81.75947565894522z" style="fill:rgb(82,237,172)"/><path d="M-97.73366428523839,20.526155067360587L-91.76918885773618,-20.41867354991394L-110.11725453830816,-6.981492519462371z" style="fill:rgb(217,127,217)"/><path d="M-54.26732520889899,-49.876347995996184L-157.96255636823977,25.876038067736594L-110.11725453830816,-6.981492519462371zM84.89963737542898,-92.36465340545848L72.34938598756202,-81.75947565894522L108.89286673808488,-93.67205479485965z" style="fill:rgb(82,237,172)"/><path d="M-97.73366428523839,20.526155067360587L-110.11725453830816,-6.981492519462371L-112.3773950378516,34.53764233216739z" style="fill:rgb(231,140,200)"/><path d="M-80.7373668476508,-36.09466872950809L-144.51869821116205,10.183653702251759L-157.96255636823977,25.876038067736594z" style="fill:rgb(82,237,172)"/><path d="M82.76265870156737,-53.46908065207209L92.73307314926886,-82.67309143697169L72.34938598756202,-81.75947565894522zM103.12761886844963,-53.81679790218651L92.73307314926886,-82.67309143697169L82.76265870156737,-53.46908065207209z" style="fill:rgb(44,63,200)"/><path d="M108.89286673808488,-93.67205479485965L72.34938598756202,-81.75947565894522L92.73307314926886,-82.67309143697169z" style="fill:rgb(82,237,172)"/><path d="M-112.3773950378516,34.53764233216739L-110.11725453830816,-6.981492519462371L-125.17130371123669,6.634718997044775z" style="fill:rgb(231,140,200)"/><path d="M-112.3773950378516,34.53764233216739L-125.17130371123669,6.634718997044775L-123.02561831946403,48.38776538415318z" style="fill:rgb(241,152,179)"/><path d="M108.89286673808488,-93.67205479485965L92.73307314926886,-82.67309143697169L110.12155120007048,-80.98515971696007z" style="fill:rgb(82,237,172)"/><path d="M103.12761886844963,-53.81679790218651L110.12155120007048,-80.98515971696007L92.73307314926886,-82.67309143697169zM120.55868268546153,-51.48857782830833L110.12155120007048,-80.98515971696007L103.12761886844963,-53.81679790218651z" style="fill:rgb(29,65,180)"/><path d="M108.89286673808488,-93.67205479485965L110.12155120007048,-80.98515971696007L129.6252685000589,-91.9984337485025zM-110.11725453830816,-6.981492519462371L-166.12534680140277,40.83783219946718L-125.17130371123669,6.634718997044775z" style="fill:rgb(82,237,172)"/><path d="M-123.02561831946403,48.38776538415318L-125.17130371123669,6.634718997044775L-136.23748182644394,19.993901654123572z" style="fill:rgb(241,152,179)"/><path d="M-110.11725453830816,-6.981492519462371L-157.96255636823977,25.876038067736594L-166.12534680140277,40.83783219946718zM-125.17130371123669,6.634718997044775L-166.12534680140277,40.83783219946718L-136.23748182644394,19.993901654123572z" style="fill:rgb(82,237,172)"/><path d="M-123.02561831946403,48.38776538415318L-136.23748182644394,19.993901654123572L-129.0212837358648,61.5727669704453z" style="fill:rgb(246,163,156)"/><path d="M120.55868268546153,-51.48857782830833L123.6896372157077,-76.57299785342258L110.12155120007048,-80.98515971696007z" style="fill:rgb(17,70,157)"/><path d="M129.6252685000589,-91.9984337485025L110.12155120007048,-80.98515971696007L123.6896372157077,-76.57299785342258z" style="fill:rgb(82,237,172)"/><path d="M134.23471708473883,-46.38135762670893L123.6896372157077,-76.57299785342258L120.55868268546153,-51.48857782830833z" style="fill:rgb(17,70,157)"/><path d="M129.6252685000589,-91.9984337485025L123.6896372157077,-76.57299785342258L146.11532347213267,-87.1564167218774z" style="fill:rgb(82,237,172)"/><path d="M-129.0212837358648,61.5727669704453L-136.23748182644394,19.993901654123572L-142.6419644098773,32.60371160708397z" style="fill:rgb(246,163,156)"/><path d="M-136.23748182644394,19.993901654123572L-166.12534680140277,40.83783219946718L-168.2107268101123,54.431657829184324zM-136.23748182644394,19.993901654123572L-168.2107268101123,54.431657829184324L-142.6419644098773,32.60371160708397z" style="fill:rgb(82,237,172)"/><path d="M-129.0212837358648,61.5727669704453L-142.6419644098773,32.60371160708397L-129.7744167715096,73.53279844791852z" style="fill:rgb(246,173,133)"/><path d="M134.23471708473883,-46.38135762670893L132.61922569492032,-69.39427071582546L123.6896372157077,-76.57299785342258z" style="fill:rgb(10,77,134)"/><path d="M146.11532347213267,-87.1564167218774L123.6896372157077,-76.57299785342258L132.61922569492032,-69.39427071582546z" style="fill:rgb(82,237,172)"/><path d="M143.34159144738743,-38.47807109813348L132.61922569492032,-69.39427071582546L134.23471708473883,-46.38135762670893z" style="fill:rgb(10,77,134)"/><path d="M-129.7744167715096,73.53279844791852L-142.6419644098773,32.60371160708397L-143.77420041469722,43.919655485096996z" style="fill:rgb(246,173,133)"/><path d="M146.11532347213267,-87.1564167218774L132.61922569492032,-69.39427071582546L157.34874032296082,-79.03973179325418zM-142.6419644098773,32.60371160708397L-168.2107268101123,54.431657829184324L-143.77420041469722,43.919655485096996z" style="fill:rgb(82,237,172)"/><path d="M143.34159144738743,-38.47807109813348L136.15530850970472,-59.52031290364657L132.61922569492032,-69.39427071582546z" style="fill:rgb(8,85,109)"/><path d="M157.34874032296082,-79.03973179325418L132.61922569492032,-69.39427071582546L136.15530850970472,-59.52031290364657z" style="fill:rgb(82,237,172)"/><path d="M147.1272975979694,-27.880428782721385L136.15530850970472,-59.52031290364657L143.34159144738743,-38.47807109813348z" style="fill:rgb(8,85,109)"/><path d="M-143.77420041469722,43.919655485096996L-168.2107268101123,54.431657829184324L-163.5366550148868,65.95230945649308zM157.34874032296082,-79.03973179325418L136.15530850970472,-59.52031290364657L162.34210323269417,-67.66836199787721zM-143.77420041469722,43.919655485096996L-163.5366550148868,65.95230945649308L-139.15123649335408,53.36115453531664z" style="fill:rgb(82,237,172)"/><path d="M173.06018419479827,-35.740482476677684L162.34210323269417,-67.66836199787721L171.3265896877501,-20.484191442840086z" style="fill:rgb(244,158,168)"/><path d="M162.34210323269417,-67.66836199787721L136.15530850970472,-59.52031290364657L133.6854993084228,-47.170902101122024z" style="fill:rgb(82,237,172)"/><path d="M-148.82498935502977,96.29190723213856L-151.64420480835562,74.66121644579775L-163.5366550148868,65.95230945649308z" style="fill:rgb(22,67,169)"/><path d="M-139.15123649335408,53.36115453531664L-163.5366550148868,65.95230945649308L-151.64420480835562,74.66121644579775z" style="fill:rgb(82,237,172)"/><path d="M-136.61796300562045,105.84882283790655L-151.64420480835562,74.66121644579775L-148.82498935502977,96.29190723213856z" style="fill:rgb(22,67,169)"/><path d="M-139.15123649335408,53.36115453531664L-151.64420480835562,74.66121644579775L-128.49983587854945,60.343086321405686z" style="fill:rgb(82,237,172)"/><path d="M171.3265896877501,-20.484191442840086L162.34210323269417,-67.66836199787721L160.2431009569792,-53.24030195986968z" style="fill:rgb(244,158,168)"/><path d="M162.34210323269417,-67.66836199787721L133.6854993084228,-47.170902101122024L124.83943694606589,-32.74433387575493zM162.34210323269417,-67.66836199787721L124.83943694606589,-32.74433387575493L160.2431009569792,-53.24030195986968z" style="fill:rgb(82,237,172)"/><path d="M171.3265896877501,-20.484191442840086L160.2431009569792,-53.24030195986968L162.00172789581885,-2.6789375230604726z" style="fill:rgb(236,146,190)"/><path d="M-136.61796300562045,105.84882283790655L-132.42836962017077,79.84656147051841L-151.64420480835562,74.66121644579775z" style="fill:rgb(36,64,191)"/><path d="M-128.49983587854945,60.343086321405686L-151.64420480835562,74.66121644579775L-132.42836962017077,79.84656147051841zM-128.49983587854945,60.343086321405686L-132.42836962017077,79.84656147051841L-111.84811943823198,64.32456658944928z" style="fill:rgb(82,237,172)"/><path d="M-117.20990937926786,111.8829347970819L-132.42836962017077,79.84656147051841L-136.61796300562045,105.84882283790655z" style="fill:rgb(36,64,191)"/><path d="M162.00172789581885,-2.6789375230604726L160.2431009569792,-53.24030195986968L150.4647247748929,-36.1803032211992z" style="fill:rgb(236,146,190)"/><path d="M160.2431009569792,-53.24030195986968L124.83943694606589,-32.74433387575493L109.59393598483643,-16.83206542338382z" style="fill:rgb(82,237,172)"/><path d="M162.00172789581885,-2.6789375230604726L150.4647247748929,-36.1803032211992L144.90848915487925,16.943877438633493z" style="fill:rgb(225,133,209)"/><path d="M-111.84811943823198,64.32456658944928L-132.42836962017077,79.84656147051841L-106.26962295816018,80.9086692351553z" style="fill:rgb(82,237,172)"/><path d="M-117.20990937926786,111.8829347970819L-106.26962295816018,80.9086692351553L-132.42836962017077,79.84656147051841z" style="fill:rgb(54,63,210)"/><path d="M160.2431009569792,-53.24030195986968L107.7584628593088,2.844194524880102L150.4647247748929,-36.1803032211992zM-111.84811943823198,64.32456658944928L-106.26962295816018,80.9086692351553L-89.61063838789988,64.87263400112661z" style="fill:rgb(82,237,172)"/><path d="M-91.00803843006864,113.75408439116946L-106.26962295816018,80.9086692351553L-117.20990937926786,111.8829347970819z" style="fill:rgb(54,63,210)"/><path d="M144.90848915487925,16.943877438633493L150.4647247748929,-36.1803032211992L132.83873395238132,-17.172017442196708z" style="fill:rgb(225,133,209)"/><path d="M160.2431009569792,-53.24030195986968L109.59393598483643,-16.83206542338382L76.26629693446996,22.722394801531095zM-89.61063838789988,64.87263400112661L-106.26962295816018,80.9086692351553L-62.64302529298049,61.733083747970745z" style="fill:rgb(82,237,172)"/><path d="M144.90848915487925,16.943877438633493L132.83873395238132,-17.172017442196708L120.42024519846588,37.40049283068302z" style="fill:rgb(209,121,225)"/><path d="M150.4647247748929,-36.1803032211992L107.7584628593088,2.844194524880102L132.83873395238132,-17.172017442196708zM160.2431009569792,-53.24030195986968L76.26629693446996,22.722394801531095L107.7584628593088,2.844194524880102z" style="fill:rgb(82,237,172)"/><path d="M-91.00803843006864,113.75408439116946L-74.13213986105303,77.46195950803451L-106.26962295816018,80.9086692351553z" style="fill:rgb(74,65,225)"/><path d="M88.36295591774463,-0.20778078430115668L76.26629693446996,22.722394801531095L109.59393598483643,-16.83206542338382z" style="fill:rgb(82,237,172)"/><path d="M-58.99199175737469,111.0315572825452L-74.13213986105303,77.46195950803451L-91.00803843006864,113.75408439116946z" style="fill:rgb(74,65,225)"/><path d="M-62.64302529298049,61.733083747970745L-106.26962295816018,80.9086692351553L-74.13213986105303,77.46195950803451z" style="fill:rgb(82,237,172)"/><path d="M120.42024519846588,37.40049283068302L132.83873395238132,-17.172017442196708L107.7584628593088,2.844194524880102z" style="fill:rgb(209,121,225)"/><path d="M-62.64302529298049,61.733083747970745L-74.13213986105303,77.46195950803451L-32.24138130368617,54.893617200364346z" style="fill:rgb(82,237,172)"/><path d="M120.42024519846588,37.40049283068302L107.7584628593088,2.844194524880102L89.54724984006715,57.512173519594754z" style="fill:rgb(190,108,236)"/><path d="M62.043779870291736,16.21674597726698L40.0432901879278,41.215872239715594L88.36295591774463,-0.20778078430115668zM-32.24138130368617,54.893617200364346L-37.586430346413515,69.43202998338974L-0.06827442445227373,44.62310152501522z" style="fill:rgb(82,237,172)"/><path d="M-58.99199175737469,111.0315572825452L-37.586430346413515,69.43202998338974L-74.13213986105303,77.46195950803451zM-22.731597047244517,103.59512811843453L-37.586430346413515,69.43202998338974L-58.99199175737469,111.0315572825452z" style="fill:rgb(97,70,237)"/><path d="M-32.24138130368617,54.893617200364346L-74.13213986105303,77.46195950803451L-37.586430346413515,69.43202998338974zM31.994467381182446,31.47018625035912L40.0432901879278,41.215872239715594L62.043779870291736,16.21674597726698zM-0.06827442445227373,44.62310152501522L1.2759992093220296,57.121263331076086L31.994467381182446,31.47018625035912zM88.36295591774463,-0.20778078430115668L40.0432901879278,41.215872239715594L76.26629693446996,22.722394801531095z" style="fill:rgb(82,237,172)"/><path d="M89.54724984006715,57.512173519594754L107.7584628593088,2.844194524880102L76.26629693446996,22.722394801531095z" style="fill:rgb(190,108,236)"/><path d="M89.54724984006715,57.512173519594754L76.26629693446996,22.722394801531095L53.92786417418814,76.01461592504373z" style="fill:rgb(168,96,244)"/><path d="M15.700511588888803,91.705047873338L1.2759992093220296,57.121263331076086L-22.731597047244517,103.59512811843453z" style="fill:rgb(120,77,244)"/><path d="M-0.06827442445227373,44.62310152501522L-37.586430346413515,69.43202998338974L1.2759992093220296,57.121263331076086z" style="fill:rgb(82,237,172)"/><path d="M-22.731597047244517,103.59512811843453L1.2759992093220296,57.121263331076086L-37.586430346413515,69.43202998338974z" style="fill:rgb(120,77,244)"/><path d="M53.92786417418814,76.01461592504373L40.0432901879278,41.215872239715594L15.700511588888803,91.705047873338z" style="fill:rgb(145,85,246)"/><path d="M31.994467381182446,31.47018625035912L1.2759992093220296,57.121263331076086L40.0432901879278,41.215872239715594z" style="fill:rgb(82,237,172)"/><path d="M53.92786417418814,76.01461592504373L76.26629693446996,22.722394801531095L40.0432901879278,41.215872239715594z" style="fill:rgb(168,96,244)"/><path d="M15.700511588888803,91.705047873338L40.0432901879278,41.215872239715594L1.2759992093220296,57.121263331076086z" style="fill:rgb(145,85,246)"/></svg>