<svg viewBox="-250 -250 500 500" width="500" height="500" xmlns="http://www.w3.org/2000/svg"><path d="M-47.33207499417125,-52.962126240221714L-54.26732960584312,-49.876352037166725L-74.12170867245929,-39.53911206030629zM65.01335149789074,-89.30325672497736L-26.404046230475043,-62.27392898133131L-47.33207499417125,-52.962126240221714zM65.01335149789074,-89.30325672497736L2.158969780088828,-72.99606456409862L-26.404046230475043,-62.27392898133131zM65.01335149789074,-89.30325672497736L30.72323221503451,-81.7651406461565L2.158969780088828,-72.99606456409862z" style="fill:rgb(82,237,172)"/><path d="M11.81455177319761,-38.15355507646356L-23.769308218858402,-56.03538843348656L-12.733663193090985,-29.026339644584475z" style="fill:rgb(133,81,246)"/><path d="M-12.733663193090985,-29.026339644584475L-47.92922669453727,-45.26693197929985L-36.61509491298002,-18.302408140162882z" style="fill:rgb(156,91,246)"/><path d="M65.01335149789074,-89.30325672497736L-47.33207499417125,-52.962126240221714L-63.426482769315726,-41.175418522919315z" style="fill:rgb(82,237,172)"/><path d="M-23.769308218858402,-56.03538843348656L-47.92922669453727,-45.26693197929985L-12.733663193090985,-29.026339644584475z" style="fill:rgb(156,91,246)"/><path d="M36.37192718897737,-45.42697149034901L1.0109935766679743,-65.32084494080766L11.81455177319761,-38.15355507646356z" style="fill:rgb(108,73,241)"/><path d="M1.0109935766679743,-65.32084494080766L-23.769308218858402,-56.03538843348656L11.81455177319761,-38.15355507646356z" style="fill:rgb(133,81,246)"/><path d="M-36.61509491298002,-18.302408140162882L-70.81546282385408,-33.293432185761446L-59.180187258791214,-6.259379645519816z" style="fill:rgb(179,102,241)"/><path d="M-23.769308218858402,-56.03538843348656L-63.426482769315726,-41.175418522919315L-73.250423175792,-33.9808871244859zM65.01335149789074,-89.30325672497736L58.562195801273724,-88.31009595658686L30.72323221503451,-81.7651406461565z" style="fill:rgb(82,237,172)"/><path d="M-47.92922669453727,-45.26693197929985L-70.81546282385408,-33.293432185761446L-36.61509491298002,-18.302408140162882z" style="fill:rgb(179,102,241)"/><path d="M-47.33207499417125,-52.962126240221714L-74.12170867245929,-39.53911206030629L-110.11729162735415,-6.981493322057331z" style="fill:rgb(82,237,172)"/><path d="M25.751208870939625,-72.86398136181927L1.0109935766679743,-65.32084494080766L36.37192718897737,-45.42697149034901z" style="fill:rgb(108,73,241)"/><path d="M25.751208870939625,-72.86398136181927L13.704306239802454,-70.07716167483548L1.0109935766679743,-65.32084494080766zM-70.81546282385408,-33.293432185761446L-47.92922669453727,-45.26693197929985L-60.30858956253034,-39.749259889220944zM-80.73740258099666,-36.094671678678594L-105.10448131864537,-21.245095253740335L-126.62610187805495,-5.682612952088757z" style="fill:rgb(82,237,172)"/><path d="M60.25912524485706,-50.606334921385645L25.751208870939625,-72.86398136181927L36.37192718897737,-45.42697149034901z" style="fill:rgb(85,67,232)"/><path d="M-60.30858956253034,-39.749259889220944L-73.250423175792,-33.9808871244859L-91.76919659114932,-20.41867527060081z" style="fill:rgb(82,237,172)"/><path d="M-70.81546282385408,-33.293432185761446L-91.76919659114932,-20.41867527060081L-59.180187258791214,-6.259379645519816zM-59.180187258791214,-6.259379645519816L-91.76919659114932,-20.41867527060081L-79.77504053732973,6.797520373108157z" style="fill:rgb(200,114,231)"/><path d="M49.76937498643463,-78.420134197094L25.751208870939625,-72.86398136181927L60.25912524485706,-50.606334921385645z" style="fill:rgb(85,67,232)"/><path d="M82.76266570738973,-53.46908517820604L49.76937498643463,-78.420134197094L60.25912524485706,-50.606334921385645z" style="fill:rgb(63,64,218)"/><path d="M-80.73740258099666,-36.094671678678594L-126.62610187805495,-5.682612952088757L-144.51871069049318,10.183654581620234zM113.93967740115141,-93.26465985260454L65.01335149789074,-89.30325672497736L13.704306239802454,-70.07716167483548z" style="fill:rgb(82,237,172)"/><path d="M-91.76919659114932,-20.41867527060081L-110.11729162735415,-6.981493322057331L-79.77504053732973,6.797520373108157zM-79.77504053732973,6.797520373108157L-110.11729162735415,-6.981493322057331L-97.73367256463297,20.52615680621013z" style="fill:rgb(217,127,217)"/><path d="M113.93967740115141,-93.26465985260454L84.89964698467239,-92.36466385961899L65.01335149789074,-89.30325672497736z" style="fill:rgb(82,237,172)"/><path d="M72.34939005838037,-81.75948025923267L49.76937498643463,-78.420134197094L82.76266570738973,-53.46908517820604z" style="fill:rgb(63,64,218)"/><path d="M-80.73740258099666,-36.094671678678594L-163.09771298169375,40.93874175942149L-74.12170867245929,-39.53911206030629z" style="fill:rgb(82,237,172)"/><path d="M103.12762776968196,-53.81680254726439L72.34939005838037,-81.75948025923267L82.76266570738973,-53.46908517820604z" style="fill:rgb(44,63,200)"/><path d="M-80.73740258099666,-36.094671678678594L-144.51871069049318,10.183654581620234L-157.9625651008226,25.87603949823158zM113.93967740115141,-93.26465985260454L108.89283921909761,-93.67206287491652L84.89964698467239,-92.36466385961899z" style="fill:rgb(82,237,172)"/><path d="M-110.11729162735415,-6.981493322057331L-125.17131464483619,6.634719576581442L-97.73367256463297,20.52615680621013zM-97.73367256463297,20.52615680621013L-125.17131464483619,6.634719576581442L-112.37740474625438,34.537645315911064z" style="fill:rgb(231,140,200)"/><path d="M92.7331090365596,-82.67309568693602L72.34939005838037,-81.75948025923267L103.12762776968196,-53.81680254726439z" style="fill:rgb(44,63,200)"/><path d="M129.13979090347476,-92.03763918477438L113.93967740115141,-93.26465985260454L49.76937498643463,-78.420134197094zM129.13979090347476,-92.03763918477438L49.76937498643463,-78.420134197094L123.02071671428604,-89.25329008982344z" style="fill:rgb(82,237,172)"/><path d="M103.12762776968196,-53.81680254726439L113.66493626192116,-59.214463887123785L92.7331090365596,-82.67309568693602z" style="fill:rgb(29,65,180)"/><path d="M-80.73740258099666,-36.094671678678594L-157.9625651008226,25.87603949823158L-166.12536743615064,40.837873109349054z" style="fill:rgb(82,237,172)"/><path d="M103.12762776968196,-53.81680254726439L116.20426813186859,-52.07017672953957L113.66493626192116,-59.214463887123785z" style="fill:rgb(29,65,180)"/><path d="M123.02071671428604,-89.25329008982344L72.34939005838037,-81.75948025923267L110.28890615031986,-83.45996920468323z" style="fill:rgb(82,237,172)"/><path d="M-125.17131464483619,6.634719576581442L-136.2375322497117,19.99390344113747L-112.37740474625438,34.537645315911064z" style="fill:rgb(241,152,179)"/><path d="M105.77699439188494,-81.40692229960119L92.7331090365596,-82.67309568693602L113.66493626192116,-59.214463887123785zM116.20426813186859,-52.07017672953957L120.55869332894301,-51.48858237395955L113.66493626192116,-59.214463887123785z" style="fill:rgb(29,65,180)"/><path d="M-112.37740474625438,34.537645315911064L-136.2375322497117,19.99390344113747L-123.0256670093975,48.387769660429406z" style="fill:rgb(241,152,179)"/><path d="M-80.73740258099666,-36.094671678678594L-166.12536743615064,40.837873109349054L-166.36924127332674,42.42737780106104zM110.28890615031986,-83.45996920468323L92.7331090365596,-82.67309568693602L105.77699439188494,-81.40692229960119zM-125.17131464483619,6.634719576581442L-133.0903744571387,13.797435124392612L-136.2375322497117,19.99390344113747zM-80.73740258099666,-36.094671678678594L-166.36924127332674,42.42737780106104L-163.09771298169375,40.93874175942149z" style="fill:rgb(82,237,172)"/><path d="M120.55869332894301,-51.48858237395955L105.77699439188494,-81.40692229960119L113.66493626192116,-59.214463887123785z" style="fill:rgb(29,65,180)"/><path d="M129.62528430847968,-91.99844496815102L129.13979090347476,-92.03763918477438L123.02071671428604,-89.25329008982344z" style="fill:rgb(82,237,172)"/><path d="M120.55869332894301,-51.48858237395955L110.12156103231497,-80.98516694775081L105.77699439188494,-81.40692229960119z" style="fill:rgb(29,65,180)"/><path d="M129.62528430847968,-91.99844496815102L123.02071671428604,-89.25329008982344L133.63050295389752,-90.82238852542056z" style="fill:rgb(82,237,172)"/><path d="M120.55869332894301,-51.48858237395955L125.64047538987475,-58.71460606019106L110.12156103231497,-80.98516694775081z" style="fill:rgb(17,70,157)"/><path d="M141.51079265349298,-88.50848156062911L123.02071671428604,-89.25329008982344L110.28890615031986,-83.45996920468323z" style="fill:rgb(82,237,172)"/><path d="M120.55869332894301,-51.48858237395955L129.32496424736223,-48.21487309283764L125.64047538987475,-58.71460606019106z" style="fill:rgb(17,70,157)"/><path d="M132.63900353462864,-84.46171196748482L110.28890615031986,-83.45996920468323L105.77699439188494,-81.40692229960119zM141.51079265349298,-88.50848156062911L133.63050295389752,-90.82238852542056L123.02071671428604,-89.25329008982344zM-141.52348772245048,21.4250831868336L-141.9993482241414,31.338403171276966L-133.0903744571387,13.797435124392612z" style="fill:rgb(82,237,172)"/><path d="M-123.0256670093975,48.387769660429406L-136.2375322497117,19.99390344113747L-141.9993482241414,31.338403171276966z" style="fill:rgb(246,163,156)"/><path d="M141.51079265349298,-88.50848156062911L110.28890615031986,-83.45996920468323L132.63900353462864,-84.46171196748482zM132.63900353462864,-84.46171196748482L105.77699439188494,-81.40692229960119L122.40365931203809,-79.79291279701525z" style="fill:rgb(82,237,172)"/><path d="M-128.41980604615992,60.250092798491735L-123.0256670093975,48.387769660429406L-140.65352142773045,34.20369366328773z" style="fill:rgb(246,163,156)"/><path d="M118.81777796669645,-78.1572594812709L110.12156103231497,-80.98516694775081L125.64047538987475,-58.71460606019106zM129.32496424736223,-48.21487309283764L134.2347292352166,-46.38136182499434L125.64047538987475,-58.71460606019106z" style="fill:rgb(17,70,157)"/><path d="M120.66875641084798,-79.00158300564335L119.31095338515786,-80.09313643556877L110.12156103231497,-80.98516694775081zM120.66875641084798,-79.00158300564335L110.12156103231497,-80.98516694775081L118.81777796669645,-78.1572594812709z" style="fill:rgb(82,237,172)"/><path d="M-123.0256670093975,48.387769660429406L-141.9993482241414,31.338403171276966L-140.65352142773045,34.20369366328773z" style="fill:rgb(246,163,156)"/><path d="M134.2347292352166,-46.38136182499434L118.81777796669645,-78.1572594812709L125.64047538987475,-58.71460606019106z" style="fill:rgb(17,70,157)"/><path d="M88.0455792080207,-64.12079420179028L79.99583661603488,-69.67575133284065L-149.5847780741675,34.78999392895199zM122.40365931203809,-79.79291279701525L119.31095338515786,-80.09313643556877L120.66875641084798,-79.00158300564335zM-141.52348772245048,21.4250831868336L-142.53997143162545,31.584403970343228L-141.9993482241414,31.338403171276966zM-163.09771298169375,40.93874175942149L-142.53997143162545,31.584403970343228L-141.52348772245048,21.4250831868336zM141.51079265349298,-88.50848156062911L141.2203373918616,-84.84632624718273L141.92825667410983,-88.38591295770621zM141.51079265349298,-88.50848156062911L132.63900353462864,-84.46171196748482L141.2203373918616,-84.84632624718273z" style="fill:rgb(82,237,172)"/><path d="M134.2347292352166,-46.38136182499434L123.68964854183513,-76.57300486512986L118.81777796669645,-78.1572594812709z" style="fill:rgb(17,70,157)"/><path d="M129.1291479259257,-79.14008506789736L122.40365931203809,-79.79291279701525L120.66875641084798,-79.00158300564335zM120.66875641084798,-79.00158300564335L118.81777796669645,-78.1572594812709L123.68964854183513,-76.57300486512986z" style="fill:rgb(82,237,172)"/><path d="M-129.6142116223465,70.98846600804805L98.94325147959903,-34.2285636418954L88.0455792080207,-64.12079420179028z" style="fill:rgb(158,91,245)"/><path d="M132.63900353462864,-84.46171196748482L122.40365931203809,-79.79291279701525L139.8705917452643,-78.0973662635731zM132.63900353462864,-84.46171196748482L139.8705917452643,-78.0973662635731L141.2203373918616,-84.84632624718273z" style="fill:rgb(82,237,172)"/><path d="M143.34160476998363,-38.47807467440049L123.68964854183513,-76.57300486512986L134.2347292352166,-46.38136182499434z" style="fill:rgb(10,77,134)"/><path d="M-166.36924127332674,42.42737780106104L-166.63115641570124,44.13470238009797L-163.09771298169375,40.93874175942149z" style="fill:rgb(82,237,172)"/><path d="M-129.6142116223465,70.98846600804805L88.0455792080207,-64.12079420179028L-129.79395180574272,70.60786959897342z" style="fill:rgb(158,91,245)"/><path d="M129.1291479259257,-79.14008506789736L120.66875641084798,-79.00158300564335L132.61926499952392,-69.39427724254932zM88.0455792080207,-64.12079420179028L-149.5847780741675,34.78999392895199L-146.68522883559618,42.94943607191448zM-167.9363641842916,52.64297601653518L-149.5847780741675,34.78999392895199L-163.09771298169375,40.93874175942149z" style="fill:rgb(82,237,172)"/><path d="M-129.79395180574272,70.60786959897342L88.0455792080207,-64.12079420179028L-143.53329613312604,41.511713069608724z" style="fill:rgb(158,91,245)"/><path d="M-167.9363641842916,52.64297601653518L-163.09771298169375,40.93874175942149L-166.63115641570124,44.13470238009797z" style="fill:rgb(82,237,172)"/><path d="M132.61926499952392,-69.39427724254932L123.68964854183513,-76.57300486512986L143.34160476998363,-38.47807467440049z" style="fill:rgb(10,77,134)"/><path d="M-129.7744686649121,73.53280529013301L-129.6142116223465,70.98846600804805L-140.606234151313,47.71038165429574z" style="fill:rgb(246,173,133)"/><path d="M-167.9363641842916,52.64297601653518L-146.68522883559618,42.94943607191448L-149.5847780741675,34.78999392895199z" style="fill:rgb(82,237,172)"/><path d="M-129.7744686649121,73.53280529013301L-140.606234151313,47.71038165429574L-143.7742139527897,43.919659620667616z" style="fill:rgb(246,173,133)"/><path d="M136.1553167120374,-59.520316489297485L139.8705917452643,-78.0973662635731L129.1291479259257,-79.14008506789736z" style="fill:rgb(82,237,172)"/><path d="M-143.53329613312604,41.511713069608724L-143.7742139527897,43.919659620667616L-140.606234151313,47.71038165429574z" style="fill:rgb(246,173,133)"/><path d="M147.12728440736288,-27.880431444697354L132.61926499952392,-69.39427724254932L143.34160476998363,-38.47807467440049z" style="fill:rgb(8,85,109)"/><path d="M130.96452705845905,-33.56561859650327L146.11533201016323,-87.15642181473237L141.92825667410983,-88.38591295770621zM-167.9363641842916,52.64297601653518L-168.2107426698842,54.43166296128079L-163.53667093790773,65.9523158780504z" style="fill:rgb(82,237,172)"/><path d="M136.1553167120374,-59.520316489297485L132.61926499952392,-69.39427724254932L147.12728440736288,-27.880431444697354z" style="fill:rgb(8,85,109)"/><path d="M130.96452705845905,-33.56561859650327L157.34874981113745,-79.0397365593739L146.11533201016323,-87.15642181473237zM-167.9363641842916,52.64297601653518L-146.9761613173471,75.92088227436712L-143.53329613312604,41.511713069608724z" style="fill:rgb(82,237,172)"/><path d="M162.34211901775328,-67.66836857749564L171.76732059494668,-24.362615980376642L173.06020081682522,-35.74048590946766z" style="fill:rgb(244,158,168)"/><path d="M-167.9363641842916,52.64297601653518L-163.53667093790773,65.9523158780504L-151.6442200454493,74.66122394769963z" style="fill:rgb(82,237,172)"/><path d="M-163.53667093790773,65.9523158780504L-148.8249762310647,96.29191649328297L-150.9207328724315,80.21206866299377z" style="fill:rgb(22,67,169)"/><path d="M130.96452705845905,-33.56561859650327L162.34211901775328,-67.66836857749564L157.34874981113745,-79.0397365593739z" style="fill:rgb(82,237,172)"/><path d="M-148.8249762310647,96.29191649328297L-139.7210800238415,103.4193720321784L-150.9207328724315,80.21206866299377z" style="fill:rgb(22,67,169)"/><path d="M162.34211901775328,-67.66836857749564L169.06341346847188,-32.36986462508305L171.76732059494668,-24.362615980376642z" style="fill:rgb(244,158,168)"/><path d="M-139.1512499578816,53.361159698639305L-136.6916726477835,58.38442682634834L-128.49984864652754,60.34309231720483z" style="fill:rgb(82,237,172)"/><path d="M169.06341346847188,-32.36986462508305L162.34211901775328,-67.66836857749564L160.77686940197034,-56.909283465696106z" style="fill:rgb(244,158,168)"/><path d="M-167.9363641842916,52.64297601653518L-151.6442200454493,74.66122394769963L-146.9761613173471,75.92088227436712zM-143.7742139527897,43.919659620667616L-146.53376676378957,71.49968101431703L-131.14701117209975,69.70834599202071z" style="fill:rgb(82,237,172)"/><path d="M169.06341346847188,-32.36986462508305L171.3266066636782,-20.48419347252014L171.76732059494668,-24.362615980376642z" style="fill:rgb(244,158,168)"/><path d="M-163.53667093790773,65.9523158780504L-150.9207328724315,80.21206866299377L-154.6682353474141,72.44672086893641z" style="fill:rgb(22,67,169)"/><path d="M169.06341346847188,-32.36986462508305L160.24311703697376,-53.24030730240088L171.3266066636782,-20.48419347252014z" style="fill:rgb(244,158,168)"/><path d="M-139.7210800238415,103.4193720321784L-136.61793410445438,105.84879088402232L-151.6442200454493,74.66122394769963zM-139.7210800238415,103.4193720321784L-151.6442200454493,74.66122394769963L-150.9207328724315,80.21206866299377z" style="fill:rgb(22,67,169)"/><path d="M169.06341346847188,-32.36986462508305L160.77686940197034,-56.909283465696106L160.24311703697376,-53.24030730240088z" style="fill:rgb(244,158,168)"/><path d="M130.96452705845905,-33.56561859650327L160.77686940197034,-56.909283465696106L162.34211901775328,-67.66836857749564z" style="fill:rgb(82,237,172)"/><path d="M-135.6099144993429,99.59258396729052L-136.61793410445438,105.84879088402232L-131.9018544674134,107.31509777350405z" style="fill:rgb(36,64,191)"/><path d="M-150.9207328724315,80.21206866299377L-151.6442200454493,74.66122394769963L-154.6682353474141,72.44672086893641z" style="fill:rgb(22,67,169)"/><path d="M-135.6099144993429,99.59258396729052L-151.6442200454493,74.66122394769963L-136.61793410445438,105.84879088402232z" style="fill:rgb(36,64,191)"/><path d="M171.3266066636782,-20.48419347252014L160.24311703697376,-53.24030730240088L162.0016939790921,-2.678937684034927z" style="fill:rgb(236,146,190)"/><path d="M-135.6099144993429,99.59258396729052L-146.9761613173471,75.92088227436712L-151.6442200454493,74.66122394769963z" style="fill:rgb(36,64,191)"/><path d="M-136.6916726477835,58.38442682634834L-131.14701117209975,69.70834599202071L-103.02454624210637,66.43433713141991zM150.46469610090037,-36.18030696029731L160.24311703697376,-53.24030730240088L160.77686940197034,-56.909283465696106z" style="fill:rgb(82,237,172)"/><path d="M-132.42837863011673,79.84656690298885L-135.6099144993429,99.59258396729052L-131.9018544674134,107.31509777350405z" style="fill:rgb(36,64,191)"/><path d="M120.15123506205943,-25.09859004870674L130.96452705845905,-33.56561859650327L133.6855125770166,-47.17090678294274zM-146.53376676378957,71.49968101431703L-146.9761613173471,75.92088227436712L-132.42837863011673,79.84656690298885z" style="fill:rgb(82,237,172)"/><path d="M-135.6099144993429,99.59258396729052L-132.42837863011673,79.84656690298885L-146.9761613173471,75.92088227436712zM-132.42837863011673,79.84656690298885L-131.9018544674134,107.31509777350405L-117.20988493087002,111.8829462234334z" style="fill:rgb(36,64,191)"/><path d="M162.0016939790921,-2.678937684034927L160.24311703697376,-53.24030730240088L150.46469610090037,-36.18030696029731z" style="fill:rgb(236,146,190)"/><path d="M109.59394737792424,-16.832067173199608L120.15123506205943,-25.09859004870674L124.83944964649118,-32.74433720696962zM-111.84813082833186,64.32457313996835L-103.02454624210637,66.43433713141991L-89.61064771138763,64.8726407507628zM-146.53376676378957,71.49968101431703L-132.42837863011673,79.84656690298885L-106.26963424012648,80.9086778247113z" style="fill:rgb(82,237,172)"/><path d="M162.0016939790921,-2.678937684034927L150.46469610090037,-36.18030696029731L144.90849808762317,16.94387848312246z" style="fill:rgb(225,133,209)"/><path d="M-117.20988493087002,111.8829462234334L-106.26963424012648,80.9086778247113L-132.42837863011673,79.84656690298885zM-91.00804404574188,113.75409141039303L-106.26963424012648,80.9086778247113L-117.20988493087002,111.8829462234334z" style="fill:rgb(54,63,210)"/><path d="M150.46469610090037,-36.18030696029731L160.77686940197034,-56.909283465696106L30.416163916347642,45.165687784815596z" style="fill:rgb(82,237,172)"/><path d="M144.90849808762317,16.94387848312246L150.46469610090037,-36.18030696029731L132.83870265694864,-17.172019263407233z" style="fill:rgb(225,133,209)"/><path d="M-146.53376676378957,71.49968101431703L-106.26963424012648,80.9086778247113L-74.13214789574373,77.46196790362225z" style="fill:rgb(82,237,172)"/><path d="M144.90849808762317,16.94387848312246L132.83870265694864,-17.172019263407233L120.42025277656069,37.40049518431118z" style="fill:rgb(209,121,225)"/><path d="M150.46469610090037,-36.18030696029731L107.75842338985876,2.8441947063273494L132.83870265694864,-17.172019263407233zM-146.53376676378957,71.49968101431703L-74.13214789574373,77.46196790362225L-37.58643447958205,69.4320376184399z" style="fill:rgb(82,237,172)"/><path d="M-91.00804404574188,113.75409141039303L-74.13214789574373,77.46196790362225L-106.26963424012648,80.9086778247113z" style="fill:rgb(74,65,225)"/><path d="M62.04374450856638,16.21674771386122L77.23555052538815,8.505197910134452L88.36301053180787,-0.20778080628085874z" style="fill:rgb(82,237,172)"/><path d="M-58.99195612690224,111.03156915318117L-74.13214789574373,77.46196790362225L-91.00804404574188,113.75409141039303z" style="fill:rgb(74,65,225)"/><path d="M-146.53376676378957,71.49968101431703L-37.58643447958205,69.4320376184399L1.2759992925890273,57.12126705859885z" style="fill:rgb(82,237,172)"/><path d="M120.42025277656069,37.40049518431118L132.83870265694864,-17.172019263407233L107.75842338985876,2.8441947063273494z" style="fill:rgb(209,121,225)"/><path d="M-62.64303192376662,61.73309028243925L-33.50891921872824,58.34125411652403L-16.437979907566763,51.338372591851545zM150.46469610090037,-36.18030696029731L76.26630531703046,22.722397298988778L107.75842338985876,2.8441947063273494zM-146.53376676378957,71.49968101431703L1.2759992925890273,57.12126705859885L10.905451042608101,53.17049053854551zM-32.24138475767193,54.89362308106067L-16.437979907566763,51.338372591851545L-0.06827443181131362,44.6231063347692z" style="fill:rgb(82,237,172)"/><path d="M120.42025277656069,37.40049518431118L107.75842338985876,2.8441947063273494L89.54725954691189,57.51217975386482z" style="fill:rgb(190,108,236)"/><path d="M150.46469610090037,-36.18030696029731L40.043294623203955,41.215876804869325L76.26630531703046,22.722397298988778zM31.994469884642328,31.470188712795764L-33.50891921872824,58.34125411652403L-17.201472569430972,56.44274026572512zM150.46469610090037,-36.18030696029731L30.416163916347642,45.165687784815596L40.043294623203955,41.215876804869325z" style="fill:rgb(82,237,172)"/><path d="M-58.99195612690224,111.03156915318117L-37.58643447958205,69.4320376184399L-74.13214789574373,77.46196790362225zM-22.731640119591074,103.59513935336263L-37.58643447958205,69.4320376184399L-58.99195612690224,111.03156915318117z" style="fill:rgb(97,70,237)"/><path d="M-17.201472569430972,56.44274026572512L30.416163916347642,45.165687784815596L77.23555052538815,8.505197910134452z" style="fill:rgb(82,237,172)"/><path d="M89.54725954691189,57.51217975386482L107.75842338985876,2.8441947063273494L76.26630531703046,22.722397298988778z" style="fill:rgb(190,108,236)"/><path d="M89.54725954691189,57.51217975386482L76.26630531703046,22.722397298988778L53.92787006451928,76.01462422782498z" style="fill:rgb(168,96,244)"/><path d="M21.68379203926165,79.29515526598477L25.19584369765575,87.80769585144007L44.43483427391115,79.91104551607839zM21.68379203926165,79.29515526598477L15.700472399926266,91.70505789153519L25.19584369765575,87.80769585144007z" style="fill:rgb(145,85,246)"/><path d="M15.700472399926266,91.70505789153519L1.2759992925890273,57.12126705859885L-22.731640119591074,103.59513935336263zM-22.731640119591074,103.59513935336263L1.2759992925890273,57.12126705859885L-37.58643447958205,69.4320376184399z" style="fill:rgb(120,77,244)"/><path d="M40.043294623203955,41.215876804869325L44.43483427391115,79.91104551607839L53.92787006451928,76.01462422782498zM21.68379203926165,79.29515526598477L44.43483427391115,79.91104551607839L33.934526852158804,53.88597919310546zM10.905451042608101,53.17049053854551L15.700472399926266,91.70505789153519L21.68379203926165,79.29515526598477z" style="fill:rgb(145,85,246)"/><path d="M53.92787006451928,76.01462422782498L76.26630531703046,22.722397298988778L40.043294623203955,41.215876804869325z" style="fill:rgb(168,96,244)"/><path d="M40.043294623203955,41.215876804869325L33.934526852158804,53.88597919310546L44.43483427391115,79.91104551607839z" style="fill:rgb(145,85,246)"/><path d="M-17.201472569430972,56.44274026572512L10.905451042608101,53.17049053854551L30.416163916347642,45.165687784815596z" style="fill:rgb(82,237,172)"/><path d="M30.416163916347642,45.165687784815596L21.68379203926165,79.29515526598477L33.934526852158804,53.88597919310546zM10.905451042608101,53.17049053854551L1.2759992925890273,57.12126705859885L15.700472399926266,91.70505789153519zM30.416163916347642,45.165687784815596L10.905451042608101,53.17049053854551L21.68379203926165,79.29515526598477zM33.934526852158804,53.88597919310546L40.043294623203955,41.215876804869325L30.416163916347642,45.165687784815596z" style="fill:rgb(145,85,246)"/></svg>